<?xml version="1.0" encoding="UTF-8"?>
<svg viewBox="0 0 151 91" version="1.1" xmlns="http://www.w3.org/2000/svg" xmlns:xlink="http://www.w3.org/1999/xlink">
    <g id="Page-1" stroke="none" stroke-width="1" fill="none" fill-rule="evenodd">
        <g id="am_logo" transform="translate(1.000000, -3.000000)" fill="#2A2B3C" fill-rule="nonzero" stroke="#2A2B3C" stroke-width="2">
            <path d="M21.9613793,87.203992 L49.7520872,39.069074 L77.542795,87.203992 C80.718432,92.704358 87.751722,94.588922 93.252087,91.413285 C98.752452,88.237647 100.637017,81.204358 97.461379,75.703992 L59.9613793,10.7520872 C57.8437199,7.0841935 53.9301301,4.9226627 49.732992,5.002093 C45.5740443,4.9226627 41.6604544,7.0841935 39.542795,10.7520872 L2.042795,75.703992 C-1.1328423,81.204358 0.751722,88.237647 6.2520872,91.413285 C11.7524524,94.588922 18.785742,92.704358 21.9613793,87.203992 Z" id="A"></path>
            <rect id="M" transform="translate(118.500000, 48.500000) rotate(-30.000000) translate(-118.500000, -48.500000) " x="107" y="-0.5" width="23" height="98" rx="11.5"></rect>
            <circle id="O" cx="49.75" cy="76.5" r="11.5"></circle>
        </g>
    </g>
</svg>