<?xml version="1.0" encoding="UTF-8"?>
<svg viewBox="0 0 50 31" version="1.1" xmlns="http://www.w3.org/2000/svg" xmlns:xlink="http://www.w3.org/1999/xlink">
    <g id="Page-1" stroke="none" stroke-width="1" fill="none" fill-rule="evenodd">
        <path d="M20.1388889,13.8903351 C22.8993056,12.5854334 24.3402778,10.6109111 24.3402778,7.53752423 C24.3402778,1.47659928 19.7743056,0 14.5052083,0 L0,0 L0,30.4248131 L14.9131944,30.4248131 C20.5034722,30.4248131 25.7552083,27.7720853 25.7552083,21.590972 C25.7552083,17.7707006 23.9236111,14.9462753 20.1388889,13.8903351 Z M6.76215278,5.19385212 L13.1076389,5.19385212 C15.546875,5.19385212 17.7430556,5.8720576 17.7430556,8.67072833 C17.7430556,11.2547771 16.0329861,12.2935475 13.6197917,12.2935475 L6.76215278,12.2935475 L6.76215278,5.19385212 Z M13.9930556,25.2567156 L6.76215278,25.2567156 L6.76215278,16.8778732 L14.1319444,16.8778732 C17.109375,16.8778732 18.9930556,18.1055109 18.9930556,21.2218222 C18.9930556,24.2952091 16.7447917,25.2567156 13.9930556,25.2567156 Z M45.1128472,4.59291055 L32.6388889,4.59291055 L32.6388889,1.59678759 L45.1128472,1.59678759 L45.1128472,4.59291055 Z M50,19.7280532 C50,13.2121296 46.1458333,7.77790086 39.1579861,7.77790086 C32.3697917,7.77790086 27.7604167,12.82581 27.7604167,19.4361673 C27.7604167,26.295486 32.1267361,31 39.1579861,31 C44.4791667,31 47.9253472,28.6305732 49.5833333,23.591249 L44.1840278,23.591249 C43.6024306,25.4713376 41.2065972,26.4671836 39.3489583,26.4671836 C35.7638889,26.4671836 33.8802083,24.3896428 33.8802083,20.8612573 L49.9479167,20.8612573 C49.9739583,20.5006923 50,20.1143727 50,19.7280532 Z M33.8888889,17.0495708 C34.0885417,14.1564664 36.0329861,12.3450568 38.9670139,12.3450568 C42.0399306,12.3450568 43.5850694,14.1307117 43.8454861,17.0495708 L33.8888889,17.0495708 Z" id="behance" fill="#FFDD33" fill-rule="nonzero"></path>
    </g>
</svg>