<?xml version="1.0" encoding="UTF-8"?>
<svg viewBox="0 0 66 41" version="1.1" xmlns="http://www.w3.org/2000/svg" xmlns:xlink="http://www.w3.org/1999/xlink">
    <g id="Page-1" stroke="none" stroke-width="1" fill="none" fill-rule="evenodd">
        <g id="behance" transform="translate(0.000000, -5.000000)" fill-rule="nonzero">
            <rect id="base" x="8" y="0" width="50" height="50"></rect>
            <path d="M26.6805556,23.423013 C30.2690972,21.7392689 32.1423611,19.1914982 32.1423611,15.2258377 C32.1423611,7.40528939 26.2065972,5.5 19.3567708,5.5 L0.5,5.5 L0.5,44.7578233 L19.8871528,44.7578233 C27.1545139,44.7578233 33.9817708,41.3349488 33.9817708,33.3593187 C33.9817708,28.4299363 31.6006944,24.7855165 26.6805556,23.423013 Z M9.29079861,12.2017447 L17.5399306,12.2017447 C20.7109375,12.2017447 23.5659722,13.0768485 23.5659722,16.6880366 C23.5659722,20.022293 21.3428819,21.3626419 18.2057292,21.3626419 L9.29079861,21.3626419 L9.29079861,12.2017447 Z M18.6909722,38.0893104 L9.29079861,38.0893104 L9.29079861,27.2779009 L18.8715278,27.2779009 C22.7421875,27.2779009 25.1909722,28.8619496 25.1909722,32.8829964 C25.1909722,36.8486569 22.2682292,38.0893104 18.6909722,38.0893104 Z M59.1467014,11.4263362 L42.9305556,11.4263362 L42.9305556,7.56037109 L59.1467014,7.56037109 L59.1467014,11.4263362 Z M65.5,30.9555525 C65.5,22.5479092 60.4895833,15.5360011 51.4053819,15.5360011 C42.5807292,15.5360011 36.5885417,22.0494323 36.5885417,30.5789255 C36.5885417,39.4296594 42.2647569,45.5 51.4053819,45.5 C58.3229167,45.5 62.8029514,42.4426752 64.9583333,35.9403212 L57.9392361,35.9403212 C57.1831597,38.366242 54.0685764,39.6512047 51.6536458,39.6512047 C46.9930556,39.6512047 44.5442708,36.9705068 44.5442708,32.4177513 L65.4322917,32.4177513 C65.4661458,31.9525062 65.5,31.4540294 65.5,30.9555525 Z M44.5555556,27.4994461 C44.8151042,23.7664082 47.3428819,21.4291055 51.1571181,21.4291055 C55.1519097,21.4291055 57.1605903,23.7331764 57.4991319,27.4994461 L44.5555556,27.4994461 Z" fill="#2A2B3C"></path>
        </g>
    </g>
</svg>