<?xml version="1.0" encoding="UTF-8"?>
<svg viewBox="0 0 50 38" version="1.1" xmlns="http://www.w3.org/2000/svg" xmlns:xlink="http://www.w3.org/1999/xlink">
    <g id="contact" stroke="none" stroke-width="1" fill="none" fill-rule="evenodd">
        <path d="M49.0527344,12.5479167 C49.4335938,12.2411458 50,12.528125 50,13.0130208 L50,33.25 C50,35.8723958 47.9003906,38 45.3125,38 L4.6875,38 C2.09960938,38 0,35.8723958 0,33.25 L0,13.0229167 C0,12.528125 0.556640625,12.2510417 0.947265625,12.5578125 C3.13476562,14.2796875 6.03515625,16.4666667 15.9960937,23.7994792 C18.0566406,25.3234375 21.5332031,28.5296875 25,28.5098958 C28.4863281,28.5395833 32.03125,25.2640625 34.0136719,23.7994792 C43.9746094,16.4666667 46.8652344,14.2697917 49.0527344,12.5479167 Z M25,25.3333333 C27.265625,25.3729167 30.5273438,22.44375 32.1679688,21.2364583 C45.1269531,11.7067708 46.1132812,10.8755208 49.1015625,8.50052083 C49.6679687,8.05520833 50,7.3625 50,6.63020833 L50,4.75 C50,2.12760417 47.9003906,0 45.3125,0 L4.6875,0 C2.09960938,-2.812565e-15 0,2.12760417 0,4.75 L0,6.63020833 C0,7.3625 0.33203125,8.0453125 0.8984375,8.50052083 C3.88671875,10.865625 4.87304688,11.7067708 17.8320312,21.2364583 C19.4726562,22.44375 22.734375,25.3729167 25,25.3333333 Z" id="envelop" fill="#131425" fill-rule="nonzero"></path>
    </g>
</svg>