<?xml version="1.0" encoding="UTF-8"?>
<svg viewBox="0 0 50 51" version="1.1" xmlns="http://www.w3.org/2000/svg" xmlns:xlink="http://www.w3.org/1999/xlink">
    <g id="Insta" stroke="none" stroke-width="1" fill="none" fill-rule="evenodd">
        <g id="instagram" fill="#FFDD33" fill-rule="nonzero">
            <path d="M25.0055772,12.6806315 C17.9113218,12.6806315 12.1890686,18.4041616 12.1890686,25.5 C12.1890686,32.5958385 17.9113218,38.3193685 25.0055772,38.3193685 C32.0998327,38.3193685 37.8220859,32.5958385 37.8220859,25.5 C37.8220859,18.4041616 32.0998327,12.6806315 25.0055772,12.6806315 Z M25.0055772,33.8342631 C20.421082,33.8342631 16.6731734,30.0966752 16.6731734,25.5 C16.6731734,20.9033248 20.4099275,17.1657369 25.0055772,17.1657369 C29.601227,17.1657369 33.337981,20.9033248 33.337981,25.5 C33.337981,30.0966752 29.5900725,33.8342631 25.0055772,33.8342631 Z M41.3357501,12.1562535 C41.3357501,13.8186433 39.9972114,15.1463238 38.3463469,15.1463238 C36.6843279,15.1463238 35.3569436,13.8074864 35.3569436,12.1562535 C35.3569436,10.5050207 36.6954824,9.1661832 38.3463469,9.1661832 C39.9972114,9.1661832 41.3357501,10.5050207 41.3357501,12.1562535 Z M49.8243168,15.1909517 C49.6346904,11.1855964 48.7200223,7.63767712 45.7863915,4.7145487 C42.8639152,1.79142029 39.3167875,0.876548031 35.3123257,0.675722414 C31.1851645,0.441425862 18.8148354,0.441425862 14.6876743,0.675722414 C10.694367,0.865391052 7.14723926,1.78026331 4.21360848,4.70339173 C1.27997769,7.62652014 0.376464027,11.1744394 0.175683212,15.1797947 C-0.0585610708,19.3078769 -0.0585610708,31.6809662 0.175683212,35.8090483 C0.365309537,39.8144037 1.27997769,43.3623229 4.21360848,46.2854513 C7.14723926,49.2085797 10.6832125,50.123452 14.6876743,50.3242776 C18.8148354,50.5585742 31.1851645,50.5585742 35.3123257,50.3242776 C39.3167875,50.134609 42.8639152,49.2197367 45.7863915,46.2854513 C48.7088678,43.3623229 49.623536,39.8144037 49.8243168,35.8090483 C50.058561,31.6809662 50.058561,19.3190338 49.8243168,15.1909517 Z M44.4924707,40.2383689 C43.6224205,42.4251367 41.9380926,44.1098405 39.7406581,44.9912418 C36.4500836,46.2966083 28.6419409,45.9953699 25.0055772,45.9953699 C21.3692136,45.9953699 13.5499163,46.2854513 10.2704964,44.9912418 C8.08421639,44.1209975 6.39988845,42.4362937 5.51868377,40.2383689 C4.21360848,36.9470602 4.5147797,29.1371751 4.5147797,25.5 C4.5147797,21.862825 4.22476296,14.0417829 5.51868377,10.7616312 C6.38873396,8.57486333 8.07306191,6.89015955 10.2704964,6.00875823 C13.5610708,4.70339173 21.3692136,5.00463015 25.0055772,5.00463015 C28.6419409,5.00463015 36.4612381,4.7145487 39.7406581,6.00875823 C41.9269381,6.87900257 43.611266,8.56370635 44.4924707,10.7616312 C45.797546,14.0529399 45.4963748,21.862825 45.4963748,25.5 C45.4963748,29.1371751 45.797546,36.9582171 44.4924707,40.2383689 Z"></path>
        </g>
    </g>
</svg>