<?xml version="1.0" encoding="UTF-8"?>
<svg viewBox="0 0 48 48" version="1.1" xmlns="http://www.w3.org/2000/svg" xmlns:xlink="http://www.w3.org/1999/xlink">
    <g id="Page-1" stroke="none" stroke-width="1" fill="none" fill-rule="evenodd">
        <g id="linkedin" transform="translate(-1.000000, -1.000000)" fill-rule="nonzero">
            <rect id="base" x="0" y="0" width="50" height="50"></rect>
            <path d="M11.7440304,49 L1.79268021,49 L1.79268021,16.9535715 L11.7440304,16.9535715 L11.7440304,49 Z M6.76299933,12.5821428 C3.58156661,12.5821428 1,9.94642857 1,6.76428572 C1,3.58214285 3.58156661,1 6.76299933,1 C9.94443205,1 12.5259987,3.58214285 12.5259987,6.76428572 C12.5259987,9.94642857 9.94443205,12.5821428 6.76299933,12.5821428 Z M48.9892881,49 L39.0593618,49 L39.0593618,33.4 C39.0593618,29.6821428 38.9843785,24.9142857 33.8855166,24.9142857 C28.7116715,24.9142857 27.9189913,28.9535715 27.9189913,33.1321428 L27.9189913,49 L17.978353,49 L17.978353,16.9535715 L27.5226512,16.9535715 L27.5226512,21.325 L27.6619059,21.325 C28.9901808,18.8071428 32.2358848,16.15 37.0776612,16.15 C47.1468422,16.15 49,22.7821428 49,31.3964285 L49,49 L48.9892881,49 Z" id="linked_in" fill="#2A2B3C"></path>
        </g>
    </g>
</svg>