<?xml version="1.0" encoding="UTF-8"?>
<svg viewBox="0 0 50 50" version="1.1" xmlns="http://www.w3.org/2000/svg" xmlns:xlink="http://www.w3.org/1999/xlink">
    <g id="in" stroke="none" stroke-width="1" fill="none" fill-rule="evenodd">
        <path d="M11.1916983,50 L0.825708547,50 L0.825708547,16.6183036 L11.1916983,16.6183036 L11.1916983,50 Z M6.0031243,12.0647321 C2.68913189,12.0647321 0,9.31919643 0,6.00446429 C0,2.68973214 2.68913189,0 6.0031243,0 C9.31711672,0 12.0062486,2.68973214 12.0062486,6.00446429 C12.0062486,9.31919643 9.31711672,12.0647321 6.0031243,12.0647321 Z M49.9888418,50 L39.6451685,50 L39.6451685,33.75 C39.6451685,29.8772321 39.5670609,24.9107143 34.2557465,24.9107143 C28.8663245,24.9107143 28.0406159,29.1183036 28.0406159,33.4709821 L28.0406159,50 L17.6857844,50 L17.6857844,16.6183036 L27.6277617,16.6183036 L27.6277617,21.171875 L27.7728186,21.171875 C29.1564383,18.5491071 32.53738,15.78125 37.5808971,15.78125 C48.0696273,15.78125 50,22.6897321 50,31.6629464 L50,50 L49.9888418,50 Z" id="linked_in" fill="#FFDD33" fill-rule="nonzero"></path>
    </g>
</svg>