<?xml version="1.0" encoding="UTF-8"?>
<svg width="775px" height="860px" viewBox="0 0 775 860" version="1.1" xmlns="http://www.w3.org/2000/svg" xmlns:xlink="http://www.w3.org/1999/xlink">
    <!-- Generator: Sketch 43.2 (39069) - http://www.bohemiancoding.com/sketch -->
    <title>about-me-bg</title>
    <desc>Created with Sketch.</desc>
    <defs></defs>
    <g id="Page-1" stroke="none" stroke-width="1" fill="none" fill-rule="evenodd">
        <g id="about-me-bg">
            <rect id="Rectangle" fill="#222222" x="0" y="0" width="775" height="860"></rect>
            <path d="M775.001192,108.687205 C775.001192,108.687205 775.001192,99.9168477 745.636192,99.9168477 C733.212668,99.9168477 733.487868,103.18116 727.413432,103.259719 C721.338995,103.338278 717.644664,99.2344629 707.445626,97.4992831 C700.715322,96.3542448 700.805003,98.5344009 693.554747,97.4992831 C686.30449,96.4641652 683.524682,93.8367541 679.939119,94.0079881 C676.359379,94.1789442 668.076554,97.4992831 656.228059,96.8416563 C649.77504,96.4834946 644.230942,100.500699 638.620567,101.492009 C633.010191,102.483319 630.694397,99.7885066 623.839794,101.492009 C616.218273,103.386105 613.60486,105.890312 609.668318,108.687205 C605.731776,111.484098 605.388777,115.596515 598.583406,119.436543 C588.86928,124.917877 582.079469,123.287523 576.629324,128.624182 C574.320355,130.885072 573.209935,136.723279 570.478852,142.211899 C567.74777,147.700518 564.226792,147.753224 561.690783,154.727397 C559.201762,161.57235 552.258327,160.58588 550.195939,166.066327 C548.133551,171.546774 548.363617,177.261537 548.341219,189.206212 C548.326395,197.112193 539.349269,205.232269 539.350617,215.738726 C539.351097,219.475096 537.582983,233.968151 539.350617,253.101224 C541.118252,272.234297 543.754671,268.19949 544.417355,275.141579 C544.82523,279.414369 542.1801,283.725479 542.010791,287.917797 C541.924234,290.061043 543.844715,292.814506 544.417355,296.0421 C544.989994,299.269693 544.157538,302.675515 544.417355,305.323905 C544.728693,308.497466 549.294911,314.920268 550.195939,319.36566 C551.096967,323.811052 550.195939,335.828527 550.195939,335.828527 C550.195939,335.828527 542.010791,329.487679 538.302802,334.116237 C534.594814,338.744794 538.302802,360.80415 538.302802,360.80415 C538.302802,360.80415 535.095501,373.501822 542.010791,385.073141 C545.837045,391.475594 549.211206,398.250463 556.757119,410.913699 C560.319207,416.891448 556.211442,420.162101 564.226792,422.355111 C572.242142,424.54812 575.469761,416.30037 575.469761,416.30037 C575.469761,416.30037 590.747253,455.668528 590.747253,472.970069 C590.747253,490.271609 595.469678,506.801966 595.469678,506.801966 C595.469678,506.801966 582.779795,503.138624 576.629324,512.033238 C570.478852,520.927852 570.478852,560.454735 555.432112,569.824131 C551.693509,572.152107 540.429372,571.270504 525.463439,580.983792 C518.623883,585.422845 492.227964,597.7775 480.701998,613.352533 C469.176032,628.927566 459.365464,634.358166 450.969882,634.358166 C443.162063,634.358166 431.268927,626.103154 414.640305,629.453667 C398.011682,632.804179 349.521935,668.590905 349.521935,668.590905 C349.521935,668.590905 328.834118,668.590905 295.079365,707.651179 C263.533178,744.155747 221.964235,755.612731 215.604781,764.670878 C209.35894,773.567201 215.708206,778.894535 210.356998,785.735391 C207.715526,789.112187 161.369903,798.365587 144.906289,815.869671 C136.685809,824.609669 143.823498,836.398717 144.906289,845.237122 C145.989079,854.075528 141.034307,860 141.034307,860 L775.001192,860 L775.001192,108.687205 Z" id="Path" fill="#333333"></path>
        </g>
    </g>
</svg>