<?xml version="1.0" encoding="UTF-8"?>
<svg viewBox="0 0 500 500" version="1.1" xmlns="http://www.w3.org/2000/svg" xmlns:xlink="http://www.w3.org/1999/xlink">
    <defs>
        <polygon id="path-1" points="248.85666 37 48 107.53644 79.7407304 370.132054 249.068994 463 419.271946 368.873406 451 106.28728"></polygon>
        <path d="M299,263.444077 L248.869577,286.923739 L196.033246,286.923739 L171.196425,349.145158 L125,350 L248.869577,74 L299,263.44566 L299,263.444077 Z M294.154022,251.623512 L249.203074,162.493565 L212.330336,250.089545 L248.867997,250.089545 L294.154022,251.625095 L294.154022,251.623512 Z" id="path-2"></path>
        <polygon id="path-3" points="249 74 249.333004 162.229469 291.307364 249.630337 249.095144 249.630337 249 286.229264 307.370842 286.284504 334.651797 349.182447 379 350 249 74"></polygon>
        <polygon id="path-4" points="431 122.214179 249 60 249 442 401.523841 357.382573 430.99842 122.214179"></polygon>
    </defs>
    <g id="Page-1" stroke="none" stroke-width="1" fill="none" fill-rule="evenodd">
        <g id="angular">
            <rect id="f0" fill="#222222" x="0" y="0" width="500" height="500"></rect>
            <g id="f1" fill-rule="nonzero">
                <use fill="#424242" fill-rule="evenodd" xlink:href="#path-1"></use>
                <path stroke="#424242" stroke-width="1.584" d="M248.859809,37.8383121 L48.8626116,108.072928 L80.4781999,369.633223 L249.067407,462.095834 L418.534247,368.376329 L450.136826,106.828649 L248.859809,37.8383121 Z"></path>
            </g>
            <polygon id="f2" fill="#424242" fill-rule="nonzero" points="71 123.340496 98.2229697 358.508157 249 442 249 60 71.001586 123.338912"></polygon>
            <g id="f3" fill-rule="nonzero">
                <use fill="#E0E0E0" fill-rule="evenodd" xlink:href="#path-2"></use>
                <path stroke="#E0E0E0" stroke-width="1.3068" d="M248.724141,286.270339 L248.592436,286.332026 L248.869577,286.270339 L248.724141,286.270339 Z M170.75046,348.499898 L170.589584,348.902926 L171.184336,348.49187 L170.75046,348.499898 Z M126.01794,349.327652 L124.987911,349.346712 L125.596116,350.267539 L126.01794,349.327652 Z M248.710027,75.9512757 L249.465693,74.2675387 L248.237918,74.1671474 L248.710027,75.9512757 Z M298.228398,263.083956 L248.724141,286.270339 L195.590531,286.270339 L170.75046,348.499898 L126.01794,349.327652 L248.710027,75.9512757 L298.228398,263.083956 Z M294.807422,251.468071 L294.807422,252.301026 L294.13188,252.278119 L248.867997,250.742945 L211.346364,250.742945 L249.149584,160.936484 L294.807422,251.468071 Z"></path>
            </g>
            <g id="f4" fill-rule="nonzero">
                <use fill="#E0E0E0" fill-rule="evenodd" xlink:href="#path-3"></use>
                <path stroke="#E0E0E0" stroke-width="1.3068" d="M249.664517,76.9442178 L249.985843,162.079536 L292.346004,250.283737 L249.746848,250.283737 L249.655099,285.576483 L307.79983,285.631509 L335.084017,348.536904 L377.960912,349.327334 L249.664517,76.9442178 Z"></path>
            </g>
            <g id="f5" opacity="0.25" fill-rule="nonzero">
                <use fill="#BDBDBD" fill-rule="evenodd" xlink:href="#path-4"></use>
                <path stroke="#BDBDBD" stroke-width="1.584" d="M400.787996,356.885088 L400.737989,357.284079 L401.139621,356.690013 L400.787996,356.885088 Z M249.792,440.654895 L248.61578,441.30744 L249.792,442 L249.792,440.654895 Z M249.792,61.1077295 L249.792,60 L248.74382,60.7494236 L249.792,61.1077295 Z M430.132488,122.754627 L430.74382,122.963603 L431,122.214179 L431,121.422179 L430.299489,121.422179 L430.132488,122.754627 Z M430.132488,122.754627 L400.787996,356.885088 L249.792,440.654895 L249.792,61.1077295 L430.132488,122.754627 Z"></path>
            </g>
        </g>
    </g>
</svg>