<?xml version="1.0" encoding="UTF-8"?>
<svg width="775px" height="860px" viewBox="0 0 775 860" version="1.1" xmlns="http://www.w3.org/2000/svg" xmlns:xlink="http://www.w3.org/1999/xlink">
    <!-- Generator: Sketch 44.1 (41455) - http://www.bohemiancoding.com/sketch -->
    <title>medal</title>
    <desc>Created with Sketch.</desc>
    <defs></defs>
    <g id="Page-1" stroke="none" stroke-width="1" fill="none" fill-rule="evenodd">
        <g id="medal">
            <rect id="bg" fill="#222222" x="0.5" y="0.5" width="774" height="859"></rect>
            <g transform="translate(195.000000, 114.000000)">
                <rect id="Rectangle" fill="#424242" x="17.5" y="16.5069034" width="350" height="95.0374753" rx="47.5"></rect>
                <rect id="Rectangle" fill="#616161" transform="translate(128.750000, 175.319527) rotate(60.000000) translate(-128.750000, -175.319527) " x="-46.25" y="127.800789" width="350" height="95.0374753" rx="47.5"></rect>
                <path d="M190,381.650888 C144.436508,381.650888 107.5,344.699809 107.5,299.118343 C107.5,253.536878 144.436508,216.585799 190,216.585799 C235.563492,216.585799 272.5,253.536878 272.5,299.118343 C272.5,344.699809 235.563492,381.650888 190,381.650888 Z M190,355.390533 C221.066017,355.390533 246.25,330.196615 246.25,299.118343 C246.25,268.040071 221.066017,242.846154 190,242.846154 C158.933983,242.846154 133.75,268.040071 133.75,299.118343 C133.75,330.196615 158.933983,355.390533 190,355.390533 Z" id="Combined-Shape" fill="#9E9E9E"></path>
                <rect id="Rectangle" fill="#616161" transform="translate(256.250000, 175.319527) rotate(-60.000000) translate(-256.250000, -175.319527) " x="81.25" y="127.800789" width="350" height="95.0374753" rx="47.5"></rect>
                <ellipse id="Oval-2" fill="#BDBDBD" cx="189.375" cy="486.067061" rx="146.875" ry="146.932939"></ellipse>
                <polygon id="Star" fill="#616161" points="189.375 535.774162 130.963841 566.494839 142.119379 501.4274 94.8637587 455.346383 160.16942 445.853172 189.375 386.65286 218.58058 445.853172 283.886241 455.346383 236.630621 501.4274 247.786159 566.494839"></polygon>
                <path d="M25,346.637081 C44.2917328,355.466858 59.1047731,359.881746 69.439121,359.881746 C79.7734688,359.881746 96.2104285,355.466858 118.75,346.637081 C109.265281,368.764605 104.522922,384.878707 104.522922,394.979387 C104.522922,405.080067 109.265281,420.228292 118.75,440.424063 C98.65758,431.349516 83.308453,426.812242 72.7026189,426.812242 C62.0967848,426.812242 46.1959118,431.349516 25,440.424063 C33.4125454,419.043883 37.6188181,402.807396 37.6188181,391.714602 C37.6188181,380.621807 33.4125454,365.595967 25,346.637081 Z" id="Rectangle-2" fill="#FAFAFA" transform="translate(71.875000, 393.530572) rotate(45.000000) translate(-71.875000, -393.530572) "></path>
            </g>
        </g>
    </g>
</svg>