<?xml version="1.0" encoding="UTF-8"?>
<svg width="775px" height="860px" viewBox="0 0 775 860" version="1.1" xmlns="http://www.w3.org/2000/svg" xmlns:xlink="http://www.w3.org/1999/xlink">
    <!-- Generator: Sketch 44.1 (41455) - http://www.bohemiancoding.com/sketch -->
    <title>badge</title>
    <desc>Created with Sketch.</desc>
    <defs></defs>
    <g id="Page-1" stroke="none" stroke-width="1" fill="none" fill-rule="evenodd">
        <g id="badge">
            <rect id="bg" fill="#222222" x="0.5" y="0.5" width="774" height="859"></rect>
            <g transform="translate(144.000000, 129.000000)" id="Shape" fill-rule="nonzero">
                <path d="M308.5,380.525 C319.45,362.225 335.55,352.85 356.9,352.6 C378.25,352.35 389.025,341.475 389.375,320.075 C389.675,298.775 398.95,282.675 417.25,271.775 C435.6,260.825 439.575,246.1 429.125,227.45 C418.725,208.85 418.725,190.25 429.125,171.6 C439.575,153 435.625,138.3 417.25,127.35 C398.95,116.375 389.65,100.3 389.375,78.9 C389.025,57.6 378.25,46.725 356.9,46.475 C335.55,46.175 319.45,36.85 308.5,18.55 C297.55,0.2 282.825,-3.775 264.225,6.675 C245.625,17.075 226.975,17.075 208.375,6.675 C189.75,-3.75 175.025,0.2 164.075,18.55 C153.15,36.875 137.025,46.2 115.7,46.475 C94.4,46.725 83.575,57.6 83.275,78.9 C82.925,100.3 73.65,116.35 55.35,127.35 C37,138.3 32.975,152.975 43.475,171.6 C53.925,190.25 53.925,208.85 43.475,227.45 C32.975,246.1 36.975,260.85 55.35,271.775 C73.65,282.675 82.95,298.775 83.275,320.075 C83.575,341.45 94.4,352.35 115.7,352.6 C137.05,352.85 153.15,362.225 164.1,380.525 C175.05,398.875 189.775,402.85 208.375,392.35 C226.975,382.05 245.625,382.05 264.225,392.35 C282.825,402.825 297.575,398.875 308.5,380.525 Z M236.35,316.35 C171.8,316.35 119.5,264.05 119.5,199.5 C119.5,135 171.8,82.7 236.35,82.7 C300.85,82.7 353.15,135 353.15,199.5 C353.15,264.05 300.85,316.35 236.35,316.35 Z" fill="#757575"></path>
                <path d="M113.825,369.725 C91.375,369.725 88.375,359.275 88.375,359.275 L0.7,531.6 L71,523.7 L109.875,582.2 C109.875,582.2 190.875,413.2 190.875,414.325 C148.9,413.275 165.6,370.85 113.825,369.725 Z" fill="#424242"></path>
                <path d="M383.075,366.025 C319.025,372.725 332.05,388.625 317.4,400.975 C300.55,418.95 279.5,415.425 279.5,415.425 L378.375,585.55 L402.7,522.55 L471.85,531.575 L383.075,366.025 Z" fill="#424242"></path>
                <polygon fill="#9E9E9E" points="260.75 173.725 236.3 124.225 211.825 173.725 157.1 181.725 196.65 220.3 187.325 274.85 236.3 249.125 285.275 274.85 275.95 220.3 315.5 181.725"></polygon>
            </g>
        </g>
    </g>
</svg>