<?xml version="1.0" encoding="UTF-8"?>
<svg width="775px" height="860px" viewBox="0 0 775 860" version="1.1" xmlns="http://www.w3.org/2000/svg" xmlns:xlink="http://www.w3.org/1999/xlink">
    <!-- Generator: Sketch 44.1 (41455) - http://www.bohemiancoding.com/sketch -->
    <title>best</title>
    <desc>Created with Sketch.</desc>
    <defs></defs>
    <g id="Page-1" stroke="none" stroke-width="1" fill="none" fill-rule="evenodd">
        <g id="best">
            <rect id="bg" fill="#222222" x="0.5" y="0.5" width="774" height="859"></rect>
            <g id="award" transform="translate(213.000000, 113.000000)">
                <rect id="Rectangle-path" fill="#9E9E9E" x="159.774" y="366.158" width="29.444" height="73.678"></rect>
                <rect id="Rectangle-path" fill="#616161" x="159.774" y="401.46" width="29.444" height="39.838"></rect>
                <path d="M174.496,540.316 C215.088,540.316 248.204,510.23 248.204,473.344 C248.204,436.454 215.086,406.366 174.496,406.366 C133.896,406.366 100.788,436.454 100.788,473.344 C100.788,510.23 133.896,540.316 174.496,540.316" id="Shape" fill="#757575"></path>
                <rect id="Rectangle-path" fill="#424242" x="0.494" y="497.702" width="348" height="134.34"></rect>
                <rect id="Rectangle-path" fill="#616161" x="65.346" y="522.572" width="218.292" height="84.588"></rect>
                <rect id="Rectangle-path" fill="#757575" x="85.738" y="473.344" width="177.508" height="24.358"></rect>
                <rect id="Rectangle-path" fill="#616161" x="100.786" y="466.422" width="147.418" height="6.922"></rect>
                <path d="M233.632,460.222 C223.824,438.24 209.618,424.724 192.318,418.228 C203.11,425.436 208.866,443.344 210.942,460.222 L233.632,460.222 Z" id="Shape" fill="#9E9E9E"></path>
                <rect id="Rectangle-path" fill="#BDBDBD" x="176.138" y="370.704" width="9.656" height="28.538"></rect>
                <path d="M174.49,383.304 C159.758,357.408 58.074,359.486 16.266,284.65 C-15.496,227.788 57.358,97.676 5.048,56.974 L60.302,0 L174.49,0 L288.686,0 L343.94,56.976 C291.63,97.678 364.484,227.79 332.72,284.652 C290.908,359.486 189.226,357.408 174.49,383.304" id="Shape" fill="#616161"></path>
                <path d="M174.49,356.938 C180.268,353.574 186.548,350.976 192.544,348.718 C207.034,343.258 221.974,338.926 236.526,333.522 C268.318,321.714 298.132,305.576 315.308,274.84 C327.366,253.246 317.396,204.754 313.266,181.358 C306.79,144.692 295.45,92.094 316.792,57.72 L280.26,20.058 L68.722,20.058 L32.216,57.706 C53.416,91.742 42.236,144.488 35.726,181.358 C31.594,204.752 21.622,253.246 33.684,274.84 C50.854,305.576 80.676,321.714 112.462,333.522 C127.016,338.926 141.95,343.258 156.442,348.718 C162.442,350.974 168.73,353.574 174.49,356.938" id="Shape" fill="#757575"></path>
                <polygon id="Shape" fill="#9E9E9E" points="174.49 53.458 201.424 136.894 289.104 136.728 218.074 188.126 245.326 271.458 174.49 219.78 103.662 271.458 130.916 188.126 59.89 136.728 147.562 136.894"></polygon>
                <polygon id="Shape" fill="#E0E0E0" points="174.49 87.05 193.748 146.7 256.434 146.578 205.648 183.33 225.132 242.91 174.49 205.968 123.856 242.91 143.336 183.33 92.556 146.578 155.24 146.7"></polygon>
            </g>
        </g>
    </g>
</svg>