<?xml version="1.0" encoding="UTF-8"?>
<svg viewBox="0 0 775 860" version="1.1" xmlns="http://www.w3.org/2000/svg" xmlns:xlink="http://www.w3.org/1999/xlink">
    <title>Award</title>
    <desc>Designed By: Atul Meshram</desc>
    <g id="Page-1" stroke="none" stroke-width="1" fill="none" fill-rule="evenodd">
        <g id="award-bg">
            <rect id="bg" fill="#333333" x="0.5" y="0.5" width="774" height="859"></rect>
            <g id="cup" transform="translate(238.000000, 217.000000)">
                <path d="M240.909091,413.37234 L59.0909091,413.37234 L59.0909091,331.606383 C59.0909091,326.609574 63.1818182,322.521277 68.1818182,322.521277 L231.818182,322.521277 C236.818182,322.521277 240.909091,326.609574 240.909091,331.606383 L240.909091,413.37234 Z" id="Shape" fill="#616161" fill-rule="nonzero"></path>
                <polygon id="Shape" fill="#424242" fill-rule="nonzero" points="254.545455 427 45.4545455 427 50 413.37234 250 413.37234"></polygon>
                <path d="M186.363636,395.202128 L113.636364,395.202128 C103.636364,395.202128 95.4545455,387.025532 95.4545455,377.031915 L95.4545455,363.404255 C95.4545455,353.410638 103.636364,345.234043 113.636364,345.234043 L186.363636,345.234043 C196.363636,345.234043 204.545455,353.410638 204.545455,363.404255 L204.545455,377.031915 C204.545455,387.025532 196.363636,395.202128 186.363636,395.202128 Z" id="Shape" fill="#9E9E9E" fill-rule="nonzero"></path>
                <rect id="Rectangle-path" fill="#757575" fill-rule="nonzero" x="126.363636" y="224.856383" width="47.7272727" height="74.9521277"></rect>
                <rect id="Rectangle-path" fill="#9E9E9E" fill-rule="nonzero" opacity="0.503781703" x="160" y="224.856383" width="13.6363636" height="74.9521277"></rect>
                <path d="M190.909091,295.265957 L109.090909,295.265957 C94.0909091,295.265957 81.8181818,307.530851 81.8181818,322.521277 L81.8181818,322.521277 L218.181818,322.521277 L218.181818,322.521277 C218.181818,307.530851 205.909091,295.265957 190.909091,295.265957 Z" id="Shape" fill="#616161" fill-rule="nonzero"></path>
                <path d="M190.909091,295.265957 L168.181818,295.265957 C183.181818,295.265957 195.454545,307.530851 195.454545,322.521277 L218.181818,322.521277 C218.181818,307.530851 205.909091,295.265957 190.909091,295.265957 Z" id="Shape" fill="#757575" fill-rule="nonzero"></path>
                <path d="M173.181818,263.468085 L126.818182,263.468085 C114.545455,263.468085 104.545455,253.474468 104.545455,241.209574 L104.545455,236.212766 L195.454545,236.212766 L195.454545,241.209574 C195.454545,253.474468 185.454545,263.468085 173.181818,263.468085 Z" id="Shape" fill="#616161" fill-rule="nonzero"></path>
                <path d="M177.272727,236.212766 L177.272727,241.209574 C177.272727,253.474468 171.818182,263.468085 159.545455,263.468085 L173.181818,263.468085 C185.454545,263.468085 195.454545,253.474468 195.454545,241.209574 L195.454545,236.212766 L177.272727,236.212766 Z" id="Shape" fill="#757575" fill-rule="nonzero"></path>
                <path d="M227.272727,322.521277 L72.7272727,322.521277 L72.7272727,322.521277 C72.7272727,317.524468 76.8181818,313.43617 81.8181818,313.43617 L218.181818,313.43617 C223.181818,313.43617 227.272727,317.524468 227.272727,322.521277 L227.272727,322.521277 Z" id="Shape" fill="#424242" fill-rule="nonzero"></path>
                <path d="M218.181818,313.43617 L195.454545,313.43617 C200.454545,313.43617 204.545455,317.524468 204.545455,322.521277 L227.272727,322.521277 C227.272727,317.524468 223.181818,313.43617 218.181818,313.43617 Z" id="Shape" fill="#757575" fill-rule="nonzero"></path>
                <path d="M204.545455,227.12766 L95.4545455,227.12766 L95.4545455,240.755319 C95.4545455,245.752128 99.5454545,249.840426 104.545455,249.840426 L195.454545,249.840426 C200.454545,249.840426 204.545455,245.752128 204.545455,240.755319 L204.545455,227.12766 Z" id="Shape" fill="#F9A74E" fill-rule="nonzero"></path>
                <path d="M204.545455,227.12766 L95.4545455,227.12766 L95.4545455,240.755319 C95.4545455,245.752128 99.5454545,249.840426 104.545455,249.840426 L195.454545,249.840426 C200.454545,249.840426 204.545455,245.752128 204.545455,240.755319 L204.545455,227.12766 Z" id="Shape" fill="#424242" fill-rule="nonzero"></path>
                <path d="M181.818182,227.12766 L172.727273,240.755319 C177.272727,240.755319 177.727273,249.840426 172.727273,249.840426 L195.454545,249.840426 C200.454545,249.840426 204.545455,245.752128 204.545455,240.755319 L204.545455,227.12766 L181.818182,227.12766 Z" id="Shape" fill="#616161" fill-rule="nonzero" opacity="0.2"></path>
                <path d="M213.636364,81.7659574 L300,81.7659574 L300,86.3085106 C300,134.005319 261.363636,172.617021 213.636364,172.617021 L213.636364,172.617021" id="Shape" stroke="#424242" stroke-width="18.1818182" stroke-linecap="round" stroke-linejoin="round"></path>
                <path d="M86.3636364,81.7659574 L0,81.7659574 L0,86.3085106 C0,134.005319 38.6363636,172.617021 86.3636364,172.617021 L86.3636364,172.617021" id="Shape" stroke="#616161" stroke-width="18.1818182" stroke-linecap="round" stroke-linejoin="round"></path>
                <path d="M188.636364,240.755319 L111.363636,240.755319 C82.2727273,240.755319 59.0909091,217.588298 59.0909091,188.515957 L59.0909091,45.4255319 L240.909091,45.4255319 L240.909091,188.515957 C240.909091,217.588298 217.727273,240.755319 188.636364,240.755319 Z" id="Shape" fill="#9E9E9E" fill-rule="nonzero"></path>
                <path d="M86.3636364,59.0531915 C86.3636364,59.0531915 86.3636364,136.276596 86.3636364,149.904255" id="Shape" stroke="#FFFFFF" stroke-width="9.09090909" opacity="0.3" stroke-linecap="round" stroke-linejoin="round"></path>
                <path d="M218.181818,45.4255319 L218.181818,188.515957 C218.181818,217.588298 195,240.755319 165.909091,240.755319 L188.636364,240.755319 C217.727273,240.755319 240.909091,217.588298 240.909091,188.515957 L240.909091,45.4255319 L218.181818,45.4255319 Z" id="Shape" fill="#888888" fill-rule="nonzero"></path>
                <polygon id="Shape" fill="#757575" fill-rule="nonzero" points="254.545455 45.4255319 45.4545455 45.4255319 59.0909091 59.0531915 240.909091 59.0531915"></polygon>
                <polygon id="Shape" fill="#616161" fill-rule="nonzero" points="227.272727 45.4255319 218.181818 59.0531915 240.909091 59.0531915 254.545455 45.4255319"></polygon>
                <path d="M259.090909,27.2553191 L40.9090909,27.2553191 C35.9090909,27.2553191 31.8181818,31.343617 31.8181818,36.3404255 L31.8181818,36.3404255 C31.8181818,41.337234 35.9090909,45.4255319 40.9090909,45.4255319 L259.090909,45.4255319 C264.090909,45.4255319 268.181818,41.337234 268.181818,36.3404255 L268.181818,36.3404255 C268.181818,31.343617 264.090909,27.2553191 259.090909,27.2553191 Z" id="Shape" fill="#9E9E9E" fill-rule="nonzero"></path>
                <path d="M259.090909,27.2553191 L231.818182,27.2553191 C236.818182,27.2553191 240.909091,31.343617 240.909091,36.3404255 C240.909091,41.337234 236.818182,45.4255319 231.818182,45.4255319 L259.090909,45.4255319 C264.090909,45.4255319 268.181818,41.337234 268.181818,36.3404255 C268.181818,31.343617 264.090909,27.2553191 259.090909,27.2553191 Z" id="Shape" fill="#757575" fill-rule="nonzero"></path>
                <path d="M86.3636364,169.891489 L86.3636364,180.339362" id="Shape" stroke="#FFFFFF" stroke-width="9.09090909" opacity="0.3" stroke-linecap="round" stroke-linejoin="round"></path>
                <path d="M81.3636364,10.9021277 L84.0909091,4.08829787 C85,2.2712766 87.7272727,2.2712766 88.1818182,4.08829787 L90.9090909,10.9021277 C93.1818182,16.3531915 97.2727273,20.4414894 102.727273,22.712766 L109.545455,25.4382979 C111.363636,26.3468085 111.363636,29.0723404 109.545455,29.5265957 L102.727273,32.2521277 C97.2727273,34.5234043 93.1818182,38.6117021 90.9090909,44.062766 L88.1818182,50.8765957 C87.2727273,52.693617 84.5454545,52.693617 84.0909091,50.8765957 L81.3636364,44.062766 C79.0909091,38.6117021 75,34.5234043 69.5454545,32.2521277 L62.7272727,29.5265957 C60.9090909,28.6180851 60.9090909,25.8925532 62.7272727,25.4382979 L69.5454545,22.712766 C75,20.4414894 79.5454545,15.8989362 81.3636364,10.9021277 Z" id="Shape" fill="#FAFAFA" fill-rule="nonzero"></path>
                <path d="M152.366329,100.493858 L160.416079,104.330564 C161.5393,104.831004 163.036928,103.996937 162.849725,102.829244 L161.164893,94.655393 L167.717016,88.9837411 C168.653033,88.1496747 168.091423,86.6483551 166.780998,86.4815418 L157.79523,85.3138488 L153.676753,77.9740641 C153.115143,76.9731843 151.430312,76.9731843 150.868701,77.9740641 L146.750224,85.3138488 L137.764456,86.4815418 C136.454032,86.6483551 135.892421,88.1496747 136.828439,88.9837411 L143.380561,94.655393 L141.882933,102.662431 C141.69573,103.830124 143.006154,104.66419 144.316579,104.16375 L152.366329,100.493858 Z" id="Shape" fill="#FF5252" fill-rule="nonzero"></path>
                <path d="M152.366329,200.430028 L160.416079,204.266734 C161.5393,204.767174 163.036928,203.933107 162.849725,202.765414 L161.164893,194.591563 L167.717016,188.919911 C168.653033,188.085845 168.091423,186.584525 166.780998,186.417712 L157.79523,185.250019 L153.676753,177.910234 C153.115143,176.909355 151.430312,176.909355 150.868701,177.910234 L146.750224,185.250019 L137.764456,186.417712 C136.454032,186.584525 135.892421,188.085845 136.828439,188.919911 L143.380561,194.591563 L141.882933,202.598601 C141.69573,203.766294 143.006154,204.600361 144.316579,204.099921 L152.366329,200.430028 Z" id="Shape" fill="#1DE9B6" fill-rule="nonzero"></path>
                <path d="M152.446559,160.104737 L167.396095,167.778149 C169.482077,168.779028 172.263386,167.110896 171.915723,164.77551 L168.78675,148.427807 L180.954977,137.084504 C182.693295,135.416371 181.650305,132.413731 179.216659,132.080105 L162.528805,129.744719 L154.880205,115.065149 C153.837214,113.06339 150.708241,113.06339 149.66525,115.065149 L142.01665,129.744719 L125.328795,132.080105 C122.89515,132.413731 121.852159,135.416371 123.590477,137.084504 L135.758705,148.427807 L132.977395,164.441883 C132.629732,166.777269 135.063377,168.445402 137.497023,167.444522 L152.446559,160.104737 Z" id="Shape" fill="#40C4FF" fill-rule="nonzero"></path>
            </g>
        </g>
    </g>
</svg>