<?xml version="1.0" encoding="UTF-8"?>
<svg width="775px" height="860px" viewBox="0 0 775 860" version="1.1" xmlns="http://www.w3.org/2000/svg" xmlns:xlink="http://www.w3.org/1999/xlink">
    <!-- Generator: Sketch 44.1 (41455) - http://www.bohemiancoding.com/sketch -->
    <title>Cup</title>
    <desc>Created with Sketch.</desc>
    <defs></defs>
    <g id="Page-1" stroke="none" stroke-width="1" fill="none" fill-rule="evenodd">
        <g id="Cup">
            <rect id="bg" fill="#222222" x="0.5" y="0.5" width="774" height="859"></rect>
            <g id="cup" transform="translate(95.000000, 148.000000)">
                <g id="trophy-icon" fill-rule="nonzero">
                    <g id="Group_41" transform="translate(0.000000, 58.464000)" fill="#616161">
                        <path d="M97.128,261.648 L104.392,281.776 L189.744,263.144 C189.744,263.144 185.456,228.48 175.768,229.784 C166.08,231.088 97.128,261.648 97.128,261.648 Z" id="Path_195"></path>
                        <path d="M16.808,35.592 C14.024,26.464 8.424,13.416 8.424,13.416 L122.472,2.84217094e-14 L116.872,32.984 L16.808,35.592 Z" id="Path_196"></path>
                        <path d="M130.856,271.52 C127.128,272.448 104.392,281.584 104.392,281.584 C104.392,281.584 0.592,128.584 8.392,13.232 L41.936,12.112 C45.504,153.368 130.856,271.52 130.856,271.52 Z" id="Path_197"></path>
                    </g>
                    <polygon id="Path_198" fill="#616161" points="349.824 375.656 344.048 379.384 344.048 285.256 256.496 285.256 256.496 379.368 250.72 375.64 234.096 527.888 366.408 527.888"></polygon>
                    <path d="M494.992,3.672 L105.696,3.672 C93.768,326.072 280.896,394.872 299.504,400.8 L299.504,401.36 C299.969827,401.115329 300.526173,401.115329 300.992,401.36 L300.992,400.8 C319.632,394.648 506.696,325.88 494.992,3.672 Z" id="Path_201" fill="#616161"></path>
                    <polygon id="Path_202" fill="#616161" points="365.48 526.96 235.216 526.96 187.696 563.672 412.816 563.672"></polygon>
                    <path d="M274.352,526.96 L201.488,526.96 C200.816861,527.318734 200.191076,527.756514 199.624,528.264 L186.576,563.672 L271.744,563.672 C274.761197,551.682567 275.644005,539.255556 274.352,526.96 L274.352,526.96 Z" id="Path_203" fill="#616161"></path>
                    <g id="Group_42" transform="translate(299.512000, 1.672000)" fill="#424242">
                        <path d="M195.488,2 L54.784,2 L136.984,86.976 C136.984,86.976 95.616,289.92 93.192,295.136 C90.768,300.352 0.184,399.496 0.184,399.496 L8.76,525.472 L67.088,525.472 L50.504,374 C111.064,332.968 203.872,232.152 195.488,2 Z" id="Path_205"></path>
                        <path d="M138.357143,86.641691 L55.2413246,1.78950722 L0.197139693,400.09531 C0.197139693,400.09531 91.0775456,302.572915 93.6695456,297.356915 C96.0935456,292.140915 139.986824,86.641691 138.357143,86.641691 Z" id="Path_206"></path>
                    </g>
                    <g id="Group_43" transform="translate(190.288000, 74.456000)" fill="#FAFAFA">
                        <path d="M217.488,38.792 C217.517008,38.2000785 217.234942,37.6359462 216.744,37.304 C216.646178,37.1976825 216.511974,37.1320083 216.368,37.12 C190.110775,21.4100683 160.71595,11.675525 130.272,8.608 L129.896,8.608 C129.400375,8.59509399 128.92392,8.79970669 128.592,9.168 L128.408,9.352 C119.984711,20.0034951 112.679588,31.4933143 106.608,43.64 L106.608,43.64 L106.608,43.824 C106.586413,43.9781352 106.638427,44.1334651 106.748481,44.2435189 C106.858535,44.3535727 107.013865,44.4055868 107.168,44.384 L112.384,44.384 C135.199407,44.8202955 157.69589,49.8255591 178.544,59.104 C171.654438,104.64376 146.893104,145.557545 109.744,172.784 C102.607796,167.047617 95.9387986,160.753132 89.8,153.96 L89.8,153.96 C89.616,153.776 89.616,153.776 89.424,153.776 C89.2698648,153.754413 89.1145349,153.806427 89.0044811,153.916481 C88.8944273,154.026535 88.8424132,154.181865 88.864,154.336 L88.864,154.336 L88.864,154.52 C91.7759625,175.997233 98.3970767,196.80529 108.432,216.016 C108.432,216.11762 108.51438,216.2 108.616,216.2 C108.793088,216.548495 109.153135,216.765765 109.544,216.76 L109.92,216.76 C110.104,216.76 110.104,216.576 110.296,216.576 C174.86794,180.359361 215.584437,112.803537 217.448,38.792 L217.488,38.792 Z" id="Path_207"></path>
                        <path d="M88.128,201.288 C80.1377778,180.290764 75.6069221,158.136312 74.712,135.688 L74.712,135.688 L74.712,135.312 C74.712,135.128 74.528,134.936 74.528,134.752 C74.528,134.65038 74.4456204,134.568 74.344,134.568 C70.432,128.608 66.704,122.456 63.352,116.12 C66.704,114.632 70.248,113.328 73.752,112.024 C73.936,112.024 74.128,111.84 74.312,111.84 C74.8637907,111.642432 75.2341139,111.122064 75.24,110.536 L75.24,110.16 L75.24,110.16 C76.3860011,97.4897246 78.6943814,84.9516307 82.136,72.704 L82.136,72.52 L82.136,72.52 C82.1575868,72.3658648 82.1055727,72.2105349 81.9955189,72.1004811 C81.8854651,71.9904273 81.7301352,71.9384132 81.576,71.96 L81.392,71.96 C70.6986575,73.9655252 60.2612798,77.1530842 50.272,81.464 C48.208418,73.3109566 46.7141489,65.0243121 45.8,56.664 C60.2655458,50.9768747 75.4359699,47.2791343 90.896,45.672 L91.456,45.672 C91.8696305,45.4907838 92.2486066,45.2390354 92.576,44.928 C92.7182416,44.7783912 92.785787,44.5728181 92.76,44.368 C98.4810756,31.916976 105.410285,20.0574703 113.448,8.96 L113.632,8.776 L113.632,8.592 C113.653587,8.43786477 113.601573,8.28253486 113.491519,8.1724811 C113.381465,8.06242734 113.226135,8.01041319 113.072,8.032 L113.072,8.032 C76.7455378,7.30220441 40.8545315,16.03923 8.928,33.384 L8.744,33.384 C8.22089337,33.6867231 7.92831454,34.2718808 8,34.872 L8,34.872 C6.88181424,100.001111 36.1603957,161.935661 87.2,202.408 C87.3016204,202.408 87.384,202.49038 87.384,202.592 L87.76,202.592 C87.9141352,202.613587 88.0694651,202.561573 88.1795189,202.451519 C88.2895727,202.341465 88.3415868,202.186135 88.32,202.032 C88.1730817,201.813355 88.1079315,201.549921 88.136,201.288 L88.128,201.288 Z" id="Path_208"></path>
                    </g>
                    <path d="M402.008,528.824 C402.008,528.824 400.888,528.08 399.024,526.96 L308.272,526.96 L307.712,563.672 L415.056,563.672 L402.008,528.824 Z" id="Path_209" fill="#424242"></path>
                    <g id="Group_44" transform="translate(400.328000, 58.464000)" fill="#424242">
                        <path d="M92.616,261.648 L85.344,281.776 L0,263.136 C0,263.136 4.288,228.472 13.976,229.776 C23.664,231.08 92.616,261.648 92.616,261.648 Z" id="Path_210"></path>
                        <path d="M172.936,35.592 C175.728,26.464 181.32,13.416 181.32,13.416 L67.272,0 L72.872,32.984 L172.936,35.592 Z" id="Path_211"></path>
                        <path d="M59.072,271.52 C62.8,272.448 85.536,281.584 85.536,281.584 C85.536,281.584 189.336,128.584 181.536,13.232 L147.992,12.112 C144.424,153.368 59.072,271.52 59.072,271.52 Z" id="Path_212"></path>
                    </g>
                </g>
                <path d="M297.76,139.36 L306.48,139.36 L330.88,196 L319.36,196 L314.08,183.04 L289.52,183.04 L284.4,196 L273.12,196 L297.76,139.36 Z M310.56,174.4 L301.84,151.36 L292.96,174.4 L310.56,174.4 Z" id="A" fill="#FAFAFA"></path>
            </g>
        </g>
    </g>
</svg>