<?xml version="1.0" encoding="UTF-8"?>
<svg viewBox="0 0 500 500" version="1.1" xmlns="http://www.w3.org/2000/svg" xmlns:xlink="http://www.w3.org/1999/xlink">
    <!-- Generator: Sketch 44.1 (41455) - http://www.bohemiancoding.com/sketch -->
    <title>C-Lang</title>
    <desc>Designed By: Atul Meshram</desc>
    <defs></defs>
    <g id="Page-1" stroke="none" stroke-width="1" fill="none" fill-rule="evenodd">
        <g id="c-lang">
            <rect id="f0" fill="#222222" fill-rule="nonzero" x="0" y="0" width="500" height="500"></rect>
            <path d="M247.516583,24.1028669 C238.35994,24.5937699 236.820898,25.2997351 215.375298,37.6171926 C206.182189,42.8979062 197.12419,48.0121804 195.286878,49.0313885 C193.449565,50.0505966 189.081623,52.5565396 185.608026,54.6015012 C182.13443,56.6445927 178.181169,59.0009271 176.750589,59.8064755 C174.384991,61.1389265 161.877239,68.2738509 119.133771,92.8620132 C110.962171,97.5629938 103.283793,102.027406 102.058918,102.724021 C100.834043,103.420635 93.3164881,107.70692 85.3491895,112.312057 C77.3818908,116.917195 69.5987909,121.395633 67.9999081,122.265233 C63.2645033,124.836629 56.237834,132.285264 53.5730292,137.605717 C48.6548282,147.38731 49.0054604,141.210348 49.0054604,248.369329 C49.0054604,342.81065 49.0484713,348.738888 51.1045785,354.11077 C54.5922002,363.222397 59.0134385,369.036091 66.0798461,373.834784 C68.45947,375.447751 70.5492379,376.845656 70.7362418,376.845656 C70.9232456,376.845656 74.7521493,378.940176 79.3192506,381.593857 C83.8914945,384.249408 87.7620065,386.433693 87.9022594,386.433693 C88.0425123,386.433693 90.3286342,387.784845 92.9242476,389.355735 C95.5189259,390.926624 99.1224899,393.067896 100.959803,394.103935 C105.19544,396.497672 118.472712,404.066928 121.413348,405.792102 C122.638223,406.512093 127.006165,409.013361 131.092199,411.362215 C135.178233,413.709198 139.455011,416.212336 140.679886,416.932327 C143.311965,418.47984 161.534087,428.917373 166.338216,431.633703 C168.175528,432.671612 171.778625,434.812884 174.373303,436.382371 C176.967981,437.953261 179.255038,439.210908 179.395291,439.210908 C179.535544,439.210908 182.401378,440.875303 185.787083,442.862291 C189.171852,444.849279 193.446292,447.313145 195.283605,448.341236 C197.120918,449.369795 205.856802,454.294253 214.641308,459.389826 C233.769931,470.483766 235.378164,471.270614 242.856447,472.995787 C248.129488,474.220707 249.837768,474.300186 255.183273,473.369808 C259.353459,472.635791 266.896726,470.106472 268.514309,468.895578 C269.29505,468.31117 276.09638,464.346544 282.850024,460.585759 C285.051994,459.360839 293.785073,454.349889 302.208194,449.445534 C310.631315,444.541647 318.997866,439.703681 320.835179,438.670447 C323.785165,437.010727 350.286882,421.807228 356.17236,418.398958 C360.365921,415.96782 373.229448,408.580898 376.534741,406.710792 C378.353353,405.682233 381.499225,403.826152 383.565618,402.601232 C387.974233,399.983083 391.296824,398.122327 395.892443,395.570099 C397.729756,394.550891 402.098166,392.049623 405.571295,389.999986 C409.044891,387.956895 413.732142,385.202695 415.980864,383.9731 C418.229585,382.743505 421.769567,380.681712 423.924787,379.316534 C426.075331,377.951357 428.029521,376.852669 428.216525,376.852669 C429.591003,376.852669 437.198319,371.000638 440.452186,367.447435 C445.14084,362.326148 448.108123,356.210432 449.674281,348.728135 C451.380691,340.589431 451.469517,156.792077 449.767783,148.568283 C448.327853,141.603538 445.057156,135.02871 440.728017,130.214121 C436.099672,125.064782 433.658337,123.439192 412.969634,111.768791 C411.132321,110.730882 405.637214,107.589103 400.733973,104.737658 C393.273455,100.39901 356.882507,79.4108035 349.417314,75.1516356 C348.192439,74.4550209 343.180268,71.6124588 338.277495,68.7596111 C333.374722,65.9076985 327.879146,62.6611933 326.041834,61.6373099 C324.204521,60.6134265 314.664052,55.2247142 304.858038,49.584005 C295.052024,43.9437634 281.93838,36.4362202 275.729853,32.8736671 C261.832195,24.8971947 257.7125,23.5605359 247.515181,24.1075421 L247.516583,24.1028669 Z" id="f1" stroke-opacity="0.39215686" stroke="#757575" stroke-width="37.3678138" stroke-linecap="round" stroke-linejoin="round"></path>
            <path d="M247.516583,25.1028669 C238.35994,25.5937699 236.820898,26.2997351 215.375298,38.6171926 C206.182189,43.8979062 197.12419,49.0121804 195.286878,50.0313885 C193.449565,51.0505966 189.081623,53.5565396 185.608026,55.6015012 C182.13443,57.6445927 178.181169,60.0009271 176.750589,60.8064755 C174.384991,62.1389265 161.877239,69.2738509 119.133771,93.8620132 C110.962171,98.5629938 103.283793,103.027406 102.058918,103.724021 C100.834043,104.420635 93.3164881,108.70692 85.3491895,113.312057 C77.3818908,117.917195 69.5987909,122.395633 67.9999081,123.265233 C63.2645033,125.836629 56.237834,133.285264 53.5730292,138.605717 C48.6548282,148.38731 49.0054604,142.210348 49.0054604,249.369329 C49.0054604,343.81065 49.0484713,349.738888 51.1045785,355.11077 C54.5922002,364.222397 59.0134385,370.036091 66.0798461,374.834784 C68.45947,376.447751 70.5492379,377.845656 70.7362418,377.845656 C70.9232456,377.845656 74.7521493,379.940176 79.3192506,382.593857 C83.8914945,385.249408 87.7620065,387.433693 87.9022594,387.433693 C88.0425123,387.433693 90.3286342,388.784845 92.9242476,390.355735 C95.5189259,391.926624 99.1224899,394.067896 100.959803,395.103935 C105.19544,397.497672 118.472712,405.066928 121.413348,406.792102 C122.638223,407.512093 127.006165,410.013361 131.092199,412.362215 C135.178233,414.709198 139.455011,417.212336 140.679886,417.932327 C143.311965,419.47984 161.534087,429.917373 166.338216,432.633703 C168.175528,433.671612 171.778625,435.812884 174.373303,437.382371 C176.967981,438.953261 179.255038,440.210908 179.395291,440.210908 C179.535544,440.210908 182.401378,441.875303 185.787083,443.862291 C189.171852,445.849279 193.446292,448.313145 195.283605,449.341236 C197.120918,450.369795 205.856802,455.294253 214.641308,460.389826 C233.769931,471.483766 235.378164,472.270614 242.856447,473.995787 C248.129488,475.220707 249.837768,475.300186 255.183273,474.369808 C259.353459,473.635791 266.896726,471.106472 268.514309,469.895578 C269.29505,469.31117 276.09638,465.346544 282.850024,461.585759 C285.051994,460.360839 293.785073,455.349889 302.208194,450.445534 C310.631315,445.541647 318.997866,440.703681 320.835179,439.670447 C323.785165,438.010727 350.286882,422.807228 356.17236,419.398958 C360.365921,416.96782 373.229448,409.580898 376.534741,407.710792 C378.353353,406.682233 381.499225,404.826152 383.565618,403.601232 C387.974233,400.983083 391.296824,399.122327 395.892443,396.570099 C397.729756,395.550891 402.098166,393.049623 405.571295,390.999986 C409.044891,388.956895 413.732142,386.202695 415.980864,384.9731 C418.229585,383.743505 421.769567,381.681712 423.924787,380.316534 C426.075331,378.951357 428.029521,377.852669 428.216525,377.852669 C429.591003,377.852669 437.198319,372.000638 440.452186,368.447435 C445.14084,363.326148 448.108123,357.210432 449.674281,349.728135 C451.380691,341.589431 451.469517,157.792077 449.767783,149.568283 C448.327853,142.603538 445.057156,136.02871 440.728017,131.214121 C436.099672,126.064782 433.658337,124.439192 412.969634,112.768791 C411.132321,111.730882 405.637214,108.589103 400.733973,105.737658 C393.273455,101.39901 356.882507,80.4108035 349.417314,76.1516356 C348.192439,75.4550209 343.180268,72.6124588 338.277495,69.7596111 C333.374722,66.9076985 327.879146,63.6611933 326.041834,62.6373099 C324.204521,61.6134265 314.664052,56.2247142 304.858038,50.584005 C295.052024,44.9437634 281.93838,37.4362202 275.729853,33.8736671 C261.832195,25.8971947 257.7125,24.5605359 247.515181,25.1075421 L247.516583,25.1028669 Z" id="f2" stroke="#BDBDBD" stroke-width="23.3548833" stroke-linecap="round" stroke-linejoin="round"></path>
            <path d="M247.516583,24.1028669 C238.35994,24.5937699 236.820898,25.2997351 215.375298,37.6171926 C206.182189,42.8979062 197.12419,48.0121804 195.286878,49.0313885 C193.449565,50.0505966 189.081623,52.5565396 185.608026,54.6015012 C182.13443,56.6445927 178.181169,59.0009271 176.750589,59.8064755 C174.384991,61.1389265 161.877239,68.2738509 119.133771,92.8620132 C110.962171,97.5629938 103.283793,102.027406 102.058918,102.724021 C100.834043,103.420635 93.3164881,107.70692 85.3491895,112.312057 C77.3818908,116.917195 69.5987909,121.395633 67.9999081,122.265233 C63.2645033,124.836629 56.237834,132.285264 53.5730292,137.605717 C48.6548282,147.38731 49.0054604,141.210348 49.0054604,248.369329 C49.0054604,342.81065 49.0484713,348.738888 51.1045785,354.11077 C54.5922002,363.222397 59.0134385,369.036091 66.0798461,373.834784 C68.45947,375.447751 70.5492379,376.845656 70.7362418,376.845656 C70.9232456,376.845656 74.7521493,378.940176 79.3192506,381.593857 C83.8914945,384.249408 87.7620065,386.433693 87.9022594,386.433693 C88.0425123,386.433693 90.3286342,387.784845 92.9242476,389.355735 C95.5189259,390.926624 99.1224899,393.067896 100.959803,394.103935 C105.19544,396.497672 118.472712,404.066928 121.413348,405.792102 C122.638223,406.512093 127.006165,409.013361 131.092199,411.362215 C135.178233,413.709198 139.455011,416.212336 140.679886,416.932327 C143.311965,418.47984 161.534087,428.917373 166.338216,431.633703 C168.175528,432.671612 171.778625,434.812884 174.373303,436.382371 C176.967981,437.953261 179.255038,439.210908 179.395291,439.210908 C179.535544,439.210908 182.401378,440.875303 185.787083,442.862291 C189.171852,444.849279 193.446292,447.313145 195.283605,448.341236 C197.120918,449.369795 205.856802,454.294253 214.641308,459.389826 C233.769931,470.483766 235.378164,471.270614 242.856447,472.995787 C248.129488,474.220707 249.837768,474.300186 255.183273,473.369808 C259.353459,472.635791 266.896726,470.106472 268.514309,468.895578 C269.29505,468.31117 276.09638,464.346544 282.850024,460.585759 C285.051994,459.360839 293.785073,454.349889 302.208194,449.445534 C310.631315,444.541647 318.997866,439.703681 320.835179,438.670447 C323.785165,437.010727 350.286882,421.807228 356.17236,418.398958 C360.365921,415.96782 373.229448,408.580898 376.534741,406.710792 C378.353353,405.682233 381.499225,403.826152 383.565618,402.601232 C387.974233,399.983083 391.296824,398.122327 395.892443,395.570099 C397.729756,394.550891 402.098166,392.049623 405.571295,389.999986 C409.044891,387.956895 413.732142,385.202695 415.980864,383.9731 C418.229585,382.743505 421.769567,380.681712 423.924787,379.316534 C426.075331,377.951357 428.029521,376.852669 428.216525,376.852669 C429.591003,376.852669 437.198319,371.000638 440.452186,367.447435 C445.14084,362.326148 448.108123,356.210432 449.674281,348.728135 C451.380691,340.589431 451.469517,156.792077 449.767783,148.568283 C448.327853,141.603538 445.057156,135.02871 440.728017,130.214121 C436.099672,125.064782 433.658337,123.439192 412.969634,111.768791 C411.132321,110.730882 405.637214,107.589103 400.733973,104.737658 C393.273455,100.39901 356.882507,79.4108035 349.417314,75.1516356 C348.192439,74.4550209 343.180268,71.6124588 338.277495,68.7596111 C333.374722,65.9076985 327.879146,62.6611933 326.041834,61.6373099 C324.204521,60.6134265 314.664052,55.2247142 304.858038,49.584005 C295.052024,43.9437634 281.93838,36.4362202 275.729853,32.8736671 C261.832195,24.8971947 257.7125,23.5605359 247.515181,24.1075421 L247.516583,24.1028669 Z" id="f3" fill="#757575" fill-rule="nonzero"></path>
            <path d="M55.9453811,364.821402 C60.9391957,372.507868 63.2289217,372.391895 84.5779224,384.809394 C93.7302938,390.131981 102.671284,395.420431 104.469188,396.502531 C106.265692,397.582761 110.612765,400.11265 114.113849,402.101021 C117.613532,404.088456 121.622769,406.33309 123.032908,407.170619 C125.36603,408.554809 137.774507,415.820407 180.358651,440.550187 C188.499848,445.277479 196.190752,449.696133 197.403975,450.408804 C198.617199,451.119605 206.074323,455.490093 214.030737,460.088786 C221.98715,464.685608 229.742448,469.189839 231.292107,470.140067 C235.879025,472.955211 245.823258,475.31722 251.751722,474.965093 C262.660934,474.33379 257.146833,477.120876 349.770382,423.527449 C431.400725,376.296154 436.502796,373.29349 440.120069,368.826669 C446.255247,361.248693 449.074125,354.511052 449.695202,345.989863 C449.881852,343.123279 450.068502,340.612563 449.975177,340.450762 C449.881852,340.310473 449.788527,335.924085 449.788527,330.640779 C449.802059,325.35233 449.758663,320.90702 449.695202,320.785436 C449.64854,320.645146 449.652273,318.007702 449.7148,314.973706 C449.761463,311.938775 449.808125,307.747857 449.808125,305.638369 C449.763329,300.772191 449.668138,285.485303 449.7148,282.074863 C449.725533,280.653262 449.707801,275.619204 449.698935,270.905006 C449.688203,266.191744 449.7176,261.235313 449.728799,259.814179 C449.752597,256.760543 449.682137,235.754983 449.635474,230.235056 C449.615876,228.126035 449.668605,223.932312 449.728799,220.899719 C449.775462,217.864788 449.741398,215.253998 449.682137,215.132414 C449.635474,214.992124 449.635474,211.695319 449.64854,207.769549 C449.677004,203.846117 449.673271,198.908859 449.644807,196.803112 C449.616809,194.698768 449.504819,184.66666 449.551482,174.508759 C449.594411,152.390235 449.458157,150.603881 447.232358,143.262995 C446.322441,140.27015 444.908569,138.755023 443.839999,137 L55,362.550113 C55.4666244,363.31703 55.4666244,363.99042 55.9892438,364.822804 L55.9453811,364.821402 Z" id="f4" fill="#424242" fill-rule="nonzero"></path>
            <path d="M446.288673,359.99959 C450.44018,351.814945 450.599135,350.127655 450.655236,325.368251 C450.678612,314.754471 450.79549,304.341012 450.79549,302.238101 C450.831488,300.136594 450.842241,295.093445 450.811385,291.058458 C450.779127,287.023938 450.717883,282.417004 450.717883,280.773242 C450.746401,278.05392 450.811385,263.639641 450.904887,214.272947 C450.919848,204.834887 450.892732,195.943031 450.902082,194.532354 C450.910965,193.123549 450.948834,184.458693 450.948834,175.245761 C450.944626,166.032829 450.957716,157.043153 450.995585,155.221535 C451.135838,150.090394 447.910005,141.158287 444.829101,136 L250,249.047974 L444.775337,362 C445.196098,361.21837 445.794513,360.886061 446.248,360.006143 L446.288673,359.99959 Z" id="f5" fill="#616161" fill-rule="nonzero"></path>
            <path d="M241.335453,115.360326 L241.335453,115.45379 C223.677266,116.687508 206.364804,121.147585 191.263299,128.870939 C138.783232,155.711314 110.059497,210.707094 118.439241,268.33574 C121.045046,286.251287 128.247734,305.343071 137.992602,320.178996 C139.906021,323.090384 141.641664,325.650816 141.828796,325.837743 C142.015927,326.02467 143.737536,328.221061 145.576102,330.675412 C150.174856,336.804747 161.806009,348.441885 168.967528,354.041282 C189.122516,369.799224 215.623598,379.916646 241.88328,381.879379 C247.495819,382.299965 264.961261,381.552257 270.848415,380.692393 C273.711526,380.271807 277.183281,379.697007 278.614836,379.323153 C280.046392,378.949299 282.876754,378.257669 284.919761,377.771659 C308.834687,372.100295 333.523402,357.126979 351.347668,337.429083 C356.119051,332.156341 362.506314,323.739955 365.144867,319.174264 L367.062964,315.795559 L339.376872,299.822651 C324.172445,291.059515 311.221548,283.760952 310.594658,283.667489 C309.930342,283.574025 308.363116,285.162904 306.847352,287.410701 C299.490748,298.323497 286.646049,308.000705 273.770472,312.328064 C264.423258,315.468437 261.970433,315.800233 251.109794,315.795559 C239.09549,315.787615 232.527646,314.449685 223.058329,310.136346 C215.985229,306.916529 211.403317,303.778493 204.418637,297.266892 C192.34258,286.008749 184.93779,270.243797 183.768219,253.273633 C181.517964,220.642261 202.436448,191.863922 234.571589,183.176024 C242.379179,181.054403 259.489071,180.788032 266.734799,182.708707 C273.185219,184.437781 280.402877,187.283744 285.192038,190.010541 C293.255062,194.599598 303.236651,203.985668 307.5781,211.003373 C308.476331,212.452057 309.659937,213.564272 310.137122,213.559599 C310.614307,213.554926 312.663396,212.615618 314.707806,211.461344 C318.703062,209.199528 331.882259,201.649548 335.540678,199.504561 C336.766389,198.784892 341.046084,196.284744 345.134905,193.936942 C349.223727,191.591008 353.914175,188.8801 355.551575,187.912753 C357.188975,186.945406 360.508218,185.090156 362.861396,183.805033 C365.214573,182.519911 367.062496,181.25348 367.062496,180.97309 C367.062496,180.6927 365.251999,177.65981 362.950283,174.218952 C346.608565,149.817974 321.62699,130.812176 293.780901,121.645745 C277.070067,116.146822 258.991301,114.114458 241.333114,115.348176 L241.335453,115.360326 Z" id="f6" fill="#E0E0E0" fill-rule="nonzero"></path>
        </g>
    </g>
</svg>