<?xml version="1.0" encoding="UTF-8"?>
<svg viewBox="0 0 500 500" version="1.1" xmlns="http://www.w3.org/2000/svg" xmlns:xlink="http://www.w3.org/1999/xlink">
    <defs>
        <polygon id="path-1" points="81 105 418 105 386.929937 448.175331 249.5 486 111.367771 448.175331"></polygon>
        <polygon id="path-2" points="144 176 355 176 351.216444 217.869178 256.236497 260.836115 347.333688 260.836115 335.546637 391.272714 249.5 415 163.013649 391.272714 157.06362 323.906432 200.023785 323.906432 202.476524 357.648227 249.5 370.342063 295.620022 357.648227 300.122837 302.8179 155.201006 302.8179 151.584775 261.874898 247.740429 220.166417 147.900934 220.166417"></polygon>
        <polygon id="path-3" points="250 134 389 134 363.369503 426.734862 250 459"></polygon>
        <polygon id="path-4" points="151 13 204 13 204 34.0207279 173.219401 34.0207279 173.219401 56.0545554 204 56.0545554 204 77 151 77"></polygon>
        <polygon id="path-5" points="224 13 276 13 276 35.0580657 259.650816 35.0580657 276 56.0557605 276 77 224 77 224 56.0557605 241.787331 56.0557605 224 30.6820189"></polygon>
        <polygon id="path-6" points="297 13 349 13 349 35.0580657 332.650816 35.0580657 349 56.0557605 349 77 297 77 297 56.0557605 314.787331 56.0557605 297 30.6820189"></polygon>
    </defs>
    <g id="Page-1" stroke="none" stroke-width="1" fill="none" fill-rule="evenodd">
        <g id="css">
            <rect id="f0" fill="#222222" x="0" y="0" width="500" height="500"></rect>
            <g id="f1">
                <use fill="#424242" fill-rule="evenodd" xlink:href="#path-1"></use>
                <path stroke="#424242" stroke-width="1.1" d="M81.600819,105.55 L111.881917,447.745871 L249.499629,485.429651 L386.416542,447.74618 L417.397955,105.55 L81.600819,105.55 Z"></path>
            </g>
            <g id="f2">
                <use fill="#E0E0E0" fill-rule="evenodd" xlink:href="#path-2"></use>
                <path stroke="#E0E0E0" stroke-width="0.9075" d="M144.495593,176.45375 L148.316374,219.712667 L249.92677,219.712667 L152.065557,262.160951 L155.616446,302.36415 L300.615378,302.36415 L296.046286,358.001527 L249.501157,370.812368 L202.047319,358.002356 L199.601822,324.360182 L157.559214,324.360182 L163.437888,390.918586 L249.499693,414.5294 L335.123016,390.918842 L346.837086,261.289865 L254.132576,261.289865 L350.788349,217.56482 L354.503397,176.45375 L144.495593,176.45375 Z"></path>
            </g>
            <g id="f3" opacity="0.25">
                <use fill="#BDBDBD" fill-rule="evenodd" xlink:href="#path-3"></use>
                <path stroke="#BDBDBD" stroke-width="1.1" d="M250.55,134.55 L250.55,458.271628 L362.854637,426.309553 L388.39974,134.55 L250.55,134.55 Z"></path>
            </g>
            <g id="f4">
                <use fill="#424242" fill-rule="evenodd" xlink:href="#path-4"></use>
                <path stroke="#424242" stroke-width="1.1" d="M151.55,13.55 L151.55,76.45 L203.45,76.45 L203.45,56.6045554 L172.669401,56.6045554 L172.669401,33.4707279 L203.45,33.4707279 L203.45,13.55 L151.55,13.55 Z"></path>
            </g>
            <g id="f5">
                <use fill="#424242" fill-rule="evenodd" xlink:href="#path-5"></use>
                <path stroke="#424242" stroke-width="1.1" d="M224.55,13.55 L224.55,30.5084411 L242.844569,56.6057605 L224.55,56.6057605 L224.55,76.45 L275.45,76.45 L275.45,56.2446306 L258.525518,34.5080657 L275.45,34.5080657 L275.45,13.55 L224.55,13.55 Z"></path>
            </g>
            <g id="f6">
                <use fill="#424242" fill-rule="evenodd" xlink:href="#path-6"></use>
                <path stroke="#424242" stroke-width="1.1" d="M297.55,13.55 L297.55,30.5084411 L315.844569,56.6057605 L297.55,56.6057605 L297.55,76.45 L348.45,76.45 L348.45,56.2446306 L331.525518,34.5080657 L348.45,34.5080657 L348.45,13.55 L297.55,13.55 Z"></path>
            </g>
        </g>
    </g>
</svg>