<?xml version="1.0" encoding="UTF-8"?>
<svg viewBox="0 0 775 860" version="1.1" xmlns="http://www.w3.org/2000/svg" xmlns:xlink="http://www.w3.org/1999/xlink">
    <title>education-bg</title>
    <desc>Designed By: Atul Meshram</desc>
    <defs></defs>
    <g id="Page-1" stroke="none" stroke-width="1" fill="none" fill-rule="evenodd">
        <g id="education-bg">
            <rect id="bg" fill="#333333" x="0.5" y="0.5" width="774" height="859"></rect>
            <g id="figures" transform="translate(214.000000, 260.000000)" fill-rule="nonzero" stroke-width="0.75">
                <path d="M281.655,210.083568 L280.785,211.162302 L282.96,321.957338 C282.96,321.957338 223.56,321.148286 190.305,332.370123 L189.42,336.670079 L184.71,339.441828 L297.285,329.763181 L293.385,208.795079 L281.655,210.083568 Z" id="f1" stroke="#FF5252" fill="#FF5252"></path>
                <path d="M68.085,320.653866 L70.23,211.342092 L58.965,210.083568 L55.065,331.05167 L164.4,340.44565 L157.725,336.535238 L156.33,329.673286 C122.49,319.904745 68.085,320.653866 68.085,320.653866 Z" id="f2" stroke="#EF5350" fill="#EF5350"></path>
                <path d="M82.41,312.848023 L83.22,226.878866 L83.595,188.029438 L70.695,188.029438 L70.245,211.372056 L68.1,320.668849 C68.1,320.668849 122.505,319.919728 156.33,329.688269 L155.385,325.043717 C138.195,315.784578 112.965,307.424385 82.41,312.848023 Z" id="f3" stroke="#40C4FF" fill="#40C4FF"></path>
                <path d="M282.96,321.957338 L280.785,210.548023 L280.35,188.029438 L268.77,188.029438 L269.115,224.916168 L269.925,311.229921 C235.875,305.177021 208.425,316.41384 191.4,326.766696 L190.29,332.280228 C223.56,321.058392 282.96,321.957338 282.96,321.957338 Z" id="f4" stroke="#00B0FF" fill="#00B0FF"></path>
                <path d="M269.94,311.544552 L269.13,225.54543 L268.785,189.272979 L268.635,173.661292 C268.635,173.661292 213.12,158.918586 175.335,193.97746 C174.255,194.9663 172.05,195.985106 172.05,197.06384 L172.05,197.663137 C172.05,197.633172 172.8,197.55826 173.13,197.55826 C175.815,197.55826 178.29,198.711907 180.03,200.569728 C181.74,202.397584 182.82,204.884666 182.82,207.641432 C182.82,210.398198 181.77,212.885281 180.075,214.713137 C178.86,216.016608 177.3,216.945518 175.545,217.409974 C176.355,220.556283 177.795,225.305712 180.075,230.324824 C184.725,240.55782 192.915,251.899516 206.52,252.993234 L196.185,303.513972 L192.915,319.470255 L191.4,326.91652 C208.44,316.578646 235.875,305.491652 269.94,311.544552 Z" id="f5" stroke="#00BFA5" fill="#00BFA5"></path>
                <path d="M300.48,212.19609 C300.48,142.39297 243.84,85.8193321 173.955,85.8193321 C104.07,85.8193321 47.43,142.39297 47.43,212.19609 C47.43,220.930844 48.315,229.455844 50.01,237.681195 C49.2,231.912962 48.75,226.03985 48.75,220.04688 C48.75,150.9779 104.805,94.973594 173.97,94.973594 C243.135,94.973594 299.19,150.962918 299.19,220.04688 C299.19,226.024868 298.74,231.912962 297.93,237.666212 C299.595,229.440861 300.48,220.930844 300.48,212.19609 Z" id="f6" stroke="#212121" fill="#212121"></path>
                <path d="M174.57,258.461819 L174.66,217.589762 C174.18,217.664675 173.715,217.739587 173.22,217.739587 C172.95,217.739587 172.71,217.679658 172.44,217.664675 L172.53,258.356942 C172.71,258.34196 172.89,258.297012 173.085,258.297012 C173.61,258.311994 174.09,258.386907 174.57,258.461819 Z" id="f7" stroke="#00BFA5" fill="#00BFA5"></path>
                <path d="M172.605,278.433392 L172.38,330.946792 L172.05,336.37043 L172.05,336.400396 L172.05,337.224429 L172.41,340.970035 C172.5,340.88014 172.98,340.760281 173.1,340.655404 C173.43,340.340774 174.765,339.936248 174.765,339.441828 L174.765,339.247056 L174.765,338.542882 L174.765,337.673902 L174.765,337.449166 L174.6,333.628646 L174.645,278.328515 C174.18,278.403427 173.67,278.478339 173.175,278.478339 C172.98,278.493322 172.77,278.448374 172.605,278.433392 Z" id="f8" stroke="#00BFA5" fill="#00BFA5"></path>
                <path d="M175.335,193.992443 C137.595,160.6116 83.655,174.964762 83.655,174.964762 L83.565,187.969508 L83.205,226.848902 L82.41,312.848023 C112.965,307.424385 138.195,315.784578 155.355,325.043717 L152.835,312.683216 L148.68,292.307118 L140.61,252.873374 C160.71,251.270255 168.975,227.328339 171.525,217.57478 C167.055,216.720782 163.53,212.615598 163.53,207.671397 C163.53,202.44253 166.665,198.202504 172.065,197.693102 L172.065,197.093805 C172.05,196.000088 174.27,194.981283 175.335,193.992443 Z" id="f9" stroke="#1DE9B6" fill="#1DE9B6"></path>
                <path d="M174.57,258.461819 C174.09,258.386907 173.595,258.297012 173.1,258.297012 C172.905,258.297012 172.74,258.34196 172.545,258.356942 C172.44,258.356942 172.35,258.386907 172.26,258.386907 C167.355,258.83638 163.5,263.121354 163.5,268.380184 C163.5,273.653998 167.355,277.92399 172.26,278.388444 C172.38,278.403427 172.485,278.41841 172.605,278.41841 C172.77,278.433392 172.935,278.463356 173.115,278.463356 C173.595,278.463356 174.075,278.388444 174.54,278.313532 C176.715,277.968936 178.65,276.890202 180.09,275.2721 C181.71,273.459226 182.73,271.047056 182.73,268.365202 C182.73,265.683348 181.725,263.271178 180.09,261.458304 C178.65,259.900132 176.73,258.821397 174.57,258.461819 Z" id="f10" stroke="#00BFA5" fill="#00BFA5"></path>
                <polygon id="f11" stroke="#616161" fill="#616161" points="347.7726 66.2774552 175.3494 0.00599297012 0 66.2774552 175.3494 123.077028"></polygon>
                <path d="M277.7826,143.470506 L277.7826,94.6733461 L173.8866,129.26417 L71.0898,94.6733461 L71.0898,143.101938 C125.7714,144.193258 174.4362,176.233474 174.4362,176.233474 C231.12,140.55133 277.7826,143.470506 277.7826,143.470506 Z" id="f12" stroke="#424242" fill="#424242"></path>
                <path d="M305.442,178.983648 L305.442,249.07443 L325.4922,249.07443 L325.4922,178.983648 C325.4922,175.794789 323.7684,173.035626 321.2142,171.509816 C323.79,169.696942 325.4922,166.71544 325.4922,163.328812 C325.4922,159.362065 323.1612,155.961054 319.8114,154.34475 L319.8366,154.227888 L319.8366,80.2566576 L311.0868,83.0337998 L311.0868,153.863515 L311.3388,154.221296 C307.8606,155.798046 305.4348,159.267976 305.4348,163.329412 C305.4348,166.716038 307.1334,169.697542 309.7092,171.510414 C307.1664,173.035626 305.442,175.80198 305.442,178.983648 Z" id="f13" stroke="#757575" fill="#757575"></path>
            </g>
        </g>
    </g>
</svg>