<?xml version="1.0" encoding="UTF-8"?>
<svg viewBox="0 0 775 860" version="1.1" xmlns="http://www.w3.org/2000/svg" xmlns:xlink="http://www.w3.org/1999/xlink">
    <title>Employment</title>
    <desc>Designed By: Atul Meshram</desc>
    <defs></defs>
    <g id="Page-1" stroke="none" stroke-width="1" fill="none" fill-rule="evenodd">
        <g id="employment-bg" fill-rule="nonzero">
            <rect id="bg" fill="#333333" x="0" y="0" width="775" height="860"></rect>
            <g id="figures" transform="translate(220.000000, 169.000000)">
                <polygon id="f1" stroke="#FF5252" stroke-width="1.35" fill="#FF5252" stroke-linecap="round" stroke-linejoin="round" points="35.2312572 45.1125155 0.208979198 149.532738 69.8882621 195.141776 31.1390996 224.998284 166.724091 407.103628 40.75567 224.998284 80.3836852 195.141776 7.65176256 149.532738"></polygon>
                <polygon id="f2" stroke="#FF5252" stroke-width="1.35" fill="#FF5252" stroke-linecap="round" stroke-linejoin="round" transform="translate(250.966535, 226.108072) scale(-1, 1) translate(-250.966535, -226.108072) " points="202.731257 45.1125155 167.708979 149.532738 237.388262 195.141776 198.639099 224.998284 334.224091 407.103628 208.25567 224.998284 247.883685 195.141776 175.151763 149.532738"></polygon>
                <path d="M40.1883326,72.2960723 L70.7898044,132.605764 L52.2727081,173.249417 L80.2050449,292.709658 L166.109583,43.165418 L127.345003,0.977734529 C127.345003,0.977734529 98.6631919,30.4768385 83.1567406,43.165418 C67.6502891,55.8539974 40.1883326,72.2960723 40.1883326,72.2960723 Z" id="f3" stroke="#40C4FF" stroke-width="1.35" fill="#40C4FF" transform="translate(103.148958, 146.843696) scale(-1, 1) translate(-103.148958, -146.843696) "></path>
                <path d="M168.514945,72.2960723 L199.116417,132.605764 L180.59932,173.249417 L208.531657,292.709658 L294.436195,43.165418 L255.671615,0.977734529 C255.671615,0.977734529 226.989804,30.4768385 211.483353,43.165418 C195.976901,55.8539974 168.514945,72.2960723 168.514945,72.2960723 Z" id="f4" stroke="#40C4FF" stroke-width="1.35" fill="#40C4FF"></path>
                <polygon id="f5" fill="#616161" points="167.5 78.0941798 186.252817 78.2465076 208.595682 108.159881 192.885578 138.619095 189.369186 138.619095 211.718826 456.563944 167.5 522.889302"></polygon>
                <polygon id="f6" fill="#757575" transform="translate(145.383815, 300.491741) scale(-1, 1) translate(-145.383815, -300.491741) " points="123.274402 78.0941798 142.02722 78.2465076 164.370084 108.159881 148.65998 138.619095 145.143589 138.619095 167.493228 456.563944 123.274402 522.889302"></polygon>
                <path d="M78.8335935,0.360098863 L255.037823,0.360098863 C255.037823,0.360098863 238.903519,34.2480765 222.385427,47.8342894 C205.867334,61.4205023 167.311582,72.5153677 167.311582,72.5153677 C167.311582,72.5153677 125.004532,59.525092 110.669076,47.8342894 C96.3336203,36.1434869 78.8335935,0.360098863 78.8335935,0.360098863 Z" id="f7" stroke="#424242" stroke-width="1.35" fill="#424242"></path>
                <path d="M168.514945,72.2960723 L211.483353,156.978647 C211.483353,156.978647 237.20569,125.193968 249.832288,107.869981 C262.458887,90.5459935 294.436195,43.165418 294.436195,43.165418 L255.671615,0.977734529 C255.671615,0.977734529 226.989804,30.4768385 211.483353,43.165418 C195.976901,55.8539974 168.514945,72.2960723 168.514945,72.2960723 Z" id="f8" stroke="#00BFA5" stroke-width="1.35" fill="#00BFA5"></path>
                <path d="M168.514945,72.2960723 L211.483353,143.952745 C211.483353,143.952745 232.312731,122.917649 244.939329,105.593662 C257.565928,88.2696747 294.436195,43.165418 294.436195,43.165418 L255.671615,0.977734529 C255.671615,0.977734529 226.989804,30.4768385 211.483353,43.165418 C195.976901,55.8539974 168.514945,72.2960723 168.514945,72.2960723 Z" id="f9" stroke="#1DE9B6" stroke-width="1.35" fill="#1DE9B6"></path>
                <path d="M40.1883326,72.2960723 L83.1567406,156.978647 C83.1567406,156.978647 108.879077,125.193968 121.505676,107.869981 C134.132274,90.5459935 166.109583,43.165418 166.109583,43.165418 L127.345003,0.977734529 C127.345003,0.977734529 98.6631919,30.4768385 83.1567406,43.165418 C67.6502891,55.8539974 40.1883326,72.2960723 40.1883326,72.2960723 Z" id="f10" stroke="#00BFA5" stroke-width="1.35" fill="#00BFA5" transform="translate(103.148958, 78.978191) scale(-1, 1) translate(-103.148958, -78.978191) "></path>
                <path d="M40.1883326,72.2960723 L83.1567406,143.952745 C83.1567406,143.952745 103.986119,122.917649 116.612717,105.593662 C129.239316,88.2696747 166.109583,43.165418 166.109583,43.165418 L127.345003,0.977734529 C127.345003,0.977734529 98.6631919,30.4768385 83.1567406,43.165418 C67.6502891,55.8539974 40.1883326,72.2960723 40.1883326,72.2960723 Z" id="f11" stroke="#1DE9B6" stroke-width="1.35" fill="#1DE9B6" transform="translate(103.148958, 72.465240) scale(-1, 1) translate(-103.148958, -72.465240) "></path>
            </g>
        </g>
    </g>
</svg>