<?xml version="1.0" encoding="UTF-8"?>
<svg viewBox="0 0 500 500" version="1.1" xmlns="http://www.w3.org/2000/svg" xmlns:xlink="http://www.w3.org/1999/xlink">

    <defs>
        <polygon id="path-1" points="81 105 418 105 386.929937 448.175331 249.5 486 111.367771 448.175331"></polygon>
        <polygon id="path-2" points="144 176 355 176 351.216444 217.869178 190.71601 217.869178 194.289716 260.836115 347.333688 260.836115 335.546637 391.272714 249.5 415 163.013649 391.272714 157.06362 323.906432 200.023785 323.906432 202.476524 357.648227 249.5 370.342063 295.620022 357.648227 300.122837 302.8179 155.201006 302.8179"></polygon>
        <polygon id="path-3" points="250 134 389 134 363.369503 426.734862 250 459"></polygon>
        <polygon id="path-4" points="113 13 134.019371 13 134.019371 33.9673849 153.990972 33.9673849 153.990972 13 175 13 175 77 153.990972 77 153.990972 55.9410816 134.019371 55.9410816 134.019371 77 113 77"></polygon>
        <polygon id="path-5" points="185 13 243 13 243 34.1007104 224.583183 34.1007104 224.583183 77 203.634611 77 203.109153 34.1007104 185 34.1007104"></polygon>
        <polygon id="path-6" points="253 13 275.276604 13 289 34.5809608 302.105641 13 325 13 325 77 304.022431 77 304.022431 45 289 67.9224857 273.993604 45 273.993604 77 253 77"></polygon>
        <polygon id="path-7" points="336 13 357.10305 13 357.10305 56.0758313 388 56.0758313 388 77 336 77"></polygon>
    </defs>
    <g id="Page-1" stroke="none" stroke-width="1" fill="none" fill-rule="evenodd">
        <g id="html">
            <rect id="f0" fill="#222222" x="0" y="0" width="500" height="500"></rect>
            <g id="f1">
                <use fill="#424242" fill-rule="evenodd" xlink:href="#path-1"></use>
                <path stroke="#424242" stroke-width="1.1" d="M81.600819,105.55 L111.881917,447.745871 L249.499629,485.429651 L386.416542,447.74618 L417.397955,105.55 L81.600819,105.55 Z"></path>
            </g>
            <g id="f2">
                <use fill="#E0E0E0" fill-rule="evenodd" xlink:href="#path-2"></use>
                <path stroke="#E0E0E0" stroke-width="0.9075" d="M144.495593,176.45375 L155.616446,302.36415 L300.615378,302.36415 L296.046286,358.001527 L249.501157,370.812368 L202.047319,358.002356 L199.601822,324.360182 L157.559214,324.360182 L163.437888,390.918586 L249.499693,414.5294 L335.123016,390.918842 L346.837086,261.289865 L193.872139,261.289865 L190.222954,217.415428 L350.801849,217.415428 L354.503397,176.45375 L144.495593,176.45375 Z"></path>
            </g>
            <g id="f3" opacity="0.25">
                <use fill="#BDBDBD" fill-rule="evenodd" xlink:href="#path-3"></use>
                <path stroke="#BDBDBD" stroke-width="1.1" d="M250.55,134.55 L250.55,458.271628 L362.854637,426.309553 L388.39974,134.55 L250.55,134.55 Z"></path>
            </g>
            <g id="f4">
                <use fill="#424242" fill-rule="evenodd" xlink:href="#path-4"></use>
                <path stroke="#424242" stroke-width="1.1" d="M113.55,13.55 L113.55,76.45 L133.469371,76.45 L133.469371,55.3910816 L154.540972,55.3910816 L154.540972,76.45 L174.45,76.45 L174.45,13.55 L154.540972,13.55 L154.540972,34.5173849 L133.469371,34.5173849 L133.469371,13.55 L113.55,13.55 Z"></path>
            </g>
            <g id="f5">
                <use fill="#424242" fill-rule="evenodd" xlink:href="#path-5"></use>
                <path stroke="#424242" stroke-width="1.1" d="M185.55,13.55 L185.55,33.5507104 L203.652457,33.5507104 L204.177915,76.45 L224.033183,76.45 L224.033183,33.5507104 L242.45,33.5507104 L242.45,13.55 L185.55,13.55 Z"></path>
            </g>
            <g id="f6">
                <use fill="#424242" fill-rule="evenodd" xlink:href="#path-6"></use>
                <path stroke="#424242" stroke-width="1.1" d="M253.55,13.55 L253.55,76.45 L273.443604,76.45 L273.443604,43.1557141 L289.000246,66.9187079 L304.572431,43.157361 L304.572431,76.45 L324.45,76.45 L324.45,13.55 L302.415112,13.55 L289.010757,35.6228507 L274.974566,13.55 L253.55,13.55 Z"></path>
            </g>
            <g id="f7">
                <use fill="#424242" fill-rule="evenodd" xlink:href="#path-7"></use>
                <path stroke="#424242" stroke-width="1.1" d="M336.55,13.55 L336.55,76.45 L387.45,76.45 L387.45,56.6258313 L356.55305,56.6258313 L356.55305,13.55 L336.55,13.55 Z"></path>
            </g>
        </g>
    </g>
</svg>