<?xml version="1.0" encoding="UTF-8"?>
<svg viewBox="0 0 500 500" version="1.1" xmlns="http://www.w3.org/2000/svg" xmlns:xlink="http://www.w3.org/1999/xlink">
    <defs>
        <radialGradient cx="32.9351254%" cy="22.4100935%" fx="32.9351254%" fy="22.4100935%" r="0.139277297%" id="radialGradient-1">
            <stop stop-color="#616161" stop-opacity="0.98" offset="0%"></stop>
            <stop stop-color="#424242" offset="100%"></stop>
        </radialGradient>
    </defs>
    <g id="Page-1" stroke="none" stroke-width="1" fill="none" fill-rule="evenodd">
        <g id="illustrator">
            <rect id="f0" fill="#222222" x="0" y="0" width="500" height="500"></rect>
            <polygon id="f1" fill="url(#radialGradient-1)" fill-rule="nonzero" points="25 25 475 25 475 475 25 475"></polygon>
            <path d="M43.749748,44.2304777 L456.250252,44.2304777 L456.250252,455.768747 L43.749748,455.768747 L43.749748,44.2304777 Z M25,475 L475,475 L475,25 L25,25 L25,475 Z M319.749698,185.384494 C319.749698,183.846242 320.312122,183.076341 322.000151,183.076341 L351.437475,183.076341 C352.936517,183.076341 353.687172,183.653185 353.687172,185.384494 L353.687172,337.115545 C353.687172,338.653021 353.312223,339.422923 351.437475,339.422923 L322.375101,339.422923 C320.500353,339.422923 319.937172,338.461515 319.937172,336.923263 L319.937172,185.384494 L319.749698,185.384494 Z M317.687475,141.730387 C317.687475,129.422819 326.124597,122.115347 336.812928,122.115347 C348.250403,122.115347 355.937626,129.999664 355.937626,141.730387 C355.937626,154.422518 347.875454,161.345428 336.437979,161.345428 C325.562172,161.346203 317.687475,154.422518 317.687475,141.730387 Z M233.312475,248.653642 C228.06318,227.307292 215.688332,180.768962 210.99995,158.268924 L210.625,158.268924 C206.687273,180.768962 196.750353,218.845355 188.875655,248.653642 L233.312475,248.653642 L233.312475,248.653642 Z M181.187676,279.807899 L166.374899,337.500108 C165.99995,339.037584 165.437525,339.422148 163.562777,339.422148 L136.000202,339.422148 C134.125454,339.422148 133.749748,338.845303 134.125454,336.537925 L187.375101,145.383736 C188.312475,141.922669 188.874899,138.845389 189.249849,129.422819 C189.249849,128.076849 189.812273,127.500004 190.749647,127.500004 L230.124647,127.500004 C231.436971,127.500004 231.999395,127.884567 232.375101,129.422819 L291.999647,336.922488 C292.374597,338.459965 291.999647,339.422148 290.499849,339.422148 L259.374496,339.422148 C257.874698,339.422148 256.936568,339.037584 256.562374,337.692389 L241.187172,279.807899 L181.187676,279.807899 L181.187676,279.807899 Z" id="ai" fill="#BDBDBD" fill-rule="nonzero"></path>
        </g>
    </g>
</svg>