<?xml version="1.0" encoding="UTF-8"?>
<svg viewBox="0 0 500 500" version="1.1" xmlns="http://www.w3.org/2000/svg" xmlns:xlink="http://www.w3.org/1999/xlink">
    <defs>
        <polygon id="path-1" points="81 106 418 106 386.929937 449.175331 249.5 487 111.367771 449.175331"></polygon>
        <polygon id="path-2" points="204.963595 176 241 176 241 412 162.971521 390.724475 157 323.529756 185.723569 328.596357 186.961554 352.374765 211.359185 358.65943"></polygon>
        <polygon id="path-3" points="257.172913 176 355 176 351.394697 215.854834 295.061426 217.888411 293.232179 260.875085 347.322125 260.875085 335.517295 391.371601 257 413 257 368.357259 305.543764 356.198853 311.024196 299.988777 257.172913 302.876155"></polygon>
        <polygon id="path-4" points="250 134 389 134 363.369503 426.734862 250 459"></polygon>
        <polygon id="path-5" points="260 13 312 13 312 35.0580657 295.650816 35.0580657 312 56.0557605 312 77 260 77 260 56.0557605 277.787331 56.0557605 260 30.6820189"></polygon>
        <polygon id="path-6" points="218.863859 54.9522663 218.863859 12 241 12 241 77 189 77 189 47.2562193 210.057128 47.2562193 210.057128 54.9522663"></polygon>
    </defs>
    <g id="Page-1" stroke="none" stroke-width="1" fill="none" fill-rule="evenodd">
        <g id="js">
            <rect id="f0" fill="#222222" x="0" y="0" width="500" height="500"></rect>
            <g id="f1">
                <use fill="#424242" fill-rule="evenodd" xlink:href="#path-1"></use>
                <path stroke="#424242" stroke-width="1.1" d="M81.600819,106.55 L111.881917,448.745871 L249.499629,486.429651 L386.416542,448.74618 L417.397955,106.55 L81.600819,106.55 Z"></path>
            </g>
            <g id="f2">
                <use fill="#E0E0E0" fill-rule="evenodd" xlink:href="#path-2"></use>
                <path stroke="#E0E0E0" stroke-width="0.9075" d="M205.433511,176.45375 L211.833901,359.250276 L186.52574,352.731065 L185.289204,328.980493 L157.504392,324.079481 L163.395538,390.369774 L240.54625,411.405964 L240.54625,176.45375 L205.433511,176.45375 Z"></path>
            </g>
            <g id="f3">
                <use fill="#E0E0E0" fill-rule="evenodd" xlink:href="#path-3"></use>
                <path stroke="#E0E0E0" stroke-width="0.9075" d="M257.626663,176.45375 L257.626663,302.397424 L311.52703,299.507414 L305.964329,356.561283 L257.45375,368.711377 L257.45375,412.40436 L335.093713,391.017631 L346.825476,261.328835 L292.75871,261.328835 L294.625917,217.450087 L350.978809,215.415801 L354.503351,176.45375 L257.626663,176.45375 Z"></path>
            </g>
            <g id="f4" opacity="0.25">
                <use fill="#BDBDBD" fill-rule="evenodd" xlink:href="#path-4"></use>
                <path stroke="#BDBDBD" stroke-width="1.1" d="M250.55,134.55 L250.55,458.271628 L362.854637,426.309553 L388.39974,134.55 L250.55,134.55 Z"></path>
            </g>
            <g id="f5">
                <use fill="#424242" fill-rule="evenodd" xlink:href="#path-5"></use>
                <path stroke="#424242" stroke-width="1.1" d="M260.55,13.55 L260.55,30.5084411 L278.844569,56.6057605 L260.55,56.6057605 L260.55,76.45 L311.45,76.45 L311.45,56.2446306 L294.525518,34.5080657 L311.45,34.5080657 L311.45,13.55 L260.55,13.55 Z"></path>
            </g>
            <g id="f6">
                <use fill="#424242" fill-rule="evenodd" xlink:href="#path-6"></use>
                <path stroke="#424242" stroke-width="1.1" d="M209.507128,47.8062193 L189.55,47.8062193 L189.55,76.45 L240.45,76.45 L240.45,12.55 L219.413859,12.55 L219.413859,55.5022663 L209.507128,55.5022663 L209.507128,47.8062193 Z"></path>
            </g>
        </g>
    </g>
</svg>