<?xml version="1.0" encoding="UTF-8"?>
<svg viewBox="0 0 2000 2000" version="1.1" xmlns="http://www.w3.org/2000/svg" xmlns:xlink="http://www.w3.org/1999/xlink">
    <!-- Designed By: Atul Meshram -->
    <title>ktm</title>
    <desc>Created with Sketch.</desc>
    <defs>
        <linearGradient x1="100%" y1="103.130989%" x2="55.4570483%" y2="32.9752851%" id="linearGradient-1">
            <stop stop-color="#FFFFFF" offset="0%"></stop>
            <stop stop-color="#999999" offset="100%"></stop>
        </linearGradient>
        <linearGradient x1="13.0968807%" y1="105.047509%" x2="166.926211%" y2="-123.664865%" id="linearGradient-2">
            <stop stop-color="#000000" offset="0%"></stop>
            <stop stop-color="#FF7800" offset="100%"></stop>
        </linearGradient>
        <linearGradient x1="50%" y1="3.31936095%" x2="60.861916%" y2="100%" id="linearGradient-3">
            <stop stop-color="#999999" offset="0%"></stop>
            <stop stop-color="#000000" offset="100%"></stop>
        </linearGradient>
        <linearGradient x1="20.9361752%" y1="147.227689%" x2="71.1121835%" y2="0%" id="linearGradient-4">
            <stop stop-color="#000000" offset="0%"></stop>
            <stop stop-color="#FF7800" offset="100%"></stop>
        </linearGradient>
        <polygon id="path-5" points="588.352123 862.434904 614.555256 862.434205 607.7124 879.79384 628.07407 862.434205 646.599851 862.434205 625.236788 881.225505 636.919713 897.689651 652.107516 856.887203 615.55665 856.887203 618.727729 848.297214 718.86709 848.297214 717.031202 856.887203 679.145144 856.887203 669.131208 887.667997 692.997755 862.434205 716.363606 862.434904 712.691829 879.972798 731.718308 862.434205 755.417957 862.434904 745.404021 910.216718 721.370574 910.216718 723.874058 893.752573 706.34967 910.216718 683.818314 910.216718 686.655596 893.752573 669.798803 910.216718 613.720761 910.216718 602.204735 893.752573 595.862575 910.216718 569.659443 910.216718"></polygon>
        <filter x="-1.6%" y="-4.8%" width="103.2%" height="119.4%" filterUnits="objectBoundingBox" id="filter-6">
            <feOffset dx="0" dy="6" in="SourceAlpha" result="shadowOffsetOuter1"></feOffset>
            <feColorMatrix values="0 0 0 0 0   0 0 0 0 0   0 0 0 0 0  0 0 0 0.5 0" type="matrix" in="shadowOffsetOuter1"></feColorMatrix>
        </filter>
    </defs>
    <g id="Page-1" stroke="none" stroke-width="1" fill="none" fill-rule="evenodd">
        <g id="ktm">
            <rect id="bg" fill="#333333" x="0" y="0" width="2000" height="2000"></rect>
            <g id="KTM_Head">
                <polygon id="Path-10" fill="#000000" points="1634.67492 2000 1832.81734 1325.0774 68.1114551 1325.0774 346.749226 2000"></polygon>
                <path d="M303.405573,1188.85449 C291.021672,1139.31889 365.325077,916.408669 421.052632,922.600619 C476.780186,928.79257 796.389521,1015.47988 984.520124,1015.47988 C1172.65073,1015.47988 1498.45201,928.79257 1541.79567,922.600619 C1585.13932,916.408669 1671.82663,1133.12693 1665.63467,1188.85449 C1659.44272,1244.58204 1306.50155,1839.00929 1287.9257,1845.20124 C1269.34985,1851.39319 1256.96594,1814.24149 1256.96594,1814.24149 C1256.96594,1814.24149 1114.55108,1882.35294 1089.78328,1876.16099 C1065.01548,1869.96904 1058.82353,1845.20124 1058.82353,1845.20124 L897.832817,1845.20124 C897.832817,1845.20124 891.640867,1869.96904 866.873065,1876.16099 C842.105263,1882.35294 712.074303,1808.04954 712.074303,1808.04954 C712.074303,1808.04954 687.306502,1857.58514 668.73065,1845.20124 C650.154799,1832.81734 315.789474,1238.39009 303.405573,1188.85449 Z" id="Path-2" fill="#000000"></path>
                <g id="Group">
                    <path d="M897.832817,1052.63158 C897.832817,1052.63158 892.472211,1079.836 885.448916,1092.87926 C878.425622,1105.92252 854.489164,1133.12693 854.489164,1133.12693 L1102.16718,1133.12693 C1102.16718,1133.12693 1078.46069,1106.34959 1071.20743,1092.87926 C1063.95417,1079.40892 1058.82353,1052.63158 1058.82353,1052.63158 C1058.82353,1052.63158 1009.35302,1058.82353 984.520124,1058.82353 C959.687224,1058.82353 897.832817,1052.63158 897.832817,1052.63158 Z" id="Path-5" fill="#777777"></path>
                    <circle id="Oval" fill="#FFFFFF" cx="1303.40557" cy="1111.45511" r="120.743034"></circle>
                    <circle id="Oval" fill="#FFFFFF" cx="653.250774" cy="1111.45511" r="120.743034"></circle>
                    <path d="M653.250774,1306.50155 C531.850721,1306.50155 433.436533,1212.24571 433.436533,1095.97523 C433.436533,979.704759 531.850721,885.448916 653.250774,885.448916 C774.650827,885.448916 873.065015,979.704759 873.065015,1095.97523 C873.065015,1212.24571 774.650827,1306.50155 653.250774,1306.50155 Z M656.346749,1269.34985 C755.518624,1269.34985 835.913313,1193.1135 835.913313,1099.07121 C835.913313,1005.02891 755.518624,928.79257 656.346749,928.79257 C557.174875,928.79257 476.780186,1005.02891 476.780186,1099.07121 C476.780186,1193.1135 557.174875,1269.34985 656.346749,1269.34985 Z" id="Combined-Shape" fill="#3E3E3E"></path>
                    <path d="M1303.40557,1306.50155 C1182.00552,1306.50155 1083.59133,1212.24571 1083.59133,1095.97523 C1083.59133,979.704759 1182.00552,885.448916 1303.40557,885.448916 C1424.80563,885.448916 1523.21981,979.704759 1523.21981,1095.97523 C1523.21981,1212.24571 1424.80563,1306.50155 1303.40557,1306.50155 Z M1306.50155,1269.34985 C1405.67342,1269.34985 1486.06811,1193.1135 1486.06811,1099.07121 C1486.06811,1005.02891 1405.67342,928.79257 1306.50155,928.79257 C1207.32967,928.79257 1126.93498,1005.02891 1126.93498,1099.07121 C1126.93498,1193.1135 1207.32967,1269.34985 1306.50155,1269.34985 Z" id="Combined-Shape" fill="#3E3E3E"></path>
                    <path d="M643.962848,1504.64396 L798.76161,1572.75542 L873.065015,1665.63467 L860.681115,1547.98762 C860.681115,1547.98762 935.400476,1560.37152 978.328173,1560.37152 C1021.25587,1560.37152 1095.97523,1547.98762 1095.97523,1547.98762 L1083.59133,1665.63467 L1164.08669,1572.75542 L1325.0774,1504.64547 L1318.88545,1578.94737 L1071.20743,1752.32198 C1071.20743,1752.32198 1009.38698,1746.13003 978.328173,1746.13003 C947.269365,1746.13003 885.448916,1752.32198 885.448916,1752.32198 L643.962848,1578.94737 L643.962848,1504.64396 Z" id="Path-4" fill="#3E3E3E"></path>
                    <path d="M817.337461,1523.19166 C848.297214,1523.19166 854.489164,1820.40528 854.489164,1820.40528 C854.489164,1820.40528 699.690402,1770.86967 668.73065,1739.90992 C637.770898,1708.95017 448.05927,1307.16791 439.628483,1287.89754 C431.197696,1268.62717 439.628483,1232.16998 452.012384,1244.55388 C464.396285,1256.93779 588.235294,1523.19166 631.578947,1566.53531 C674.922601,1609.87896 786.377709,1671.79847 798.76161,1659.41457 C811.145511,1647.03066 786.377709,1523.19166 817.337461,1523.19166 Z" id="Path-3" fill="url(#linearGradient-1)"></path>
                    <path d="M1489.4675,1523.19166 C1520.42725,1523.19166 1526.6192,1820.40528 1526.6192,1820.40528 C1526.6192,1820.40528 1371.82044,1770.86967 1340.86069,1739.90992 C1309.90093,1708.95017 1120.18931,1307.16791 1111.75852,1287.89754 C1103.32773,1268.62717 1111.75852,1232.16998 1124.14242,1244.55388 C1136.52632,1256.93779 1260.36533,1523.19166 1303.70898,1566.53531 C1347.05264,1609.87896 1458.50774,1671.79847 1470.89165,1659.41457 C1483.27555,1647.03066 1458.50774,1523.19166 1489.4675,1523.19166 Z" id="Path-3" fill="url(#linearGradient-1)" transform="translate(1317.489166, 1531.224299) scale(-1, 1) translate(-1317.489166, -1531.224299) "></path>
                    <g id="Group-3" transform="translate(1616.099071, 934.984520)">
                        <path d="M179.566563,452.012384 C179.566563,452.012384 167.008541,549.948764 154.798762,594.427245 C142.588983,638.905725 92.879257,767.801858 92.879257,767.801858 L105.263158,879.256966 L260.06192,551.083591 L291.021672,408.668731 L241.486068,414.860681 L179.566563,452.012384 Z" id="Path-9" fill="url(#linearGradient-2)"></path>
                        <path d="M309.597523,-1.42108547e-14 L309.597523,538.69969 L55.7275542,1065.01548 L0,1065.01548 C0,1065.01548 76.3410323,937.386264 123.839009,835.913313 C171.336986,734.440362 272.44582,482.972136 272.44582,482.972136 C272.44582,482.972136 297.213622,421.052632 272.44582,414.860681 C247.678019,408.668731 43.3436533,532.50774 43.3436533,532.50774 L309.597523,-1.42108547e-14 Z" id="Path-8" fill="url(#linearGradient-3)"></path>
                    </g>
                    <g id="Group-3" transform="translate(198.142415, 1467.492260) scale(-1, 1) translate(-198.142415, -1467.492260) translate(43.343653, 934.984520)">
                        <path d="M179.566563,452.012384 C179.566563,452.012384 167.008541,549.948764 154.798762,594.427245 C142.588983,638.905725 92.879257,767.801858 92.879257,767.801858 L105.263158,879.256966 L260.06192,551.083591 L291.021672,408.668731 L241.486068,414.860681 L179.566563,452.012384 Z" id="Path-9" fill="url(#linearGradient-2)"></path>
                        <path d="M309.597523,-1.42108547e-14 L309.597523,538.69969 L55.7275542,1065.01548 L0,1065.01548 C0,1065.01548 76.3410323,937.386264 123.839009,835.913313 C171.336986,734.440362 272.44582,482.972136 272.44582,482.972136 C272.44582,482.972136 297.213622,421.052632 272.44582,414.860681 C247.678019,408.668731 43.3436533,532.50774 43.3436533,532.50774 L309.597523,-1.42108547e-14 Z" id="Path-8" fill="url(#linearGradient-3)"></path>
                    </g>
                    <path d="M1925.69659,934.98452 C1925.69659,934.98452 1671.82663,1455.10836 1665.63467,1461.30031 C1659.44272,1467.49226 1653.25077,1479.87616 1634.67492,1479.87616 C1616.09907,1479.87616 1616.09907,1448.91641 1616.09907,1448.91641 C1616.09907,1448.91641 1572.75542,1498.45201 1566.56347,1504.64396 C1560.37152,1510.83591 1541.79567,1523.21981 1523.21981,1517.02786 C1504.64396,1510.83591 1529.41176,1411.76471 1529.41176,1411.76471 L1634.67492,1176.47059 L1517.02786,953.560372 L984.520124,1052.63158 L984.520124,563.467492 L2000,458.204334 L1925.69659,934.98452 Z M43.3436533,934.98452 L0,458.204334 L984.520124,563.467492 L984.520124,1052.63158 L408.668731,953.560372 L315.789474,1188.85449 L439.628483,1411.76471 C439.628483,1411.76471 464.396285,1510.83591 445.820433,1517.02786 C427.244582,1523.21981 408.668731,1510.83591 402.47678,1504.64396 C396.28483,1498.45201 352.941176,1448.91641 352.941176,1448.91641 C352.941176,1448.91641 352.941176,1479.87616 334.365325,1479.87616 C315.789474,1479.87616 309.597523,1467.49226 303.405573,1461.30031 C297.213622,1455.10836 43.3436533,934.98452 43.3436533,934.98452 Z" id="Combined-Shape" fill="#CCCCCC"></path>
                    <path d="M303.405573,1188.85449 C291.021672,1139.31889 365.325077,916.408669 421.052632,922.600619 C476.780186,928.79257 796.389521,1015.47988 984.520124,1015.47988 C1172.65073,1015.47988 1498.45201,928.79257 1541.79567,922.600619 C1585.13932,916.408669 1671.82663,1133.12693 1665.63467,1188.85449 C1659.44272,1244.58204 1306.50155,1839.00929 1287.9257,1845.20124 C1269.34985,1851.39319 1256.96594,1814.24149 1256.96594,1814.24149 C1256.96594,1814.24149 1114.55108,1882.35294 1089.78328,1876.16099 C1065.01548,1869.96904 1058.82353,1845.20124 1058.82353,1845.20124 L897.832817,1845.20124 C897.832817,1845.20124 891.640867,1869.96904 866.873065,1876.16099 C842.105263,1882.35294 712.074303,1808.04954 712.074303,1808.04954 C712.074303,1808.04954 687.306502,1857.58514 668.73065,1845.20124 C650.154799,1832.81734 315.789474,1238.39009 303.405573,1188.85449 Z M346.749226,1207.43034 C359.133127,1256.96594 650.154799,1814.24149 668.73065,1826.62539 C687.306502,1839.00929 712.074303,1789.47368 712.074303,1789.47368 C712.074303,1789.47368 842.105263,1863.77709 866.873065,1857.58514 C891.640867,1851.39319 897.832817,1826.62539 897.832817,1826.62539 L1058.82353,1826.62539 C1058.82353,1826.62539 1065.01548,1851.39319 1089.78328,1857.58514 C1114.55108,1863.77709 1256.96594,1795.66563 1256.96594,1795.66563 C1256.96594,1795.66563 1269.34985,1832.81734 1287.9257,1826.62539 C1306.50155,1820.43344 1603.71517,1263.15789 1609.90712,1207.43034 C1616.09907,1151.70279 1541.79567,972.136223 1498.45201,978.328173 C1455.10836,984.520124 1172.12417,1065.01548 983.99357,1065.01548 C795.862968,1065.01548 513.931889,984.520124 458.204334,978.328173 C402.47678,972.136223 334.365325,1157.89474 346.749226,1207.43034 Z" id="Combined-Shape" stroke="#777777" stroke-width="0.619195046" fill="#777777"></path>
                    <path d="M1684.21053,1120.74303 C1684.21053,1120.74303 1686.57752,1176.47059 1671.82663,1207.43034 C1657.07574,1238.39009 1547.46748,1453.62782 1541.79567,1467.49226 C1536.12385,1481.3567 1547.98762,1492.26006 1560.37152,1479.87616 C1568.5009,1471.74678 1679.16914,1268.37229 1746.13003,1120.74303 C1813.09092,973.113778 1832.81734,798.76161 1832.81734,798.76161 L1684.21053,1120.74303 Z" id="Path-7" fill="url(#linearGradient-4)"></path>
                    <path d="M291.021672,1120.74303 C291.021672,1120.74303 294.846633,1176.47059 280.095743,1207.43034 C265.344854,1238.39009 155.7366,1453.62782 150.064784,1467.49226 C144.392968,1481.3567 156.256734,1492.26006 168.640635,1479.87616 C176.770019,1471.74678 287.438261,1268.37229 354.399149,1120.74303 C421.360037,973.113778 427.244582,798.76161 427.244582,798.76161 L291.021672,1120.74303 Z" id="Path-7" fill="url(#linearGradient-4)" transform="translate(287.925697, 1142.023533) scale(-1, 1) translate(-287.925697, -1142.023533) "></path>
                    <path d="M284.829721,1120.74303 C284.829721,1120.74303 297.213622,1046.43963 328.173375,984.520124 C359.133127,922.600619 396.28483,885.448916 414.860681,885.448916 C433.436533,885.448916 792.933894,976.234335 984.520124,978.328173 C1176.10635,980.422012 1486.06811,891.640867 1547.98762,891.640867 C1609.90712,891.640867 1684.21053,1120.74303 1684.21053,1120.74303 L2000,458.204334 L2000,0 L6.59946813e-14,0 L0,458.204334 L284.829721,1120.74303 Z" id="Path" fill="#616161"></path>
                    <path d="M1609.90712,1529.41176 C1609.90712,1529.41176 1533.53132,1720.92133 1492.26006,1808.04954 C1450.98881,1895.17774 1386.9969,2000 1386.9969,2000 L1603.71517,2000 C1603.71517,2000 1597.52322,1857.58514 1628.48297,1721.36223 C1659.44272,1585.13932 1609.90712,1529.41176 1609.90712,1529.41176 Z" id="Path-11" fill="#979797"></path>
                    <path d="M551.083591,1529.41176 C551.083591,1529.41176 474.707787,1720.92133 433.436533,1808.04954 C392.165278,1895.17774 328.173375,2000 328.173375,2000 L544.891641,2000 C544.891641,2000 538.69969,1857.58514 569.659443,1721.36223 C600.619195,1585.13932 551.083591,1529.41176 551.083591,1529.41176 Z" id="Path-11" fill="#979797" transform="translate(454.006164, 1764.705882) scale(-1, 1) translate(-454.006164, -1764.705882) "></path>
                </g>
                <path d="M421.052632,1616.09907 C421.052632,1616.09907 513.931889,1752.32198 544.891641,1832.81734 C575.851393,1913.31269 625.386997,2000 625.386997,2000 L730.650155,2000 C730.650155,2000 625.386997,1888.54489 575.851393,1808.04954 C526.315789,1727.55418 421.052632,1616.09907 421.052632,1616.09907 Z" id="Path-12" fill="#84838B"></path>
                <path d="M1226.00619,1616.09907 C1226.00619,1616.09907 1318.88545,1752.32198 1349.8452,1832.81734 C1380.80495,1913.31269 1430.34056,2000 1430.34056,2000 L1535.60372,2000 C1535.60372,2000 1430.34056,1888.54489 1380.80495,1808.04954 C1331.26935,1727.55418 1226.00619,1616.09907 1226.00619,1616.09907 Z" id="Path-12" fill="#84838B" transform="translate(1380.804954, 1808.049536) scale(-1, 1) translate(-1380.804954, -1808.049536) "></path>
                <g id="Path" transform="translate(662.538700, 879.256966) rotate(12.000000) translate(-662.538700, -879.256966) ">
                    <use fill="black" fill-opacity="1" filter="url(#filter-6)" xlink:href="#path-5"></use>
                    <use fill="#F85B26" fill-rule="evenodd" xlink:href="#path-5"></use>
                </g>
            </g>
        </g>
    </g>
</svg>