<?xml version="1.0" encoding="UTF-8"?>
<svg width="1700px" height="860px" viewBox="0 0 1700 860" version="1.1" xmlns="http://www.w3.org/2000/svg" xmlns:xlink="http://www.w3.org/1999/xlink">
    <!-- Generator: Sketch 43.2 (39069) - http://www.bohemiancoding.com/sketch -->
    <title>mobile_ui_ux</title>
    <desc>Created with Sketch.</desc>
    <defs>
        <rect id="path-1" x="1329.27825" y="463.901452" width="10.3936817" height="3.99896266" rx="1.99948133"></rect>
        <rect id="path-2" x="1336.47388" y="466.30083" width="15.9902795" height="3.99896266" rx="1.99948133"></rect>
        <rect id="path-3" x="1342.86999" y="469.5" width="23.9854192" height="3.99896266" rx="1.99948133"></rect>
    </defs>
    <g id="Page-1" stroke="none" stroke-width="1" fill="none" fill-rule="evenodd">
        <g id="Group">
            <g id="mobile_ui_ux">
                <rect id="bg" fill="#222222" x="0" y="0" width="1700" height="860"></rect>
                <path d="M1035.42861,403.067389 C1043.08553,398.645129 1053.90852,398.88072 1053.90852,398.88072 L1398.14788,398.718739 C1398.14788,398.718739 1406.48723,398.275948 1410.23839,404.775412 C1413.78294,410.916887 1409.15542,419.204136 1409.15542,419.204136 L1236.84487,717.498828 C1236.84487,717.498828 1232.72156,724.880468 1223.01127,730.48866 C1213.59959,735.924388 1206.41827,735.600971 1206.41827,735.600971 L864.110605,735.559919 C864.110605,735.559919 851.248749,735.704701 847.749483,729.641681 C843.610407,722.470094 850.492525,711.964494 850.492525,711.964494 L1020.06269,417.865478 C1020.06269,417.865478 1025.35113,408.887652 1035.42861,403.067389 Z" id="base" stroke="#E0E0E0" stroke-width="0.8" transform="translate(1128.999786, 567.158500) rotate(30.000000) translate(-1128.999786, -567.158500) "></path>
                <path d="M1128.49502,420.270321 C1103.41542,405.572371 1087.41707,396.134863 1087.56101,396.061382 L1128.84003,420.069663 L1170.25778,395.981143 C1170.44865,395.870136 1170.69333,395.934928 1170.65964,396.672569 C1170.65964,396.672569 1154.643,405.977944 1129.60716,420.515833 L1170.94201,444.556584 L1211.83251,420.774712 C1212.02337,420.663705 1212.26806,420.728497 1212.23436,421.466138 C1212.23436,421.466138 1196.44256,430.640892 1171.70955,445.002996 L1380.98817,566.72149 L1422.9042,542.343177 C1423.09506,542.232169 1423.33975,542.296961 1423.30605,543.034603 C1423.30605,543.034603 1407.07654,552.463655 1381.75491,567.167432 L1423.44568,591.415192 C1423.63655,591.5262 1423.70131,591.770971 1423.04382,592.106614 C1423.04382,592.106614 1406.59762,582.53121 1380.98792,567.612805 C1369.0307,574.556087 1355.09071,582.649626 1339.9035,591.46529 L1381.07144,615.408968 C1381.26231,615.519976 1381.32707,615.764747 1380.66958,616.10039 C1380.66958,616.10039 1364.44677,606.655045 1339.13596,591.910821 C1326.0942,599.481072 1312.14684,607.575636 1297.75583,615.925626 L1339.49672,640.202536 C1339.68758,640.313545 1339.75235,640.558315 1339.09486,640.893959 C1339.09486,640.893959 1322.62708,631.305995 1296.98857,616.3708 C1283.542,624.172739 1269.71609,632.193035 1255.88647,640.213051 L1297.12247,664.196312 C1297.31334,664.307321 1297.37811,664.552091 1296.72062,664.887735 C1296.72062,664.887735 1280.46858,655.425378 1255.11862,640.658339 C1241.27301,648.687541 1227.43065,656.712408 1213.96847,664.513545 L1255.21318,688.501874 C1255.40405,688.612883 1255.46881,688.857654 1254.81132,689.193297 C1254.81132,689.193297 1238.55544,679.728703 1213.20034,664.958662 C1198.80691,673.299306 1184.85724,681.378856 1171.81354,688.928293 L1213.17351,712.983656 C1213.36437,713.094665 1213.42914,713.339436 1212.77165,713.675079 C1212.77165,713.675079 1196.46633,704.181702 1171.04503,689.373084 C1155.6881,698.261101 1141.60655,706.40288 1129.56091,713.355752 L1170.84269,737.412409 C1171.03346,737.52358 1171.09802,737.768405 1170.44024,738.103492 C1170.44024,738.103492 1154.16734,728.610535 1128.79168,713.79974 C1103.69764,728.283052 1087.64039,737.489312 1087.64776,737.327955 L1128.44751,713.598862 C1076.2457,683.130577 985.905785,630.381693 919.247767,591.349428 C893.279536,606.339799 876.568552,615.924098 876.576072,615.75949 L918.898416,591.144861 C903.51016,582.133993 889.392916,573.859316 877.310104,566.765363 C851.54921,581.635468 834.993861,591.129762 835.001346,590.965922 L876.962571,566.561319 C851.390358,551.54703 835.023157,541.875119 835.168851,541.800899 L877.310776,566.358803 L918.844277,542.202964 C893.407833,527.296906 877.14371,517.703933 877.288837,517.629847 L919.19165,542.000932 L960.910975,517.737018 C935.459027,502.821919 919.183332,493.222177 919.328511,493.148065 L961.25845,517.534927 L1002.76131,493.396908 C977.34319,478.501534 961.092738,468.916558 961.237804,468.842502 L1003.10856,493.194946 L1044.57798,469.076378 C1019.48003,454.367727 1003.46804,444.922239 1003.61204,444.848726 L1044.92312,468.875649 L1086.67835,444.590851 C1061.27855,429.706163 1045.04177,420.129182 1045.18677,420.055158 L1087.02548,444.38896 L1128.49502,420.270321 Z M1129.25897,420.718019 C1117.22948,427.703323 1103.13892,435.884341 1087.75584,444.813745 L1129.12746,468.875881 L1170.47054,444.83079 C1155.2122,435.913029 1141.22489,427.730079 1129.25897,420.718019 Z M1171.23585,445.278069 C1159.25585,452.234653 1145.20738,460.391268 1129.85833,469.300964 L1339.17362,591.040787 L1380.2224,567.166864 C1327.74808,536.598823 1237.63983,484.08682 1171.23585,445.278069 Z M1338.40741,591.486418 C1286.15259,561.046391 1195.97376,508.493687 1129.38327,469.576721 C1116.27354,477.186518 1102.22409,485.34043 1087.71087,493.761425 L1297.07126,615.527476 L1338.40741,591.486418 Z M1128.65463,469.150878 C1113.40044,460.23574 1099.40237,452.046761 1087.40563,445.017032 C1074.252,452.652284 1060.16,460.830853 1045.60827,469.274142 L1087.02509,493.36257 L1128.65463,469.150878 Z M1045.26014,469.476138 C1031.68676,477.351733 1017.71711,485.455488 1003.73905,493.561643 L1045.21054,517.681867 L1086.55354,493.636821 C1071.26157,484.699411 1057.24541,476.499578 1045.26014,469.476138 Z M1087.2371,494.036319 C1073.70836,501.886048 1059.78168,509.96492 1045.84179,518.049007 L1255.25671,639.846773 L1296.30546,615.972865 C1243.82268,585.3999 1153.65933,532.855811 1087.2371,494.036319 Z M1254.49047,640.292419 C1202.22279,609.844908 1111.97732,557.253391 1045.36667,518.324539 C1031.43328,526.404798 1017.49106,534.487726 1003.92416,542.349721 L1213.40659,664.186754 L1254.49047,640.292419 Z M1044.73763,517.95691 C1029.44231,509.017742 1015.40908,500.808184 1003.38893,493.764686 C989.408853,501.871973 975.423611,509.979776 961.821228,517.862244 L1003.36043,542.021848 L1044.73763,517.95691 Z M961.471008,518.065193 C946.936853,526.487552 932.844036,534.650183 919.6666,542.277168 L961.293626,566.487853 L1002.88737,542.296974 C987.565469,533.342289 973.508531,525.118878 961.471008,518.065193 Z M1003.44889,542.625139 C988.966433,551.017611 974.917348,559.155017 961.769849,566.76483 L1171.33979,688.65276 L1212.6403,664.632428 C1160.37936,634.188856 1070.08549,581.569168 1003.44889,542.625139 Z M1170.57353,689.09842 C1118.27849,658.63498 1027.9307,605.983849 961.294569,567.03992 C945.947946,575.922431 931.841548,584.079207 919.723748,591.074657 L1129.21356,713.153334 L1170.57353,689.09842 Z M960.82064,566.762941 C945.460543,557.785926 931.372421,549.544238 919.3166,542.479744 C903.919881,551.39111 889.781671,559.566063 877.660928,566.562851 L919.371783,590.869551 L960.82064,566.762941 Z" id="grid" stroke="#E0E0E0" stroke-width="0.5" fill="#E0E0E0" stroke-linecap="round"></path>
                <path d="M805.62981,561.940107 L805.630748,353.950272 C805.630748,353.950272 806.01227,345.251396 810.582743,338.851783 C815.126451,332.489646 824.91333,326.983649 824.91333,326.983649 L1110.7062,160.407562 C1110.7062,160.407562 1116.88619,156.797455 1129.79915,156.797455 C1141.67814,156.797455 1147.37847,160.407562 1147.37847,160.407562 L1436.88314,329.072545 C1436.88314,329.072545 1445.31592,333.99184 1448.15903,338.851783 C1452.81965,346.818527 1452.7671,353.704462 1452.7671,353.704462 L1452.7671,562.773863" id="ordinate" stroke="#E0E0E0" stroke-width="0.8"></path>
                <path d="M1130.04963,378.172745 L1130.04963,156.914339" id="z" stroke="#E0E0E0" stroke-width="0.8"></path>
                <path d="M908.723988,578.006073 C908.723988,578.006073 896.53932,587.899699 896.53932,597.319201 C896.53932,600.920556 896.53932,608.782852 896.53932,618.754287 C896.53932,627.578647 908.723988,635.516024 908.723988,635.516024 L1046.9741,715.334591 C1046.9741,715.334591 1060.95883,722.295128 1080.24201,721.160327 C1099.52518,720.025526 1119.25068,706.998025 1119.25068,706.998025 L1381.54411,553.884835 C1381.54411,553.884835 1394.62794,546.842718 1394.62794,532.860266 C1394.62794,523.502979 1394.62794,522.065275 1394.62794,511.618918 C1394.62794,503.286829 1381.54411,495.604369 1381.54411,495.604369" id="fig_2" stroke="#757575" stroke-width="3.2" fill="#9E9E9E" stroke-linecap="round"></path>
                <path d="M910.874894,578.693873 C910.874894,578.693873 897.285172,586.721972 897.940873,595.402991 C898.378458,601.196302 898.475767,603.42875 900.042282,606.263436 C902.702967,611.078076 908.386722,614.395505 908.386722,614.395505 L1041.10346,691.828008 C1041.10346,691.828008 1055.22016,700.842987 1072.6718,700.842987 C1095.23025,700.842987 1110.38713,691.828008 1110.38713,691.828008 L1380.55101,534.04412 C1380.55101,534.04412 1385.95184,531.100769 1389.92601,524.789362 C1392.88163,520.095527 1392.82072,517.80372 1392.82072,511.045573 C1392.82072,504.43711 1380.55101,496.305874 1380.55101,496.305874" id="fig_3" stroke="#757575" stroke-width="0.8" fill="#D8D8D8" stroke-linecap="round"></path>
                <path d="M920.22822,584.763353 C920.22822,584.763353 908.756212,591.587569 908.080096,596.981647 C907.474746,601.811156 913.873329,605.681805 913.873329,605.681805 L1046.42567,683.029258 C1046.42567,683.029258 1058.95536,690.69389 1073.86837,690.69389 C1090.53638,690.69389 1105.74552,682.41337 1105.74552,682.41337 L1372.21515,526.982775 C1372.21515,526.982775 1384.02045,520.671439 1383.38301,514.457167 C1382.74556,508.242895 1371.54317,503.269404 1371.54317,503.269404 L920.22822,584.763353 Z" id="fig_4" stroke="#757575" stroke-width="0.8" fill="#424242" stroke-linecap="round"></path>
                <path d="M919.378119,608.883872 L939.588614,597.050651" id="fig_5" stroke="#757575" stroke-width="0.8" stroke-linecap="round"></path>
                <path d="M1372.09051,527.027834 L1351.52195,514.920067" id="fig_6" stroke="#757575" stroke-width="0.8" stroke-linecap="round"></path>
                <path d="M1247.58579,370.624158 C1243.72347,368.734271 1234.49642,362.995745 1217.19444,362.995745 C1198.72799,362.995745 1186.2005,369.003616 1183.4364,370.624158 C1177.2723,374.23806 919.81,524.04662 919.81,524.04662 C919.81,524.04662 897.351696,535.300463 897.351696,547.581721 C897.351696,551.183076 897.351696,550.963595 897.351696,560.93503 C897.351696,569.978586 908.723988,577.131169 908.723988,577.131169 C908.723988,577.131169 1026.28205,644.995377 1046.9741,656.949736 C1051.78437,659.728763 1063.87108,663.155677 1080.25375,662.39813 C1096.63643,661.640582 1105.93311,656.3792 1119.25068,648.61317 C1140.54448,636.195861 1371.14363,501.573808 1381.54411,495.499981 C1385.81248,493.007276 1393.99671,485.297106 1393.99671,473.825546 C1393.99671,464.468259 1393.99671,476.48942 1393.99671,466.043062 C1393.99671,455.671407 1383.64901,449.41939 1376.88537,445.543995 C1362.29367,437.18332 1264.27544,378.790655 1247.58579,370.624158 Z" id="fig_7" stroke="#0091EA" stroke-width="3.2" fill="#40C4FF" stroke-linecap="round"></path>
                <path d="M899.093181,546.209451 C899.093181,552.008187 898.891451,554.41573 900.408946,557.254267 C903.371707,562.796233 908.386722,565.608161 908.386722,565.608161 L1041.10346,643.040663 C1041.10346,643.040663 1056.13521,652.597903 1072.73997,652.597903 C1093.90257,652.597903 1110.38713,643.040663 1110.38713,643.040663 L1380.55101,485.256776 C1380.55101,485.256776 1385.95184,482.313425 1389.92601,476.002018 C1392.88163,471.308183 1392.67924,466.266316 1391.68568,461.470649 C1390.43526,455.43522 1376.54508,447.14537 1376.54508,447.14537 C1376.54508,447.14537 1310.83774,407.908343 1243.78768,370.225629 C1237.43667,366.656309 1229.94904,364.413855 1214.09829,364.413855 C1198.24754,364.413855 1181.37314,373.19149 1181.37314,373.19149 L919.627005,525.70136 C919.627005,525.70136 899.093181,537.45531 899.093181,546.209451 Z" id="fig_8" stroke="#0091EA" stroke-width="0.8" fill="#FAFAFA" stroke-linecap="round"></path>
                <g id="fig_9" transform="translate(1334.475091, 465.900934) rotate(-30.000000) translate(-1334.475091, -465.900934) ">
                    <use fill="#FF5252" fill-rule="evenodd" xlink:href="#path-1"></use>
                    <rect stroke="#FF5252" stroke-width="0.8" x="1329.67825" y="464.301452" width="9.59368165" height="3.19896266" rx="1.59948133"></rect>
                </g>
                <g id="fig_10" transform="translate(1344.469016, 468.300311) rotate(-30.000000) translate(-1344.469016, -468.300311) ">
                    <use fill="#FF5252" fill-rule="evenodd" xlink:href="#path-2"></use>
                    <rect stroke="#FF5252" stroke-width="0.8" x="1336.87388" y="466.70083" width="15.1902795" height="3.19896266" rx="1.59948133"></rect>
                </g>
                <g id="fig_11" transform="translate(1354.862697, 471.499481) rotate(-30.000000) translate(-1354.862697, -471.499481) ">
                    <use fill="#FF5252" fill-rule="evenodd" xlink:href="#path-3"></use>
                    <rect stroke="#FF5252" stroke-width="0.8" x="1343.26999" y="469.9" width="23.1854192" height="3.19896266" rx="1.59948133"></rect>
                </g>
                <ellipse id="fig_12" stroke="#757575" stroke-width="0.8" cx="1204.15431" cy="473.698911" rx="58.764277" ry="34.591027"></ellipse>
                <ellipse id="fig_13" stroke="#757575" stroke-width="0.8" fill="#757575" cx="1204.15431" cy="473.498963" rx="8.39489672" ry="4.39885892"></ellipse>
                <path d="M1204.15431,472.299274 L1204.15431,347.487999" id="fig_14" stroke="#757575" stroke-width="0.8" stroke-linecap="round"></path>
                <path d="M1066.69223,370.049664 C1066.69223,359.470893 1077.14288,348.763313 1086.31863,343.427482 C1095.49438,338.09165 1114.09883,327.273375 1146.12675,308.593471 C1165.65369,297.204613 1183.94605,286.34751 1204.65568,286.34751 C1223.1943,286.34751 1238.56129,295.327786 1261.64993,308.593471 C1292.34719,326.230726 1294.26033,327.348542 1322.16441,343.427482 C1339.89004,353.64138 1341.79796,359.157737 1341.79796,370.049664 C1341.79796,384.52768 1322.16441,394.975741 1322.16441,394.975741 C1322.16441,394.975741 1280.48944,418.884709 1261.64993,429.123765 C1238.16053,441.889974 1224.16721,450.986641 1204.24509,450.986641 C1182.23786,450.986641 1172.60146,443.660784 1146.12675,429.123765 C1115.55326,412.33614 1112.38221,410.587904 1086.31863,396.255933 C1071.80152,388.273193 1066.69223,383.757604 1066.69223,370.049664 Z M1095.8146,369.063793 C1095.8146,372.151473 1105.44501,377.008599 1116.07725,382.862608 C1135.16607,393.37272 1142.5783,398.733985 1164.97015,411.04491 C1184.36008,421.705391 1189.21492,425.604735 1205.41996,425.604735 C1218.14563,425.604735 1225.83407,420.406797 1243.03757,411.04491 C1256.83553,403.536269 1264.33195,398.430447 1286.17825,386.202309 C1293.44916,382.132523 1312.72485,371.969651 1312.72485,369.063793 C1312.72485,368.358609 1305.46683,364.146756 1287.90466,354.011015 C1267.47117,342.218141 1272.15299,345.183876 1249.67049,332.249888 C1232.7605,322.521719 1218.99754,315.405403 1205.41996,315.405403 C1190.25235,315.405403 1179.27157,320.008869 1164.97015,328.360698 C1141.51309,342.059294 1127.33632,350.098072 1120.61605,354.011015 C1113.89578,357.923958 1095.8146,367.857466 1095.8146,369.063793 Z" id="fig_15" stroke="#757575" stroke-width="3.2" fill="#BDBDBD" stroke-linecap="round"></path>
                <path d="M1340.43604,365.074832 C1339.75187,377.179758 1315.20272,391.022199 1315.20272,391.022199 L1251.78352,427.292197 C1251.78352,427.292197 1225.25941,443.832067 1203.91513,443.832067 C1186.07935,443.832067 1173.55962,436.825106 1148.87868,422.884747 C1121.57262,407.461656 1116.9845,404.830797 1092.28465,391.022199 C1078.63078,383.388918 1068.10345,378.130012 1068.10345,365.074832 C1068.10345,365.074832 1067.83718,354.677707 1088.03901,342.438289 C1121.65372,322.072587 1203.91513,274.671539 1203.91513,274.671539 C1203.91513,274.671539 1271.94211,314.01429 1330.84898,348.445166 C1341.68577,354.779234 1340.43604,365.074832 1340.43604,365.074832 Z M1093.09439,367.573114 C1093.09439,373.106392 1105.44501,378.608184 1116.07725,384.462193 C1135.16607,394.972305 1142.5783,400.33357 1164.97015,412.644495 C1184.36008,423.304976 1189.21492,427.20432 1205.41996,427.20432 C1218.14563,427.20432 1225.83407,422.006382 1243.03757,412.644495 C1256.83553,405.135854 1264.33195,400.030033 1286.17825,387.801894 C1293.44916,383.732109 1314.98459,373.223438 1314.98459,365.915495 C1314.98459,359.840635 1309.72625,358.712993 1292.16407,348.577252 C1271.73058,336.784378 1274.13325,338.481688 1251.65075,325.5477 C1234.74076,315.819531 1214.87288,307.941909 1201.2953,307.941909 C1186.12769,307.941909 1172.73046,315.903784 1158.42904,324.255613 C1134.97198,337.95421 1120.96843,345.679341 1114.24817,349.592284 C1107.5279,353.505227 1093.09439,359.659219 1093.09439,367.573114 Z" id="Combined-Shape" stroke="#757575" stroke-width="0.8" fill="#FAFAFA" stroke-linecap="round"></path>
                <path d="M1116.45621,598.645206 C1120.18467,600.509666 1119.74304,607.693393 1116.45621,609.615871 C1105.01557,616.307551 1099.29435,619.656703 1092.21551,623.746286 C1088.71783,625.766965 1084.05731,625.108793 1082.28466,624.077726 C1044.91957,602.344228 963.826871,554.948074 940.917571,541.551732 C938.484574,540.129023 939.514795,534.535253 939.514795,534.535253 L1116.45621,598.645206 Z" id="fig_18" stroke="#757575" stroke-width="0.8" fill="#BDBDBD" stroke-linecap="round"></path>
                <path d="M940.922393,531.871971 C954.651849,523.842532 954.833354,523.737652 965.448727,517.542875 C967.381192,516.415153 973.255095,515.103562 976.933466,517.249387 C1047.8951,558.645772 1102.33064,590.40204 1116.65602,598.75233 C1119.2294,600.25236 1119.80808,603.73972 1116.65602,605.579608 C1105.18765,612.27381 1099.47509,615.63732 1092.38839,619.733778 C1088.88683,621.757853 1084.22114,621.098575 1082.44652,620.065775 C1045.03992,598.29574 964.468391,551.168036 940.922393,537.401045 C939.156088,536.368313 938.947754,533.026806 940.922393,531.871971 Z" id="fig_19" stroke="#757575" stroke-width="0.8" fill="#FFFFFF" stroke-linecap="round"></path>
                <path d="M1054.50956,592.602089 C1061.18649,596.563194 1068.26309,600.762813 1076.33826,605.539858 C1088.00349,612.440683 1107.06831,601.541828 1095.76012,594.944131 C1085.47884,588.945578 1083.41035,587.794839 1073.11534,581.933919 C1061.69003,575.42952 1043.77676,586.234821 1054.50956,592.602089 Z" id="fig_20" stroke="#757575" stroke-width="0.8" fill="#FFFFFF"></path>
                <path d="M1085.62637,604.664938 C1091.03547,604.664938 1095.42041,602.247902 1095.42041,599.266338 C1095.42041,597.856379 1095.42041,593.867739 1095.42041,593.867739 L1075.83232,593.867739 L1075.83232,599.266338 C1075.83232,602.247902 1080.21726,604.664938 1085.62637,604.664938 Z" id="fig_21" stroke="#00BFA5" stroke-width="0.8" fill="#1DE9B6"></path>
                <ellipse id="fig_22" stroke="#00BFA5" stroke-width="0.8" fill="#64FFDA" cx="1085.62637" cy="593.66779" rx="9.79404617" ry="5.39859959"></ellipse>
                <path d="M1168.37507,542.50523 L1168.37507,571.113035 C1168.37507,574.345518 1168.60639,578.678164 1165.90531,580.247164 C1154.82055,586.686057 1148.7353,590.229953 1141.64769,594.295319 C1138.13943,596.30761 1133.47082,595.51647 1131.69817,594.485403 C1095.79346,573.601339 993.2778,513.68241 993.2778,513.68241 C993.2778,513.68241 989.118281,511.092504 989.118281,507.374125 L989.118281,474.355477" id="fig_23" stroke="#757575" stroke-width="0.8" fill="#BDBDBD" stroke-linecap="round"></path>
                <path d="M990.49226,471.887531 C1004.22171,463.858092 1004.40322,463.753212 1015.01859,457.558436 C1016.95106,456.430713 1022.82496,455.119122 1026.50333,457.264947 C1097.46497,498.661332 1151.90051,530.4176 1166.22589,538.76789 C1168.79927,540.26792 1169.37795,543.75528 1166.22589,545.595168 C1154.75751,552.28937 1149.04496,555.65288 1141.95826,559.749338 C1138.4567,561.773413 1133.791,561.114135 1132.01638,560.081335 C1094.60979,538.311301 1014.03826,491.183596 990.49226,477.416605 C988.725954,476.383873 988.51762,473.042366 990.49226,471.887531 Z" id="fig_24" stroke="#757575" stroke-width="0.8" fill="#FFFFFF" stroke-linecap="round"></path>
                <ellipse id="fig_25" stroke="#757575" stroke-width="0.8" fill="#757575" stroke-linecap="round" cx="1139.39368" cy="542.28112" rx="4.39732685" ry="2.39937759"></ellipse>
                <ellipse id="fig_26" stroke="#757575" stroke-width="0.8" fill="#757575" stroke-linecap="round" cx="1019.86634" cy="477.897822" rx="4.39732685" ry="2.39937759"></ellipse>
                <path d="M1019.46659,477.897822 L1019.88961,436.426618" id="fig_27" stroke="#757575" stroke-width="0.8" stroke-linecap="round"></path>
                <path d="M1166.02608,476.276949 C1169.75454,478.141409 1169.3129,485.325136 1166.02608,487.247614 C1154.58543,493.939293 1148.86421,497.288446 1141.78538,501.378029 C1138.2877,503.398707 1133.62718,502.740536 1131.85453,501.709469 C1094.48944,479.975971 1013.39674,432.579817 990.487437,419.183475 C988.05444,417.760766 989.084662,412.166996 989.084662,412.166996" id="fig_28" stroke="#0091EA" stroke-width="0.8" fill="#40C4FF" stroke-linecap="round"></path>
                <path d="M990.49226,409.503714 C1004.22171,401.474275 1004.40322,401.369395 1015.01859,395.174618 C1016.95106,394.046896 1022.82496,392.735305 1026.50333,394.881129 C1097.46497,436.277515 1151.90051,468.033783 1166.22589,476.384073 C1168.79927,477.884103 1169.37795,481.371463 1166.22589,483.211351 C1154.75751,489.905553 1149.04496,493.269063 1141.95826,497.36552 C1138.4567,499.389596 1133.791,498.730318 1132.01638,497.697518 C1094.60979,475.927483 1014.03826,428.799779 990.49226,415.032788 C988.725954,414.000056 988.51762,410.658548 990.49226,409.503714 Z" id="fig_29" stroke="#0091EA" stroke-width="0.8" fill="#80D8FF" stroke-linecap="round"></path>
                <path d="M1139.39368,541.881224 L1139.39368,502.69139" id="fig_30" stroke="#757575" stroke-width="0.8" stroke-linecap="round"></path>
                <path d="M999.83036,412.083105 C999.83036,410.595088 1002.14993,409.235025 1003.43975,408.484484 C1004.72957,407.733942 1007.34477,406.212237 1011.84689,403.58471 C1014.59177,401.982747 1017.1631,400.45558 1020.07422,400.45558 C1022.68017,400.45558 1024.84029,401.718751 1028.08583,403.58471 C1032.4009,406.065577 1032.66983,406.22281 1036.59226,408.484484 C1039.08393,409.921177 1039.85096,410.699463 1039.71194,412.229176 C1039.51589,414.386419 1036.59226,415.915366 1036.59226,415.915366 C1036.59226,415.915366 1030.73407,419.098343 1028.08583,420.538575 C1024.78396,422.334277 1021.47989,424.080434 1020.07422,424.080434 C1017.85846,424.080434 1015.56841,422.583361 1011.84689,420.538575 C1007.54922,418.177217 1007.10347,417.931309 1003.43975,415.915366 C1001.3991,414.792508 999.83036,414.011272 999.83036,412.083105 Z" id="fig_31" stroke="#0091EA" stroke-width="0.8" stroke-linecap="round" stroke-dasharray="1.2,1.6"></path>
                <path d="M1020.13973,411.906677 L1020.61685,365.132945" id="fig_32" stroke="#0091EA" stroke-width="0.8" stroke-linecap="round"></path>
                <ellipse id="fig_33" stroke="#0091EA" stroke-width="0.8" fill="#0091EA" stroke-linecap="round" cx="1019.86634" cy="411.914938" rx="4.39732685" ry="2.39937759"></ellipse>
                <path d="M999.83036,353.160719 L999.83036,349.793366 L1039.71194,349.205021 C1039.71194,349.205021 1039.85096,351.777078 1039.71194,353.306791 C1039.51589,355.464034 1036.59226,356.99298 1036.59226,356.99298 C1036.59226,356.99298 1030.73407,360.175958 1028.08583,361.61619 C1024.78396,363.411892 1021.47989,365.158049 1020.07422,365.158049 C1017.85846,365.158049 1015.56841,363.660975 1011.84689,361.61619 C1007.54922,359.254832 1007.10347,359.008924 1003.43975,356.99298 C1001.3991,355.870123 999.83036,355.088887 999.83036,353.160719 Z" id="fig_34" stroke="#D50000" stroke-width="0.8" fill="#FF5252" stroke-linecap="round"></path>
                <path d="M999.83036,349.561653 C999.83036,348.073637 1002.14993,346.713573 1003.43975,345.963032 C1004.72957,345.212491 1007.34477,343.690786 1011.84689,341.063259 C1014.59177,339.461295 1017.1631,337.934129 1020.07422,337.934129 C1022.68017,337.934129 1024.84029,339.1973 1028.08583,341.063259 C1032.4009,343.544126 1032.66983,343.701359 1036.59226,345.963032 C1039.08393,347.399725 1039.85096,348.178012 1039.71194,349.707724 C1039.51589,351.864968 1036.59226,353.393914 1036.59226,353.393914 C1036.59226,353.393914 1030.73407,356.576891 1028.08583,358.017123 C1024.78396,359.812826 1021.47989,361.558982 1020.07422,361.558982 C1017.85846,361.558982 1015.56841,360.061909 1011.84689,358.017123 C1007.54922,355.655766 1007.10347,355.409858 1003.43975,353.393914 C1001.3991,352.271057 999.83036,351.48982 999.83036,349.561653 Z" id="fig_35" stroke="#D50000" stroke-width="0.8" fill="#FF8A80" stroke-linecap="round"></path>
                <path d="M1110.97862,298.089514 L1110.97862,291.386393 L1297.21265,289.327087 C1297.21265,289.327087 1297.82483,291.340712 1297.21265,298.089514 C1296.34933,307.606865 1277.6913,316.707554 1277.6913,316.707554 C1277.6913,316.707554 1251.8944,330.750248 1240.23269,337.104278 C1225.6927,345.026579 1216.22124,349.152848 1204.23168,349.152848 C1194.47479,349.152848 1185.11147,346.125487 1168.72356,337.104278 C1149.7985,326.686415 1147.83561,325.601516 1131.70219,316.707554 C1122.71607,311.753721 1110.97862,306.596223 1110.97862,298.089514 Z" id="fig_36" stroke="#0091EA" stroke-width="0.8" fill="#40C4FF" stroke-linecap="round"></path>
                <path d="M1110.87374,289.764875 C1110.87374,280.45992 1119.22031,276.965248 1131.72057,269.696216 C1144.22084,262.427185 1148.93647,259.696055 1168.78476,248.132305 C1180.88596,241.082059 1192.11898,235.442689 1204.95311,235.442689 C1216.46351,235.442689 1226.06814,239.920214 1240.37659,248.132305 C1259.40024,259.050606 1260.58585,259.742587 1277.87852,269.696216 C1288.86342,276.019106 1297.7962,281.5943 1297.04032,289.764875 C1296.13185,299.584717 1292.74827,300.800451 1277.87852,309.360835 C1259.12544,320.156821 1252.05178,324.307604 1240.37659,330.646067 C1225.81978,338.548958 1218.46247,342.991607 1204.95311,342.991607 C1188.74703,342.991607 1185.19162,339.645174 1168.78476,330.646067 C1149.83781,320.253727 1147.87265,318.233007 1131.72057,309.360835 C1122.72406,304.419139 1110.87374,298.250742 1110.87374,289.764875 Z" id="fig_37" stroke="#0091EA" stroke-width="0.8" fill="#80D8FF" stroke-linecap="round"></path>
                <ellipse id="fig_38" stroke="#0091EA" stroke-width="0.8" fill="#0091EA" cx="1204.15431" cy="286.34751" rx="7.59538275" ry="3.99896266"></ellipse>
                <path d="M1204.15431,286.237172 L1204.15431,226.44992" id="fig_39" stroke="#0091EA" stroke-width="0.8" stroke-linecap="round"></path>
                <path d="M1147.78858,193.480169 L1147.78858,187.208102 L1260.34567,187.208102 C1260.34567,187.208102 1260.73802,189.595574 1260.34567,193.890267 C1259.79236,199.946763 1251.54105,204.239303 1251.54105,204.239303 C1251.54105,204.239303 1235.00758,213.175563 1227.53348,217.219037 C1218.21467,222.260501 1208.88966,227.162863 1204.92248,227.162863 C1198.66896,227.162863 1192.20579,222.959806 1181.70263,217.219037 C1169.57338,210.589488 1168.31535,209.899097 1157.9753,204.239303 C1152.21601,201.086864 1147.78858,198.893529 1147.78858,193.480169 Z" id="fig_40" stroke="#00BFA5" stroke-width="0.8" fill="#64FFDA"></path>
                <path d="M1147.78858,187.053581 C1147.78858,182.872447 1154.34263,179.050846 1157.98708,176.941922 C1161.63153,174.832998 1169.02091,170.557204 1181.74185,163.174194 C1189.49762,158.672883 1196.76304,154.381743 1204.98855,154.381743 C1212.35178,154.381743 1218.45529,157.93109 1227.62571,163.174194 C1239.81814,170.145109 1240.57801,170.586912 1251.66104,176.941922 C1258.70136,180.978844 1260.86865,183.165729 1260.47584,187.464023 C1259.92189,193.525598 1251.66104,197.821738 1251.66104,197.821738 C1251.66104,197.821738 1235.10844,206.765493 1227.62571,210.812358 C1218.29612,215.85805 1208.96032,220.764523 1204.98855,220.764523 C1198.7278,220.764523 1192.25716,216.557941 1181.74185,210.812358 C1169.59858,204.177249 1168.33909,203.486279 1157.98708,197.821738 C1152.22113,194.666656 1147.78858,192.471481 1147.78858,187.053581 Z" id="fig_41" stroke="#00BFA5" stroke-width="0.8" fill="#A7FFEB"></path>
                <ellipse id="fig_42" stroke="#00BFA5" stroke-width="0.8" fill="#00BFA5" cx="1203.95443" cy="186.573392" rx="5.79647631" ry="3.39911826"></ellipse>
                <path d="M1204.15431,186.720228 L1204.15431,94.7971992" id="fig_43" stroke="#00BFA5" stroke-width="0.8" stroke-linecap="round"></path>
                <ellipse id="fig_44" stroke="#D50000" stroke-width="0.8" fill="#FF8A80" stroke-linecap="round" cx="1203.75456" cy="93.9974066" rx="17.5893074" ry="9.99740664"></ellipse>
                <ellipse id="fig_45" stroke="#D50000" stroke-width="0.8" fill="#D50000" cx="1204.15431" cy="93.9974066" rx="5.19684083" ry="2.79927386"></ellipse>
            </g>
        </g>
    </g>
</svg>