<?xml version="1.0" encoding="UTF-8"?>
<svg viewBox="0 0 500 500" version="1.1" xmlns="http://www.w3.org/2000/svg" xmlns:xlink="http://www.w3.org/1999/xlink">
    <defs>
        <polygon id="path-1" points="0 500 500 500 500 0 0 0"></polygon>
    </defs>
    <g id="Page-1" stroke="none" stroke-width="1" fill="none" fill-rule="evenodd">
        <g id="nodejs-icon">
            <g id="node">
                <mask id="mask-2" fill="white">
                    <use xlink:href="#path-1"></use>
                </mask>
                <use id="f0" fill="#222222" xlink:href="#path-1"></use>
                <path d="M280.359774,161.61921 C304.667326,160.05594 330.689671,160.693064 352.563271,172.657909 C369.498651,181.826752 378.887663,201.069826 379.186513,219.868988 C378.713467,222.404712 376.060572,223.803511 373.637807,223.62946 C366.585261,223.619879 359.531117,223.725268 352.478571,223.581556 C349.486872,223.696525 347.748107,220.940443 347.372546,218.297734 C345.346118,209.302943 340.436664,200.394378 331.96338,196.055864 C318.956203,189.548892 303.874654,189.876237 289.691253,190.011965 C279.336971,190.561265 268.202802,191.457072 259.430668,197.540891 C252.69615,202.149265 250.650544,211.45224 253.054131,218.944439 C255.320279,224.324069 261.535405,226.059794 266.620653,227.659791 C295.91437,235.314864 326.95644,234.553189 355.690811,244.62742 C367.587288,248.734397 379.224868,256.718413 383.296903,269.163896 C388.623469,285.8441 386.288601,305.781783 374.411302,319.172574 C364.779374,330.192112 350.750992,336.189704 336.759367,339.447182 C318.145951,343.59408 298.829358,343.699469 279.926681,341.858355 C262.152283,339.833609 243.65553,335.16775 229.933989,323.067176 C218.200521,312.887557 212.469628,297.026512 213.038563,281.717961 C213.174404,279.132737 215.750589,277.329946 218.229288,277.542321 C225.331376,277.484836 232.433464,277.465675 239.535552,277.551902 C242.372232,277.349108 244.475371,279.798604 244.620801,282.470056 C245.931267,291.040098 249.154694,300.034889 256.633941,305.115917 C271.068248,314.420488 289.179851,313.783364 305.707708,314.043642 C319.400483,313.436857 334.771294,313.253225 345.945417,304.210529 C351.840917,299.052855 353.587673,290.423732 351.994337,283.000194 C350.268357,276.732742 343.706437,273.812189 338.071432,271.902413 C309.153276,262.762312 277.764411,266.078872 249.125928,255.742766 C237.499535,251.637385 226.256693,243.875326 221.78992,231.94082 C215.557215,215.049837 218.413073,194.157266 231.535315,181.21837 C244.329941,168.348138 262.799525,163.391661 280.359774,161.617613 L280.359774,161.61921 Z" id="f1" stroke="#BDBDBD" stroke-width="1.6025641" fill="#BDBDBD" fill-rule="nonzero"></path>
                <path d="M231.591586,29.8008662 C242.739809,23.4141436 257.260361,23.3852952 268.398976,29.8008662 C324.43633,61.4924726 380.491299,93.1343956 436.519045,124.845234 C447.057174,130.786409 454.106079,142.524516 453.998792,154.677719 L453.998792,345.34663 C454.077256,358.003078 446.331787,370.021656 435.213989,375.828205 C379.360784,407.345118 323.536402,438.900496 267.692805,470.417409 C256.313995,476.929141 241.502007,476.427499 230.478685,469.38207 C213.733933,459.666559 196.960357,449.999129 180.214004,440.293234 C176.792034,438.251406 172.934512,436.626277 170.518156,433.305502 C172.654285,430.423864 176.473376,430.064862 179.576688,428.806749 C186.566345,426.582215 192.985941,423.01142 199.407138,419.546402 C201.030852,418.434135 203.013256,418.860451 204.569716,419.855722 C218.888505,428.072717 233.080791,436.528513 247.447619,444.666977 C250.5125,446.43795 253.615812,444.086803 256.235532,442.625149 C311.044692,411.621097 365.921106,380.734041 420.720658,349.720373 C422.751102,348.742731 423.87361,346.58551 423.708677,344.359372 C423.747108,281.461775 423.718284,218.552958 423.727892,155.655361 C423.96008,153.12952 422.499698,150.807221 420.217851,149.773486 C364.558403,118.400815 308.927778,86.9800632 253.277938,55.5993788 C251.304393,54.2414077 248.699746,54.2375871 246.722232,55.5897626 C191.072392,86.9800632 135.451375,118.429663 79.8015345,149.800732 C77.5276941,150.83607 76.001659,153.119904 76.2722781,155.655361 C76.2818859,218.552958 76.2722781,281.461775 76.2722781,344.368988 C76.0746409,346.593619 77.2823293,348.706036 79.2987275,349.662676 C94.1491468,358.091226 109.018782,366.460477 123.878809,374.86018 C132.250384,379.370151 142.529103,382.04985 151.752568,378.594449 C159.891956,375.672744 165.597374,367.359587 165.442048,358.709865 C165.51891,296.179284 165.403617,233.639086 165.499695,171.118121 C165.29633,168.342261 167.927259,166.04881 170.623842,166.310049 C177.759217,166.261968 184.9042,166.213887 192.039575,166.329281 C195.017985,166.261968 197.067644,169.250986 196.699346,172.047682 C196.670523,234.974128 196.776208,297.902176 196.651307,360.828622 C196.670523,377.599178 189.786551,395.847415 174.287607,404.053191 C155.193753,413.953012 131.593853,411.853487 112.730586,402.36075 C96.400569,394.203054 80.8167562,384.575691 64.776574,375.836218 C53.6299524,370.061723 45.9229147,357.995065 46.0013782,345.348232 L46.0013782,154.677719 C45.8844836,142.272893 53.2136155,130.321629 64.0800102,124.466999 C119.923607,92.9244431 175.757597,61.3578466 231.591586,29.8008662 Z" id="f2" stroke="#BDBDBD" stroke-width="1.6025641" fill="#BDBDBD" fill-rule="nonzero"></path>
            </g>
        </g>
    </g>
</svg>