<?xml version="1.0" encoding="UTF-8"?>
<svg viewBox="0 0 500 500" version="1.1" xmlns="http://www.w3.org/2000/svg" xmlns:xlink="http://www.w3.org/1999/xlink">
    <defs>
        <radialGradient cx="32.9351254%" cy="22.4100935%" fx="32.9351254%" fy="22.4100935%" r="0.139277297%" gradientTransform="translate(0.329351,0.224101),scale(0.995146,1.000000),translate(-0.329351,-0.224101)" id="radialGradient-1">
            <stop stop-color="#616161" stop-opacity="0.98" offset="0%"></stop>
            <stop stop-color="#424242" offset="100%"></stop>
        </radialGradient>
    </defs>
    <g id="Page-1" stroke="none" stroke-width="1" fill="none" fill-rule="evenodd">
        <g id="photoshop">
            <rect id="f0_0" fill="#222222" x="0" y="0" width="500" height="500"></rect>
            <polygon id="f0" fill="url(#radialGradient-1)" fill-rule="nonzero" points="44 44 456 44 456 454 44 454"></polygon>
            <path d="M43.7080819,44.1877433 L455.291918,44.1877433 L455.291918,454.811483 L43.7080819,454.811483 L43.7080819,44.1877433 Z M25,474 L474,474 L474,25 L25,25 L25,474 Z M327.700884,209.204811 C312.921024,209.204811 307.870453,216.879753 307.870453,223.211716 C307.870453,230.119242 311.2375,234.916371 331.068685,245.469901 C360.440593,260.053143 369.607953,274.060048 369.607953,294.591545 C369.607953,325.292089 346.783836,341.793873 315.914709,341.793873 C299.638384,341.793873 285.606756,338.339723 277.5625,333.543368 C276.253093,332.967805 276.066034,332.008534 276.066034,330.472926 L276.066034,302.266487 C276.066034,300.347945 277.001325,299.771609 278.311487,300.731654 C290.097662,308.599224 303.56736,312.0526 315.914709,312.0526 C330.694569,312.0526 336.868244,305.720637 336.868244,297.08565 C336.868244,290.178124 332.565151,284.038015 313.669256,274.060048 C287.103222,261.012414 276.066034,247.772925 276.066034,225.706595 C276.066034,200.953532 294.961929,180.422809 327.700884,180.422809 C343.790151,180.422809 355.015151,182.917688 361.188825,185.795501 C362.685291,186.754772 363.059407,188.289606 363.059407,189.632586 L363.059407,215.919709 C363.059407,217.454542 362.124116,218.414587 360.25278,217.838251 C352.021466,212.467106 339.861175,209.204811 327.700884,209.204811 L327.700884,209.204811 Z M166.808966,232.038558 C171.112058,232.422266 174.47986,232.422266 181.962942,232.422266 C203.852522,232.422266 224.431185,224.55547 224.431185,194.04678 C224.431185,169.678199 209.651325,157.397208 184.769569,157.397208 C177.286487,157.397208 170.176767,157.780916 166.808966,157.97277 L166.808966,232.038558 Z M133.508836,130.15004 C133.508836,128.80706 136.128405,127.847016 137.624116,127.847016 C149.598103,127.271453 167.370894,126.887744 185.891918,126.887744 C237.713825,126.887744 257.918373,156.053455 257.918373,193.278589 C257.918373,242.015751 223.49514,262.930956 181.214709,262.930956 C174.105744,262.930956 171.673987,262.547248 166.621907,262.547248 L166.621907,336.229327 C166.621907,337.764161 166.060733,338.531577 164.377209,338.531577 L135.753534,338.531577 C134.257069,338.531577 133.508082,337.956015 133.508082,336.229327 L133.508082,130.15004 L133.508836,130.15004 Z" id="Shape" fill="#BDBDBD" fill-rule="nonzero"></path>
        </g>
    </g>
</svg>