<?xml version="1.0" encoding="UTF-8"?>
<svg viewBox="0 0 775 860" version="1.1" xmlns="http://www.w3.org/2000/svg" xmlns:xlink="http://www.w3.org/1999/xlink">
    <title>Photography</title>
    <desc>Designed By: Atul Meshram</desc>
    <defs></defs>
    <g id="Page-1" stroke="none" stroke-width="1" fill="none" fill-rule="evenodd">
        <g id="photography-bg">
            <g id="Rectangle">
                <g id="path-1-link" fill="#333333">
                    <rect id="path-1" x="0" y="0" width="775" height="860"></rect>
                </g>
                <rect id="Rectangle-path" stroke="#333333" x="0.5" y="0.5" width="774" height="859"></rect>
            </g>
            <g id="camera" transform="translate(223.000000, 304.000000)">
                <rect id="Rectangle-11" fill="#424242" fill-rule="nonzero" x="15.7739726" y="13.5" width="69.8561644" height="20.25"></rect>
                <rect id="Rectangle-12" fill="#616161" fill-rule="nonzero" x="22.5342466" y="18" width="2.25342466" height="11.25"></rect>
                <rect id="Rectangle-12" fill="#616161" fill-rule="nonzero" x="29.2945205" y="18" width="2.25342466" height="11.25"></rect>
                <rect id="Rectangle-12" fill="#616161" fill-rule="nonzero" x="36.0547945" y="18" width="2.25342466" height="11.25"></rect>
                <rect id="Rectangle-12" fill="#616161" fill-rule="nonzero" x="42.8150685" y="18" width="2.25342466" height="11.25"></rect>
                <rect id="Rectangle-12" fill="#616161" fill-rule="nonzero" x="49.5753425" y="18" width="2.25342466" height="11.25"></rect>
                <rect id="Rectangle-12" fill="#616161" fill-rule="nonzero" x="56.3356164" y="18" width="2.25342466" height="11.25"></rect>
                <rect id="Rectangle-12" fill="#616161" fill-rule="nonzero" x="63.0958904" y="18" width="2.25342466" height="11.25"></rect>
                <rect id="Rectangle-12" fill="#616161" fill-rule="nonzero" x="69.8561644" y="18" width="2.25342466" height="11.25"></rect>
                <rect id="Rectangle-12" fill="#616161" fill-rule="nonzero" x="76.6164384" y="18" width="2.25342466" height="11.25"></rect>
                <rect id="Rectangle-2" fill="#424242" fill-rule="nonzero" x="0" y="65.25" width="329" height="186.75"></rect>
                <rect id="Rectangle" fill="#616161" fill-rule="nonzero" x="76.6164384" y="65.25" width="178.020548" height="171"></rect>
                <path d="M81.1232877,22.5 L324.493151,22.5 L324.493151,22.5 C326.982215,22.5 329,24.5147187 329,27 L329,49.5 L76.6164384,49.5 L76.6164384,27 L76.6164384,27 C76.6164384,24.5147187 78.6342236,22.5 81.1232877,22.5 Z" id="Rectangle-10" fill="#1DE9B6" fill-rule="nonzero"></path>
                <path d="M4.50684932,33.75 L324.493151,33.75 L324.493151,33.75 C326.982215,33.75 329,35.7647187 329,38.25 L329,65.25 L0,65.25 L0,38.25 L0,38.25 C-3.04822444e-16,35.7647187 2.01778517,33.75 4.50684932,33.75 Z" id="Rectangle-4" fill="#FF5252" fill-rule="nonzero"></path>
                <rect id="Rectangle-3" fill="#FF8A80" fill-rule="nonzero" x="76.6164384" y="58.5" width="178.020548" height="6.75"></rect>
                <rect id="Rectangle-3" fill="#FF8A80" fill-rule="nonzero" x="76.6164384" y="49.5" width="178.020548" height="6.75"></rect>
                <rect id="Rectangle-3" fill="#FF8A80" fill-rule="nonzero" x="76.6164384" y="40.5" width="178.020548" height="6.75"></rect>
                <rect id="Rectangle-5" fill="#29B6F6" fill-rule="nonzero" x="126.191781" y="0" width="76.6164384" height="76.5"></rect>
                <rect id="Rectangle-6" fill="#40C4FF" fill-rule="nonzero" x="130.69863" y="4.5" width="67.6027397" height="67.5"></rect>
                <rect id="Rectangle-7" fill="#424242" fill-rule="nonzero" x="141.965753" y="9" width="47.3219178" height="47.25"></rect>
                <g id="Rectangle-8" transform="translate(155.035616, 22.500000)">
                    <g id="path-2-link" fill-rule="nonzero" fill="#000000">
                        <rect id="path-2" x="0.450684932" y="0" width="20.2808219" height="20.25"></rect>
                    </g>
                    <g id="path-2-link" fill="#616161">
                        <rect id="path-2" x="0.450684932" y="0" width="20.2808219" height="20.25"></rect>
                    </g>
                </g>
                <rect id="Rectangle-9" fill="#29B6F6" fill-rule="nonzero" x="135.205479" y="65.25" width="58.5890411" height="2.25"></rect>
                <rect id="Rectangle-9" fill="#29B6F6" fill-rule="nonzero" x="137.458904" y="60.75" width="54.0821918" height="1.6875"></rect>
                <rect id="Rectangle-9" fill="#29B6F6" fill-rule="nonzero" x="139.712329" y="57.9375" width="49.5753425" height="1.125"></rect>
                <g id="Oval-3" transform="translate(159.542466, 27.000000)">
                    <g id="path-4-link" fill-rule="nonzero" fill="#000000">
                        <ellipse id="path-4" cx="6.08424658" cy="5.625" rx="5.63356164" ry="5.625"></ellipse>
                    </g>
                    <g id="path-4-link" fill="#FAFAFA">
                        <ellipse id="path-4" cx="6.08424658" cy="5.625" rx="5.63356164" ry="5.625"></ellipse>
                    </g>
                </g>
                <ellipse id="Oval" fill="#757575" fill-rule="nonzero" cx="164.5" cy="157.5" rx="69.8561644" ry="69.75"></ellipse>
                <ellipse id="Oval" fill="#E0E0E0" fill-rule="nonzero" cx="164.5" cy="157.5" rx="63.0958904" ry="63"></ellipse>
                <ellipse id="Oval" fill="#9E9E9E" fill-rule="nonzero" cx="164.5" cy="157.5" rx="56.3356164" ry="56.25"></ellipse>
                <ellipse id="Oval" fill="#757575" fill-rule="nonzero" cx="164.5" cy="157.5" rx="38.3082192" ry="38.25"></ellipse>
                <ellipse id="Oval" fill="#D8D8D8" fill-rule="nonzero" cx="164.5" cy="157.5" rx="22.5342466" ry="22.5"></ellipse>
                <ellipse id="Oval" fill="#616161" fill-rule="nonzero" cx="164.5" cy="157.5" rx="11.2671233" ry="11.25"></ellipse>
                <ellipse id="Oval-2" fill="#D8D8D8" fill-rule="nonzero" cx="105.910959" cy="99" rx="9.01369863" ry="9"></ellipse>
            </g>
        </g>
    </g>
</svg>