<?xml version="1.0" encoding="UTF-8"?>
<svg viewBox="0 0 500 500" version="1.1" xmlns="http://www.w3.org/2000/svg" xmlns:xlink="http://www.w3.org/1999/xlink">
    <g id="Page-1" stroke="none" stroke-width="1" fill="none" fill-rule="evenodd">
        <g id="Sketch">
            <rect id="f0" fill="#222222" x="0" y="0" width="500" height="500"></rect>
            <polygon id="f1" fill="#F5F5F5" points="111.722233 41.5202697 250.0612 27 388.153671 41.4973243 495 185.954486 250.22931 473 5 185.966335"></polygon>
            <polygon id="f2" fill="#424242" transform="translate(373.769547, 329.661026) scale(-1, 1) translate(-373.769547, -329.661026) " points="250.1642 185.734741 350.493298 186.021363 497.374893 473.587311"></polygon>
            <polygon id="f3" fill="#424242" points="2.49330139 185.759323 103.055802 186.007087 250.16597 473.586121"></polygon>
            <polygon id="f4" fill="#9E9E9E" points="391.100607 185.812268 250.166122 473.589005 108.320129 185.939938"></polygon>
            <polygon id="f5" fill="#BDBDBD" points="250 29 388 182 112 182"></polygon>
            <polygon id="f6" fill="#616161" transform="translate(56.389800, 113.333854) scale(-1, 1) translate(-56.389800, -113.333854) " points="2.49655151 40.9111469 9.92024039 182.313278 110.283049 185.756561"></polygon>
            <polygon id="f7" fill="#616161" points="389.466125 40.8888855 397.02568 182.313278 497.368149 185.730072"></polygon>
            <polygon id="f8" fill="#757575" points="389.463837 40.8834076 391.984306 179.99401 249.996979 26.3478546"></polygon>
            <polygon id="f9" fill="#757575" transform="translate(178.976254, 103.170719) scale(-1, 1) translate(-178.976254, -103.170719) " points="247.664636 40.9047241 250.000809 179.99401 107.951699 26.3474274"></polygon>
        </g>
    </g>
</svg>