<?xml version="1.0" encoding="UTF-8"?>
<svg viewBox="0 0 776 860" version="1.1" xmlns="http://www.w3.org/2000/svg" xmlns:xlink="http://www.w3.org/1999/xlink">
    <defs>
        <rect id="path-1" x="0" y="0" width="775" height="860"></rect>
    </defs>
    <g id="Page-1" stroke="none" stroke-width="1" fill="none" fill-rule="evenodd">
        <g id="skills-bg" transform="translate(1.000000, 0.000000)">
            <g id="bg">
                <use fill="#333333" fill-rule="evenodd" xlink:href="#path-1"></use>
                <rect stroke="#333333" stroke-width="1" x="0.5" y="0.5" width="774" height="859"></rect>
            </g>
            <g id="figures" transform="translate(0.000000, 122.000000)" stroke-width="1.68" stroke-linecap="round">
                <path d="M358.840904,149.679368 C332.770642,136.986954 314.772727,109.973346 314.772727,78.6989796 C314.772727,35.2347333 349.535103,0 392.416667,0 C435.29823,0 470.060606,35.2347333 470.060606,78.6989796 C470.060606,109.973346 452.062692,136.986954 425.992429,149.679368 L425.992424,165.792517 L358.840909,165.792517 L358.840909,149.67937 Z" id="f1" stroke="#1DE9B6" fill="#1DE9B6"></path>
                <path d="M368.274903,113.046017 C368.274903,113.046017 349.605821,113.917703 341.864729,100.96112 C332.061235,84.5526097 346.208157,76.6186287 346.208157,76.6186287 C346.208157,76.6186287 346.34329,67.740624 352.119489,61.1611118 C357.895688,54.5815996 365.833731,54.5815996 365.833731,54.5815996 C365.833731,54.5815996 369.222364,39.6305564 389.030688,38.5912785 C408.839012,37.5520005 415.686745,52.273814 415.686745,52.273814 C415.686745,52.273814 430.833376,50.1333041 439.387041,61.1611118 C447.940706,72.1889194 440.636096,86.5521742 440.636096,86.5521742 C440.636096,86.5521742 445.01592,90.7511049 442.836849,98.0454111 C440.657779,105.339717 430.944885,106.557887 430.944885,106.557887 C430.944885,106.557887 430.944885,109.733803 427.08234,113.046017 C423.219794,116.358232 417.570769,113.046017 417.570769,113.046017 L368.274903,113.046017 Z" id="f2" stroke="#64FFDA" fill="#64FFDA"></path>
                <polygon id="f3" stroke="#424242" fill="#1DE9B6" points="408.175712 167.109355 421.325691 95.3596445 406.216229 119.435734 400.325614 98.5177484 390.475658 119.736211 384.94435 98.8732093 377.05819 117.77227 363.423899 90.6108723 375.989318 167.109355"></polygon>
                <path d="M343.756272,92.9109252 C343.756272,92.9109252 348.394064,94.2571802 352.749415,92.0645848 C357.104766,89.8719893 358.4631,86.8202034 358.4631,86.8202034" id="f4" stroke="#00BFA5"></path>
                <path d="M355.168013,98.7406311 C355.168013,98.7406311 348.9715,93.9820411 353.326851,91.7894457 C357.682202,89.5968502 358.4631,86.8202034 358.4631,86.8202034" id="f5" stroke="#00BFA5"></path>
                <path d="M355.96454,79.2632935 C355.96454,79.2632935 354.000526,76.3318155 358.355877,74.1392201 C362.711227,71.9466246 360.221559,65.1543069 360.221559,65.1543069" id="f6" stroke="#00BFA5"></path>
                <path d="M367.857937,78.5947996 C367.857937,78.5947996 364.166847,71.7074298 360.475756,72.7844477" id="f7" stroke="#00BFA5"></path>
                <path d="M375.021487,74.9238373 C375.021487,74.9238373 376.632972,82.0596692 380.504512,83.0169022 C384.376051,83.9741352 388.262758,79.9485259 388.262758,79.9485259" id="f8" stroke="#00BFA5"></path>
                <path d="M380.752432,83.8113733 C380.752432,90.8744974 376.914368,90.9717899 376.914368,90.9717899" id="f9" stroke="#00BFA5"></path>
                <path d="M385.113014,46.906203 C390.125825,54.6561286 392.243089,46.2738015 392.243089,46.2738015" id="f10" stroke="#00BFA5"></path>
                <path d="M389.366372,50.398188 C388.577105,55.6305386 391.272851,54.9463524 391.272851,54.9463524" id="f11" stroke="#00BFA5"></path>
                <path d="M374.672416,59.5924012 C382.51228,72.674449 389.397052,61.4673916 391.2707,60.0342193 C392.661958,58.9700312 393.524376,64.869428 398.05939,64.9601254 C402.594404,65.0508227 405.111687,59.4190913 405.111687,59.4190913" id="f12" stroke="#00BFA5"></path>
                <path d="M409.330211,71.540205 C406.394737,89.3056878 391.633566,85.2739956 391.633566,85.2739956" id="f13" stroke="#00BFA5"></path>
                <path d="M408.252189,76.014529 C403.840028,88.7182243 409.788268,87.6840607 409.788268,87.6840607" id="f14" stroke="#00BFA5"></path>
                <path d="M420.045682,59.9340804 C430.870052,76.7612969 418.973029,78.0261423 418.973029,78.0261423" id="f15" stroke="#00BFA5"></path>
                <path d="M424.256825,68.9543021 C426.343666,85.9461872 433.944831,76.868097 433.944831,76.868097" id="f16" stroke="#00BFA5"></path>
                <path d="M431.771959,88.9795346 C429.944294,97.6672992 426.005953,95.5855329 426.005953,95.5855329" id="f17" stroke="#00BFA5" stroke-linejoin="round"></path>
                <path d="M431.590908,88.681731 C430.26304,98.6035936 435.819883,95.9948342 435.819883,95.9948342" id="f18" stroke="#00BFA5" stroke-linejoin="round"></path>
                <polygon id="f19" stroke="#9E9E9E" fill="#9E9E9E" points="172.193809 398.497944 182.128562 598.656273 207.642176 598.656273"></polygon>
                <polygon id="f20" stroke="#BDBDBD" fill="#BDBDBD" points="274.634635 365.740159 291.961321 360.237981 298.792184 468.744405 277.544076 477.58255"></polygon>
                <polygon id="f21" stroke="#616161" fill="#616161" points="0.85429106 454.86575 276.558103 364.163855 277.384668 486.294886 0.731259285 586.122599"></polygon>
                <polygon id="f22" stroke="#BDBDBD" fill="#BDBDBD" points="78.1416397 429.439518 172.193809 398.497944 185.009999 616.895551 84.5272361 616.895551"></polygon>
                <path d="M343.494972,345.454126 L340.983445,351.629246 L385.825702,340.749388 L420.341369,306.572658 C420.341369,306.572658 417.90523,304.095996 415.411473,305.345891 C414.160161,305.973061 385.825702,335.321705 385.825702,335.321705 L343.494972,345.454126 Z" id="f23" stroke="#9E9E9E" fill="#9E9E9E" stroke-linejoin="round"></path>
                <path d="M341.729617,350.810044 L338.88496,357.925165 L388.537812,346.286541 L425.320848,308.913319 C425.320848,308.913319 419.375802,307.663424 416.882045,308.913319 C415.630733,309.540489 386.298301,340.172791 386.298301,340.172791 L341.729617,350.810044 Z" id="f24" stroke="#BDBDBD" fill="#BDBDBD" stroke-linejoin="round"></path>
                <path d="M293.363204,360.013393 L339.652609,307.2566 C339.652609,307.2566 346.788908,305.599881 352.331814,307.2566 C357.874719,308.913319 356.395328,314.127825 356.395328,314.127825 L338.88496,357.925165 L388.537812,346.286541 L425.320848,308.913319 C425.320848,308.913319 434.601626,306.725295 439.422945,306.507227 C444.244264,306.289158 452.983936,307.662115 452.983936,307.662115 C452.983936,307.662115 408.835014,366.622435 384.910476,388.133957 C360.985937,409.645479 297.444114,435.475225 297.444114,435.475225 L293.363204,360.013393 Z" id="f25" stroke="#E0E0E0" fill="#E0E0E0" stroke-linejoin="round"></path>
                <ellipse id="f26" stroke="#616161" fill="#616161" cx="390.318182" cy="291.710884" rx="136.401515" ry="16.7891156"></ellipse>
                <ellipse id="f27" stroke="#757575" fill="#757575" cx="389.268939" cy="271.77381" rx="164.731061" ry="30.4302721"></ellipse>
                <ellipse id="f28" stroke="#9E9E9E" fill="#9E9E9E" cx="393.465909" cy="264.428571" rx="30.4280303" ry="6.29591837"></ellipse>
                <polygon id="f29" stroke="#FF5252" fill="#FF5252" transform="translate(392.416667, 242.392857) scale(1, -1) translate(-392.416667, -242.392857) " points="392.416667 220.357143 423.893939 264.428571 360.939394 264.428571"></polygon>
                <polygon id="f30" stroke="#FF8A80" fill="#FF8A80" transform="translate(412.234661, 232.986042) scale(1, -1) translate(-412.234661, -232.986042) " points="405.853984 220.357143 423.893939 245.614941 408.366196 245.614941 400.575383 224.087518"></polygon>
                <path d="M377.391117,243.391252 L392.416667,264.428571 L407.442216,243.391252 C403.484159,241.337617 398.208959,240.084354 392.416667,240.084354 C386.624374,240.084354 381.349174,241.337617 377.391117,243.391252 Z" id="f31" stroke="#424242" fill="#424242"></path>
                <rect id="f32" stroke="#40C4FF" fill="#40C4FF" x="358.840909" y="169.989796" width="67.1515152" height="20.9863946"></rect>
                <rect id="f33" stroke="#80D8FF" fill="#80D8FF" x="409.204545" y="169.989796" width="16.7878788" height="20.9863946"></rect>
                <rect id="f34" stroke="#40C4FF" fill="#40C4FF" x="358.840909" y="195.173469" width="67.1515152" height="20.9863946"></rect>
                <rect id="f35" stroke="#80D8FF" fill="#80D8FF" x="409.204545" y="195.173469" width="16.7878788" height="20.9863946"></rect>
            </g>
        </g>
    </g>
</svg>