<?xml version="1.0" encoding="UTF-8"?>
<svg viewBox="0 0 500 500" version="1.1" xmlns="http://www.w3.org/2000/svg" xmlns:xlink="http://www.w3.org/1999/xlink">
    <defs>
        <rect id="path-1" x="25" y="25" width="450" height="450" rx="128"></rect>
    </defs>
    <g id="Page-1" stroke="none" stroke-width="1" fill="none" fill-rule="evenodd">
        <g id="swift">
            <rect id="f0" fill="#222222" x="0" y="0" width="500" height="500"></rect>
            <g id="back_base">
                <use fill="#424242" fill-rule="evenodd" xlink:href="#path-1"></use>
                <rect stroke="#424242" stroke-width="1" x="25.5" y="25.5" width="449" height="449" rx="128"></rect>
            </g>
            <path d="M186.404959,236.239669 C147.727273,193.842975 106.07438,137.31405 106.07438,137.31405 C106.07438,137.31405 148.471074,173.760331 184.545455,200.53719 C220.619835,227.31405 239.958678,238.471074 239.958678,238.471074 C239.958678,238.471074 210.206612,205.743802 188.636364,178.22314 C167.066116,150.702479 145.495868,117.975207 145.495868,117.975207 C145.495868,117.975207 184.173554,157.396694 225.826446,191.61157 C267.479339,225.826446 309.876033,251.859504 309.876033,251.859504 C309.876033,251.859504 324.008264,211.694215 315.082645,170.785124 C306.157025,129.876033 278.636364,91.1983471 278.636364,91.1983471 C278.636364,91.1983471 332.933884,122.438017 364.917355,184.173554 C396.900826,245.909091 379.793388,302.438017 379.793388,302.438017 C379.793388,302.438017 394.669421,318.057851 403.595041,347.066116 C412.520661,376.07438 403.595041,392.438017 403.595041,392.438017 C403.595041,392.438017 386.487603,355.991736 352.272727,362.68595 C344.183319,364.268661 337.396694,365.661157 309.876033,379.793388 C297.573311,386.111003 273.429752,390.950413 253.347107,390.950413 C233.264463,390.950413 203.512397,384.256198 203.512397,384.256198 C203.512397,384.256198 159.628099,370.867769 129.876033,347.066116 C100.123967,323.264463 73.3471074,284.586777 73.3471074,284.586777 C73.3471074,284.586777 126.157025,321.033058 175.991736,325.495868 C225.826446,329.958678 263.760331,307.644628 263.760331,307.644628 C263.760331,307.644628 225.082645,278.636364 186.404959,236.239669 Z" fill="#BDBDBD"></path>
        </g>
    </g>
</svg>