<?xml version="1.0" encoding="UTF-8"?>
<svg width="1700px" height="860px" viewBox="0 0 1700 860" version="1.1" xmlns="http://www.w3.org/2000/svg" xmlns:xlink="http://www.w3.org/1999/xlink">
    <!-- Generator: Sketch 43.2 (39069) - http://www.bohemiancoding.com/sketch -->
    <title>web_ui_ux</title>
    <desc>Created with Sketch.</desc>
    <defs></defs>
    <g id="Page-1" stroke="none" stroke-width="1" fill="none" fill-rule="evenodd">
        <g id="Web-Development" transform="translate(-1.000000, 0.000000)">
            <g id="Group-5" transform="translate(0.157124, 0.000000)">
                <g id="web_ui_ux" transform="translate(0.842876, 0.000000)">
                    <rect id="bg" fill="#222222" x="0" y="0" width="1700" height="860"></rect>
                    <polygon id="bg_1" fill="#333333" points="0 0 1700 0 0 860"></polygon>
                    <g id="coordinates" transform="translate(742.529960, 126.526316)" stroke="#E0E0E0">
                        <path d="M14.2210386,436.736842 L310.966711,608.210526 C310.966711,608.210526 340.356858,627.157895 356.474035,627.157895 C372.591212,627.157895 401.981358,608.210526 401.981358,608.210526 L698.727031,435.789474 C698.727031,435.789474 705.363515,432 708.207723,425.368421 C711.051931,418.736842 711.051931,402.631579 711.051931,402.631579 L711.051931,233.052632 C711.051931,233.052632 712,216 705.363515,207.473684 C698.727031,198.947368 678.817577,187.578947 678.817577,187.578947 L356.474035,0 L24.6498003,192.315789 C24.6498003,192.315789 10.4287617,200.842105 5.68841545,209.368421 C0.948069241,217.894737 0.948069241,233.052632 0.948069241,233.052632 C0.948069241,233.052632 0.792323793,413.817197 0.796459077,416.168728 C0.802526554,419.619001 1.15278672,424.446207 2.84420772,427.263158 C5.68841545,432 14.2210386,436.736842 14.2210386,436.736842 Z" id="base"></path>
                        <path d="M1.89613848,425.368421 C1.89613848,425.368421 -0.948069241,416.842105 5.68841545,412.105263 C12.3249001,407.368421 358.370173,208.421053 358.370173,208.421053" id="line_1" stroke-linecap="round"></path>
                        <path d="M34.5217431,395.327584 L401.033289,608.210526" id="line_2" stroke-linecap="round"></path>
                        <path d="M80.5339547,368.526316 L447.436751,581.684211" id="line_3" stroke-linecap="round"></path>
                        <path d="M127.363572,341.405691 L493.944075,554.157895" id="line_4" stroke-linecap="round"></path>
                        <path d="M173.115583,315.008479 L539.451398,527.631579" id="line_5" stroke-linecap="round"></path>
                        <path d="M217.901146,289.271497 L583.958722,502.105263" id="line_6" stroke-linecap="round"></path>
                        <path d="M265.271564,261.845491 L631.414115,474.631579" id="line_7" stroke-linecap="round"></path>
                        <path d="M310.712292,235.714462 L676.869507,448.105263" id="line_8" stroke-linecap="round"></path>
                        <path d="M357.422104,208.421053 C357.422104,208.421053 702.519308,408.315789 706.311585,411.157895 C710.103862,414 710.103862,417.789474 710.103862,417.789474" id="line_9" stroke-linecap="round"></path>
                        <path d="M309.070573,607.263158 L677.869507,394.105263 L309.070573,607.263158 Z" id="line_10" stroke-linecap="round"></path>
                        <path d="M126.093209,501.157895 L494.892144,288 L126.093209,501.157895 Z" id="line_11" stroke-linecap="round"></path>
                        <path d="M79.6378162,474.631579 L448.436751,261.473684 L79.6378162,474.631579 Z" id="line_12" stroke-linecap="round"></path>
                        <path d="M34.1304927,448.105263 L402.929427,234.947368 L34.1304927,448.105263 Z" id="line_13" stroke-linecap="round"></path>
                        <path d="M218.055925,554.210526 L586.85486,341.052632 L218.055925,554.210526 Z" id="line_14" stroke-linecap="round"></path>
                        <path d="M171.600533,527.684211 L540.399467,314.526316 L171.600533,527.684211 Z" id="line_15" stroke-linecap="round"></path>
                        <path d="M264.511318,581.684211 L633.310253,368.526316 L264.511318,581.684211 Z" id="line_16" stroke-linecap="round"></path>
                    </g>
                    <ellipse id="fig_1" stroke="#0091EA" stroke-width="1.26445" fill="#FAFAFA" transform="translate(830.700399, 281.421053) rotate(26.000000) translate(-830.700399, -281.421053) " cx="830.700399" cy="281.421053" rx="10.4287617" ry="18.4736842"></ellipse>
                    <ellipse id="fig_2" fill="#0091EA" transform="translate(831.174434, 281.421053) rotate(31.000000) translate(-831.174434, -281.421053) " cx="831.174434" cy="281.421053" rx="3.31824234" ry="6.15789474"></ellipse>
                    <path d="M830.700399,280.947368 L883.792277,311.263158" id="fig_3" stroke="#0091EA" stroke-width="1.26445" stroke-linecap="square"></path>
                    <path d="M881.896138,562.315789 C881.896138,562.315789 878.596383,570.713676 881.896138,578.421053 C885.195894,586.12843 893.165315,589.601103 896.117177,591.684211 C902.925666,596.488911 1049.70439,680.736842 1049.70439,680.736842 C1049.70439,680.736842 1073.40613,694.947368 1100.90013,694.947368 C1128.39414,694.947368 1153.99201,676.947368 1153.99201,676.947368 L1402.38615,532 C1402.38615,532 1412.81491,525.368421 1412.81491,502.631579 C1412.81491,479.894737 1397.64581,474.210526 1397.64581,474.210526 L1219.40879,370 L881.896138,562.315789 Z" id="fig_4" stroke="#757575" stroke-width="3.2" fill="#9E9E9E" stroke-linecap="round"></path>
                    <path d="M881.896138,562.315789 L1058.23702,663.684211 C1058.23702,663.684211 1077.1984,675.052632 1099.95206,675.052632 C1122.70573,675.052632 1151.1478,657.052632 1151.1478,657.052632 L1398.59387,513.052632 C1398.59387,513.052632 1411.86684,505.473684 1411.86684,494.105263 C1411.86684,482.736842 1397.64581,474.210526 1397.64581,474.210526 L1219.40879,370 L881.896138,562.315789 Z" id="fig_5" stroke="#757575" stroke-width="1.26445" fill="#FAFAFA"></path>
                    <path d="M1144.51132,571.789474 L1232.68176,519.684211 C1232.68176,519.684211 1236.47403,516.842105 1242.16245,516.842105 C1247.85087,516.842105 1252.59121,519.684211 1252.59121,519.684211 L1293.35819,543.368421 C1293.35819,543.368421 1297.15047,545.263158 1297.15047,549.052632 C1297.15047,552.842105 1292.41012,554.736842 1292.41012,554.736842 L1205.18775,605.894737 C1205.18775,605.894737 1198.55126,609.684211 1192.86285,609.684211 C1187.17443,609.684211 1180.53795,605.894737 1180.53795,605.894737 L1144.51132,585.052632 C1144.51132,585.052632 1138.8229,582.210526 1138.8229,578.421053 C1138.8229,574.631579 1144.51132,571.789474 1144.51132,571.789474 Z" id="fig_6" stroke="#757575" stroke-width="1.26445" fill="#E0E0E0"></path>
                    <path d="M1171.65624,133.582891 C1171.65624,133.582891 1184.90509,124.947008 1203.12227,133.582891 C1221.33945,142.218774 1219.68334,162.944892 1219.68334,162.944892 L1219.68334,370 L881.896138,562.315789 C881.896138,562.315789 880.181395,563.263158 876.207723,559.473684 C872.234051,555.684211 872.415446,540.526316 872.415446,540.526316 L872.415446,361.473684 C872.415446,361.473684 871.011427,337.389724 880.948069,316.663605 C890.884712,295.937487 912.234354,282.842105 912.234354,282.842105 L1171.65624,133.582891 Z" id="fig_7" stroke="#757575" stroke-width="3.2" fill="#9E9E9E" stroke-linecap="round"></path>
                    <path d="M1186.22636,136.947368 C1186.22636,136.947368 1199.99145,130.373783 1209.9281,140.736842 C1219.86474,151.099901 1219.40879,172.947368 1219.40879,172.947368 L1219.40879,370 L881.896138,562.315789 L881.896138,367.157895 C881.896138,367.157895 882.844208,339.684211 890.428762,322.631579 C898.013316,305.578947 918.870839,291.368421 918.870839,291.368421 L1186.22636,136.947368 Z" id="fig_8" stroke="#757575" stroke-width="1.26445" fill="#FAFAFA"></path>
                    <ellipse id="fig_9" stroke="#0091EA" stroke-width="1.26445" fill="#FAFAFA" transform="translate(1099.003995, 127.000000) rotate(26.000000) translate(-1099.003995, -127.000000) " cx="1099.00399" cy="127" rx="10.4287617" ry="18.4736842"></ellipse>
                    <ellipse id="fig_10" fill="#0091EA" transform="translate(1099.478029, 127.000000) rotate(31.000000) translate(-1099.478029, -127.000000) " cx="1099.47803" cy="127" rx="3.31824234" ry="6.15789474"></ellipse>
                    <path d="M1099.00399,126.526316 L1141.75342,151.59982" id="fig_11" stroke="#0091EA" stroke-width="1.26445" fill="#0091EA" stroke-linecap="square"></path>
                    <path d="M948.260985,567.105263 L924.559254,552.894737 C924.559254,552.894737 919.818908,550.052632 919.818908,546.263158 C919.818908,542.473684 923.611185,540.578947 923.611185,540.578947 L952.053262,524.473684 L952.053262,489.421053 L971.014647,478.052632 L971.014647,438.263158 L989.976032,426.894737 L989.976032,397.526316 L1009.88549,385.210526 L1019.36618,389.947368 L1019.36618,468.578947 L1067.71771,436.368421 L1067.71771,399.421053 L1086.67909,388.052632 L1095.21172,392.789474 L1097.10786,471.421053 L1164.42077,421.210526 L1164.42077,387.105263 L1184.33023,375.736842 L1183.38216,333.105263 L1213.72037,315.105263 L1213.72037,405.105263 L961.533955,550.052632 C961.533955,550.052632 952.67755,555.113016 950.157124,557.631579 C947.636698,560.150142 948.260985,567.105263 948.260985,567.105263 Z" id="fig_12" stroke="#EEEEEE" fill="#EEEEEE"></path>
                    <ellipse id="fig_13" fill="#757575" transform="translate(1182.434088, 173.894737) rotate(31.000000) translate(-1182.434088, -173.894737) " cx="1182.43409" cy="173.894737" rx="2.84420772" ry="5.68421053"></ellipse>
                    <path d="M1182.90812,174.368421 L1193.53046,180.900411" id="f_14" stroke="#757575" fill="#757575" stroke-linecap="round"></path>
                    <path d="M1296.2024,124.631579 C1296.2024,124.631579 1303.78695,119.894737 1314.21571,124.631579 C1324.64447,129.368421 1323.6964,140.736842 1323.6964,140.736842 L1323.6964,225.052632 C1323.6964,225.052632 1323.6964,236.421053 1318.00799,245.894737 C1312.31957,255.368421 1304.73502,261.052632 1304.73502,261.052632 L1150.19973,350.105263 C1150.19973,350.105263 1141.66711,354.842105 1132.18642,348.210526 C1122.70573,341.578947 1123.65379,332.105263 1123.65379,332.105263 L1123.65379,248.736842 C1123.65379,248.736842 1123.65379,240.210526 1129.34221,228.842105 C1135.03063,217.473684 1144.51132,211.789474 1144.51132,211.789474 L1296.2024,124.631579 Z" id="f_15" stroke="#0091EA" stroke-width="5.0578" fill="#FFFFFF"></path>
                    <path d="M1303.78695,129.368421 C1303.78695,129.368421 1312.31957,124.631579 1318.00799,130.315789 C1323.6964,136 1321.80027,145.473684 1321.80027,145.473684 L1321.80027,230.736842 C1321.80027,230.736842 1320.8522,240.210526 1318.00799,246.842105 C1315.16378,253.473684 1305.68309,261.052632 1305.68309,261.052632 L1155.88815,347.263158 C1155.88815,347.263158 1149.25166,353.894737 1139.77097,351.052632 C1130.29028,348.210526 1131.23835,336.842105 1131.23835,336.842105 L1131.23835,253.473684 C1131.23835,253.473684 1131.23835,244.947368 1136.92676,233.578947 C1142.61518,222.210526 1152.09587,216.526316 1152.09587,216.526316 L1303.78695,129.368421 Z" id="f_16" stroke="#0091EA" stroke-width="1.26445"></path>
                    <path d="M1131.71238,268.157895 L1323.36091,158.385971" id="f_17" stroke="#0091EA" stroke-width="1.26445" stroke-linecap="square"></path>
                    <ellipse id="f_18" fill="#FF5252" transform="translate(1152.926919, 237.707909) rotate(26.000000) translate(-1152.926919, -237.707909) " cx="1152.92692" cy="237.707909" rx="4.26631158" ry="7.57894737"></ellipse>
                    <ellipse id="f_19" fill="#FFC107" transform="translate(1167.147957, 229.181593) rotate(26.000000) translate(-1167.147957, -229.181593) " cx="1167.14796" cy="229.181593" rx="4.26631158" ry="7.57894737"></ellipse>
                    <ellipse id="f_20" fill="#00BFA5" transform="translate(1181.368996, 220.655277) rotate(26.000000) translate(-1181.368996, -220.655277) " cx="1181.369" cy="220.655277" rx="4.26631158" ry="7.57894737"></ellipse>
                    <ellipse id="f_21" stroke="#0091EA" fill="#0091EA" transform="translate(1260.649800, 219.842105) rotate(31.000000) translate(-1260.649800, -219.842105) " cx="1260.6498" cy="219.842105" rx="3.31824234" ry="6.15789474"></ellipse>
                    <path d="M1261.62144,221.106935 L1384.54397,292.697244" id="f_22" stroke="#0091EA" fill="#0091EA" stroke-linecap="square"></path>
                    <ellipse id="f_23" stroke="#0091EA" stroke-width="1.26445" fill="#FAFAFA" transform="translate(1385.320905, 292.789474) rotate(26.000000) translate(-1385.320905, -292.789474) " cx="1385.32091" cy="292.789474" rx="10.4287617" ry="18.4736842"></ellipse>
                    <ellipse id="f_24" fill="#0091EA" transform="translate(1385.650675, 292.670314) rotate(31.000000) translate(-1385.650675, -292.670314) " cx="1385.65068" cy="292.670314" rx="3.31824234" ry="6.15789474"></ellipse>
                    <path d="M1253.48735,449.578947 L999.404794,598.315789" id="f_25" stroke="#9E9E9E" stroke-linecap="round"></path>
                    <path d="M1215.61651,449.578947 L982.391478,585.052632" id="f_26" stroke="#9E9E9E" stroke-linecap="round"></path>
                    <path d="M1195.70706,438.210526 L962.482024,574.631579" id="f_27" stroke="#9E9E9E" stroke-linecap="round"></path>
                    <path d="M1177.21971,427.315789 L1254.96138,472.789474" id="f_27" stroke="#9E9E9E" stroke-linecap="round"></path>
                    <path d="M1196.18109,415.947368 L1273.92277,461.421053" id="f_28" stroke="#9E9E9E" stroke-linecap="round"></path>
                    <path d="M1157.78429,438.210526 L1235.52597,483.684211" id="f_29" stroke="#9E9E9E" stroke-linecap="round"></path>
                    <path d="M1216.56458,496 L1156.83622,460" id="f_30" stroke="#9E9E9E" stroke-linecap="round"></path>
                    <path d="M1196.65513,506.421053 L1156.83622,482.736842" id="f_31" stroke="#9E9E9E" stroke-linecap="round"></path>
                    <path d="M1177.69374,517.789474 L1157.78429,506.421053" id="f_32" stroke="#9E9E9E" stroke-linecap="round"></path>
                    <path d="M1043.06791,598.315789 L960.585885,550 L1043.06791,598.315789 Z" id="f_33" stroke="#9E9E9E" stroke-linecap="round"></path>
                    <polygon id="f_34" stroke="#9E9E9E" fill="#FAFAFA" stroke-linecap="round" points="1253.53928 269.578947 1234.5779 258.210526 1215.61651 269.578947 1215.61651 326.421053 1215.61651 370 1234.5779 381.368421 1234.5779 438.210526 1253.53928 427.789474"></polygon>
                    <polyline id="f_35" stroke="#9E9E9E" fill="#FAFAFA" stroke-linecap="round" points="1234.5779 381.368421 1234.5779 280.947368 1253.53928 269.578947"></polyline>
                    <path d="M1215.61651,269.578947 L1234.5779,280.947368" id="f_36" stroke="#9E9E9E" fill="#FAFAFA" stroke-linecap="round"></path>
                    <polygon id="f_37" stroke="#9E9E9E" fill="#FAFAFA" stroke-linecap="round" points="1234.5779 381.368421 1215.61651 370 1196.65513 381.368421 1196.65513 438.210526 1215.61651 449.578947 1234.5779 438.210526"></polygon>
                    <polyline id="f_38" stroke="#9E9E9E" fill="#FAFAFA" stroke-linecap="round" points="1215.61651 449.578947 1215.61651 392.736842 1234.5779 381.368421"></polyline>
                    <path d="M1196.65513,381.368421 L1215.61651,392.736842" id="f_39" stroke="#9E9E9E" fill="#FAFAFA" stroke-linecap="round"></path>
                    <path d="M1061.08123,388.947368 L1061.08123,472.253905 L1040.2237,460.32477 L1040.2237,401.263158 L1061.08123,388.947368 Z M1021.26232,389.894737 L1040.2237,401.263158 L1040.2237,432.526316 L1021.26232,421.157895 L1021.26232,389.894737 Z M1040.30251,377.825439 L1061.50918,388.589695 L1040.30251,401.071228 L1020.97411,389.566063 L1040.30251,377.825439 Z" id="cs_1" stroke="#9E9E9E" fill="#FAFAFA" stroke-linecap="round"></path>
                    <path d="M1021.26232,483.684211 L1021.26232,539.578947 L1002.30093,550.947368 L1002.30093,495.052632 L1021.26232,483.684211 Z M982.391478,483.684211 L1002.30093,495.052632 L1002.30093,550.947368 L982.391478,539.578947 L982.391478,483.684211 Z M1001.8269,472.315789 L1021.26232,483.684211 L1002.30093,495.052632 L982.391478,483.684211 L1001.8269,472.315789 Z" id="cs_2" stroke="#9E9E9E" fill="#FAFAFA" stroke-linecap="round"></path>
                    <path d="M1040.2237,432.526316 L1040.2237,460.377545 L1021.26232,471.752132 L1021.26232,443.894737 L1040.2237,432.526316 Z M1002.30093,432.526316 L1021.26232,443.894737 L1021.26232,483.684211 L1002.30093,472.315789 L1002.30093,432.526316 Z M1021.26232,421.157895 L1040.2237,432.526316 L1021.26232,443.894737 L1002.30093,432.526316 L1021.26232,421.157895 Z" id="cs_3" stroke="#9E9E9E" fill="#FAFAFA" stroke-linecap="round"></path>
                    <polygon id="f_40" fill="#039BE5" points="1060.13316 517.789474 1060.13316 540.526316 1040.2237 550.947368 1040.2237 529.157895"></polygon>
                    <polygon id="f_41" fill="#40C4FF" transform="translate(1030.743009, 545.736842) scale(-1, 1) translate(-1030.743009, -545.736842) " points="1040.2237 517.789474 1040.2237 562.315789 1021.26232 573.684211 1021.26232 529.157895"></polygon>
                    <polygon id="f_42" fill="#80D8FF" points="1040.2237 506.421053 1060.13316 517.789474 1040.2237 529.157895 1021.26232 517.789474"></polygon>
                    <polygon id="f_43" fill="#9E9E9E" points="1060.13316 472.315789 1060.13316 517.789474 1040.2237 506.421053 1040.2237 483.684211"></polygon>
                    <polygon id="f_44" fill="#E0E0E0" transform="translate(1030.743009, 495.052632) scale(-1, 1) translate(-1030.743009, -495.052632) " points="1040.2237 472.315789 1040.2237 517.789474 1021.26232 506.421053 1021.26232 483.684211"></polygon>
                    <polygon id="f_45" fill="#FAFAFA" points="1040.2237 460.947368 1060.13316 472.315789 1040.2237 483.684211 1021.26232 472.315789"></polygon>
                    <polygon id="f_46" fill="#9E9E9E" points="1099.00399 435.136412 1099.00399 472.315789 1079.58014 472.315789 1079.58014 446.272825"></polygon>
                    <polygon id="f_47" fill="#E0E0E0" transform="translate(1069.856646, 453.842105) scale(-1, 1) translate(-1069.856646, -453.842105) " points="1079.58014 435.368421 1079.58014 472.315789 1060.13316 472.315789 1060.13316 446.272825"></polygon>
                    <polygon id="f_48" fill="#FAFAFA" points="1079.56858 424 1099.00399 435.136412 1079.58014 446.272825 1060.13316 435.368421"></polygon>
                    <polygon id="f_49" fill="#1DE9B6" transform="translate(1108.507062, 433.414400) scale(-1, 1) translate(-1108.507062, -433.414400) " points="1118.04261 394.385231 1118.04261 472.44357 1098.97151 461.109687 1098.97151 404.736842"></polygon>
                    <polygon id="f_50" fill="#A7FFEB" points="1118.31241 382.939332 1137.64654 394.393149 1117.99114 404.797207 1098.97828 394.393149"></polygon>
                    <polygon id="f_51" fill="#039BE5" points="1156.83622 405.052632 1156.83622 528.210526 1140.21628 538.337143 1137.87483 539.736879 1117.96538 551.894737 1117.96538 483.684211 1137.87483 472.315789 1137.87483 416.421053"></polygon>
                    <polygon id="f_52" fill="#40C4FF" transform="translate(1127.919251, 438.526698) scale(-1, 1) translate(-1127.919251, -438.526698) " points="1137.87483 404.737607 1137.87483 460.998596 1117.96367 472.315789 1117.96367 416.421053"></polygon>
                    <polygon id="f_53" fill="#40C4FF" transform="translate(1108.484687, 512.105263) scale(-1, 1) translate(-1108.484687, -512.105263) " points="1117.96538 472.315789 1117.96538 540.526316 1099.00399 551.894737 1099.00399 483.684211"></polygon>
                    <polygon id="f_54" fill="#80D8FF" points="1117.96538 460.947368 1137.87483 472.315789 1117.96538 483.684211 1099.00399 472.315789"></polygon>
                    <polygon id="f_55" fill="#80D8FF" points="1137.58453 394.413157 1156.83622 405.052632 1137.87483 416.421053 1117.96837 404.777102"></polygon>
                    <polygon id="f_56" fill="#00BFA5" points="1099.00399 472.315789 1099.00399 563.263158 1080.04261 573.684211 1080.04261 482.736842"></polygon>
                    <polygon id="f_57" fill="#1DE9B6" transform="translate(1070.087883, 511.631579) scale(-1, 1) translate(-1070.087883, -511.631579) " points="1080.04261 472.315789 1080.04261 539.578947 1060.13316 550.947368 1060.13316 539.578947 1060.13316 482.736842"></polygon>
                    <polygon id="f_58" fill="#A7FFEB" points="1080.04261 461.894737 1099.00399 472.315789 1080.04261 482.736842 1060.13316 472.315789"></polygon>
                    <polygon id="f_59" fill="#9E9E9E" points="1080.04261 550.71536 1080.04261 573.916219 1060.61875 586 1060.61875 561.851772"></polygon>
                    <polygon id="f_60" fill="#E0E0E0" transform="translate(1050.421227, 568.357680) scale(-1, 1) translate(-1050.421227, -568.357680) " points="1060.61875 550.71536 1060.61875 573.684211 1040.2237 586 1040.2237 561.851772"></polygon>
                    <polygon id="f_61" fill="#FAFAFA" points="1060.13316 539.578947 1080.04261 550.71536 1060.61875 561.851772 1040.2237 550.71536"></polygon>
                    <polygon id="f_62" fill="#FF1744" points="1022.4008 561.552632 1022.4008 585.236842 1003.43941 596.605263 1003.43941 572.921053"></polygon>
                    <polygon id="f_63" fill="#FF5252" transform="translate(993.484687, 579.078947) scale(-1, 1) translate(-993.484687, -579.078947) " points="1003.43941 561.552632 1003.43941 585.236842 983.52996 596.605263 983.52996 572.921053"></polygon>
                    <polygon id="f_64" fill="#FF8A80" points="1002.96538 550.184211 1022.4008 561.552632 1003.43941 572.921053 983.52996 561.552632"></polygon>
                    <polygon id="f_65" fill="#00BFA5" points="1234.5779 460 1234.5779 483.684211 1214.66844 495.052632 1214.66844 471.368421"></polygon>
                    <polygon id="f_66" fill="#1DE9B6" transform="translate(1205.187750, 477.526316) scale(-1, 1) translate(-1205.187750, -477.526316) " points="1214.66844 460 1214.66844 483.684211 1195.70706 495.052632 1195.70706 471.368421"></polygon>
                    <polygon id="f_67" fill="#A7FFEB" points="1215.14248 448.631579 1234.5779 460 1214.66844 471.368421 1195.70706 460"></polygon>
                    <polygon id="f_68" fill="#039BE5" points="1292.41012 392.736842 1292.41012 449.578947 1272.50067 460.947368 1272.50067 404.105263"></polygon>
                    <polygon id="f_69" fill="#40C4FF" transform="translate(1263.019973, 426.842105) scale(-1, 1) translate(-1263.019973, -426.842105) " points="1272.50067 392.736842 1272.50067 449.578947 1253.53928 460.947368 1253.53928 404.105263"></polygon>
                    <polygon id="f_70" fill="#80D8FF" points="1272.50067 381.368421 1292.41012 392.736842 1272.50067 404.105263 1253.53928 392.736842"></polygon>
                    <path d="M981.443409,538.631579 L981.443409,482.736842 L1000.40479,471.368421 L1000.40479,431.578947 L1020.31425,419.263158 L1020.31425,390.842105 L1041.17177,377.578947 L1062.02929,390.842105 L1062.02929,432.526316 L1080.04261,422.105263 L1097.10786,431.578947 L1097.10786,392.736842 L1118.91345,380.421053 L1158.73236,404.105263 L1158.73236,436.315789 L1194.75899,414.526316 L1194.75899,380.421053 L1214.66844,369.052632 L1214.66844,268.631579 L1234.5779,256.315789 L1255.43542,268.631579 L1255.43542,390.842105 L1272.50067,380.421053 L1294.30626,392.736842 L1294.30626,449.578947 L1041.17177,598.315789 C1041.17177,598.315789 1029.79494,604.947368 1020.31425,604.947368 C1010.83356,604.947368 1001.35286,598.315789 1001.35286,598.315789 L953.949401,570.842105 C953.949401,570.842105 948.260985,568 948.260985,562.315789 C948.260985,556.631579 954.89747,552.842105 954.89747,552.842105 L981.443409,538.631579 Z" id="f_71" stroke="#A6A8AB" stroke-width="5"></path>
                    <ellipse id="f_72" fill="#0091EA" transform="translate(914.460262, 328.670314) rotate(31.000000) translate(-914.460262, -328.670314) " cx="914.460262" cy="328.670314" rx="3.31824234" ry="6.15789474"></ellipse>
                    <path d="M915.078562,329.263158 L946.364847,347.263158" id="f_73" stroke="#0091EA" stroke-width="1.26445" stroke-linecap="square"></path>
                    <ellipse id="f_74" stroke="#0091EA" stroke-width="1.26445" fill="#FFFFFF" transform="translate(945.416778, 346.789474) rotate(26.000000) translate(-945.416778, -346.789474) " cx="945.416778" cy="346.789474" rx="10.4287617" ry="18.4736842"></ellipse>
                    <ellipse id="f_75" fill="#0091EA" transform="translate(945.746547, 346.670314) rotate(31.000000) translate(-945.746547, -346.670314) " cx="945.746547" cy="346.670314" rx="3.31824234" ry="6.15789474"></ellipse>
                    <ellipse id="f_76" stroke="#FF5252" stroke-width="1.26445" fill="#FF8A80" transform="translate(975.278647, 363.368506) rotate(26.000000) translate(-975.278647, -363.368506) " cx="975.278647" cy="363.368506" rx="7.11051931" ry="13.2631579"></ellipse>
                    <ellipse id="f_77" fill="#FF5252" transform="translate(994.711119, 375.208650) rotate(27.000000) translate(-994.711119, -375.208650) " cx="994.711119" cy="375.20865" rx="2.84420772" ry="5.21052632"></ellipse>
                    <path d="M1049.47468,342 L1043,342 L1055.50401,310.067949 L1058.74849,318.327353 L1054.2479,329.820061 L1063.27341,329.82054 L1065.18553,334.692118 L1052.33899,334.692118 L1049.47468,342 Z M1074.04152,327.961739 L1070.80252,319.690969 L1074.57072,310.067949 L1077.8152,318.327353 L1074.04152,327.961739 Z M1058.01707,310 L1064.49705,310.000352 L1077.00865,341.939166 L1070.52907,341.939166 L1058.01707,310 Z M1077.00841,310 L1083.4884,310.000352 L1096,341.939166 L1089.52041,341.939166 L1077.00841,310 Z" id="AM" stroke="#E0E0E0" stroke-width="0.5" fill="#E0E0E0" fill-rule="nonzero" transform="translate(1069.500000, 326.000000) rotate(-30.000000) translate(-1069.500000, -326.000000) "></path>
                </g>
            </g>
        </g>
    </g>
</svg>