<?xml version="1.0" encoding="UTF-8"?>
<svg width="100px" height="85px" viewBox="0 0 100 85" version="1.1" xmlns="http://www.w3.org/2000/svg" xmlns:xlink="http://www.w3.org/1999/xlink">
    <!-- Generator: Sketch 44.1 (41455) - http://www.bohemiancoding.com/sketch -->
    <title>github</title>
    <desc>Created with Sketch.</desc>
    <defs></defs>
    <g id="Page-1" stroke="none" stroke-width="1" fill="none" fill-rule="evenodd">
        <g id="github" fill-rule="nonzero" fill="#FFFFFF">
            <path d="M92.1105354,20.1881939 C92.202418,15.5881327 91.1962003,10.9370714 90.3792746,6.35730612 C90.0981002,4.78081633 89.5283247,3.25740816 88.9670121,1.76262245 C88.5442142,0.637326531 87.2958549,-0.0792755102 86.1459413,0.16705102 C85.4017271,0.326295918 84.7326425,0.481377551 84.0837651,0.695785714 C77.2915371,2.94013265 71.002418,6.22252041 64.9606218,10.0360714 C64.1488774,10.5478061 62.9682211,10.732551 61.9882556,10.6603878 C59.6438687,10.4883061 57.3248705,9.90232653 54.9815199,9.79078571 C49.1818653,9.51479592 43.3937824,9.69208163 37.6468048,10.7016735 C36.8478411,10.8418367 35.7960276,10.7037551 35.1322971,10.2728571 C28.5440415,5.99111224 21.6894646,2.32639796 13.9787565,0.268877551 C12.8212435,-0.0400714286 11.6300518,0.123510204 11.3373057,0.585285714 C11.1585492,0.867693878 10.9968912,1.16068367 10.9081174,1.47483673 C10.0751295,4.41444898 9.08791019,7.33931633 8.60379965,10.341551 C8.02677029,13.9245612 7.47184801,17.6159898 7.74559585,21.1946633 C7.917962,23.4442143 7.29948187,24.8265918 6.07564767,26.4051633 C1.9701209,31.7027449 0.121416235,37.7922143 0.00829015544,44.4688776 C-0.0889464594,50.1793163 0.663557858,55.7443878 2.39499136,61.2034694 C5.04697755,69.5679898 10.1680484,75.8453265 17.8789292,79.9294898 C24.2188256,83.2873367 31.1272884,84.5815918 38.1965458,84.8310408 C44.5682211,85.0551633 50.9523316,84.8650408 57.3312608,84.9011224 C63.7252159,84.9372041 70.0310881,84.3649286 76.1478411,82.3627449 C82.2699482,80.3593469 87.5677029,77.1267449 91.6784111,72.0437449 C97.615544,64.7014796 99.464076,56.0522959 99.8435233,46.8967551 C100.13437,39.8953571 98.7136442,33.3090714 94.6314335,27.5814592 C92.9761658,25.2576633 92.0481865,23.2617245 92.1105354,20.1881939 Z M79.8008636,73.8356837 C77.0588946,76.2170714 73.7062176,77.344449 70.2740933,78.1682551 C63.5400691,79.7841224 56.6834197,80.1865714 49.8044905,79.8849082 C43.0048359,80.1810204 36.2834197,79.7553265 29.6677029,78.1915 C24.7875648,77.0386224 20.3322971,75.100102 17.226943,70.8927755 C12.2854922,64.1970306 11.0224525,51.4543163 19.1877375,44.4997551 C21.2699482,42.7267245 23.592228,41.6014286 26.3362694,41.426398 C29.3645941,41.2321122 32.3939551,40.8530816 35.4200345,40.8891633 C43.0537133,40.9804082 50.6839378,41.3616939 58.3165803,41.4189388 C61.8025907,41.4442653 65.3129534,40.6279184 68.7734024,40.8381633 C71.917962,41.0293265 75.2243523,41.6109694 78.0782383,42.8818061 C82.8357513,45.0007347 85.3967185,49.2972245 86.1704663,54.329398 C87.3224525,61.8116531 85.802418,68.6220612 79.8008636,73.8356837 Z" id="Shape"></path>
            <ellipse id="Oval" cx="67.3620035" cy="59.2488163" rx="7.27530225" ry="9.76597959"></ellipse>
            <ellipse id="Oval" cx="32.647323" cy="59.2488163" rx="7.27633851" ry="9.76597959"></ellipse>
        </g>
    </g>
</svg>