<?xml version="1.0" encoding="UTF-8"?>
<svg viewBox="0 0 108 103" version="1.1" xmlns="http://www.w3.org/2000/svg" xmlns:xlink="http://www.w3.org/1999/xlink">
    <g id="base_in" stroke="none" stroke-width="1" fill="none" fill-rule="evenodd">
        <g id="linked" transform="translate(-323.000000, -1.000000)" fill-rule="nonzero" fill="#FFFFFF">
            <path d="M431,64.1492183 L431,104 L407.852103,104 L407.852103,66.8181834 C407.852103,57.4778079 404.504009,51.1033669 396.125238,51.1033669 C389.729109,51.1033669 385.922768,55.399273 384.248219,59.5548391 C383.637557,61.0404378 383.480372,63.1081966 383.480372,65.1877339 L383.480372,104 L360.324691,104 C360.324691,104 360.63655,41.0262067 360.324691,34.5016521 L383.478112,34.5016521 L383.478112,44.3527647 C383.431157,44.4264432 383.370141,44.5058856 383.325949,44.5773086 L383.478112,44.5773086 L383.478112,44.3527647 C386.55427,39.6240602 392.047966,32.8689471 404.344564,32.8689471 C419.579219,32.8686965 431,42.8020083 431,64.1492183 Z M336.102863,1 C328.181334,1 323,6.18581175 323,13.0053309 C323,19.67624 328.031431,25.019433 335.795523,25.019433 L335.950197,25.019433 C344.025144,25.019433 349.047034,19.6772424 349.047034,13.0053309 C348.89487,6.18581175 344.025144,1 336.102863,1 Z M324.375244,104 L347.522137,104 L347.522137,34.5016521 L324.375244,34.5016521 L324.375244,104 Z" id="LinkedIn"></path>
        </g>
    </g>
</svg>