<?xml version="1.0" encoding="UTF-8"?>
<svg viewBox="0 0 1018 208" version="1.1" xmlns="http://www.w3.org/2000/svg" xmlns:xlink="http://www.w3.org/1999/xlink">
    <!-- Generator: Sketch 44.1 (41455) - http://www.bohemiancoding.com/sketch -->
    <title>air-logo</title>
    <desc>Designer: Atul Meshram</desc>
    <defs></defs>
    <g id="Page-1" stroke="none" stroke-width="1" fill="none" fill-rule="evenodd">
        <g id="HD-Wide" transform="translate(-451.000000, -150.000000)" fill="#FF5252">
            <g id="Title" transform="translate(451.000000, 150.000000)">
                <path d="M422.4625,51.45 C426.895855,47.3666462 432.029137,44.3041769 437.8625,42.2625 C443.695862,40.2208231 449.529137,39.2 455.3625,39.2 C461.429197,39.2 466.649978,39.9583257 471.025,41.475 C475.400022,42.9916742 478.987486,45.0333205 481.7875,47.6 C484.587514,50.1666795 486.658327,53.1124834 488,56.4375 C489.341673,59.7625166 490.0125,63.2333152 490.0125,66.85 L490.0125,109.2 C490.0125,112.116681 490.070833,114.799988 490.1875,117.25 C490.304167,119.700012 490.479165,122.033322 490.7125,124.25 L476.7125,124.25 C476.362498,120.049979 476.1875,115.850021 476.1875,111.65 L475.8375,111.65 C472.337482,117.016693 468.195857,120.808322 463.4125,123.025 C458.629143,125.241678 453.087531,126.35 446.7875,126.35 C442.937481,126.35 439.262517,125.825005 435.7625,124.775 C432.262482,123.724995 429.200013,122.15001 426.575,120.05 C423.949987,117.949989 421.879174,115.354182 420.3625,112.2625 C418.845826,109.170818 418.0875,105.583354 418.0875,101.5 C418.0875,96.1333065 419.283321,91.6416847 421.675,88.025 C424.066679,84.4083152 427.333313,81.4625114 431.475,79.1875 C435.616687,76.9124886 440.458306,75.2791716 446,74.2875 C451.541694,73.2958284 457.462468,72.8 463.7625,72.8 L475.3125,72.8 L475.3125,69.3 C475.3125,67.1999895 474.904171,65.1000105 474.0875,63 C473.270829,60.8999895 472.045841,59.0041751 470.4125,57.3125 C468.779158,55.6208249 466.737512,54.2791716 464.2875,53.2875 C461.837488,52.2958284 458.92085,51.8 455.5375,51.8 C452.504151,51.8 449.850011,52.0916637 447.575,52.675 C445.299989,53.2583362 443.229176,53.9874956 441.3625,54.8625 C439.495824,55.7375044 437.804174,56.7583275 436.2875,57.925 C434.770826,59.0916725 433.312507,60.1999947 431.9125,61.25 L422.4625,51.45 Z M466.9125,84.35 C463.179148,84.35 459.358353,84.5541646 455.45,84.9625 C451.541647,85.3708354 447.983349,86.1583275 444.775,87.325 C441.566651,88.4916725 438.941677,90.1249895 436.9,92.225 C434.858323,94.3250105 433.8375,97.008317 433.8375,100.275 C433.8375,105.058357 435.441651,108.499989 438.65,110.6 C441.858349,112.700011 446.204139,113.75 451.6875,113.75 C456.004188,113.75 459.679151,113.020841 462.7125,111.5625 C465.745848,110.104159 468.195824,108.208345 470.0625,105.875 C471.929176,103.541655 473.270829,100.945848 474.0875,98.0875 C474.904171,95.2291524 475.3125,92.400014 475.3125,89.6 L475.3125,84.35 L466.9125,84.35 Z M514.1625,41.3 L529.9125,41.3 L529.9125,124.25 L514.1625,124.25 L514.1625,41.3 Z M510.4875,11.55 C510.4875,8.39998425 511.624989,5.68751137 513.9,3.4125 C516.175011,1.13748863 518.887484,0 522.0375,0 C525.187516,0 527.899989,1.13748863 530.175,3.4125 C532.450011,5.68751137 533.5875,8.39998425 533.5875,11.55 C533.5875,14.7000157 532.450011,17.4124886 530.175,19.6875 C527.899989,21.9625114 525.187516,23.1 522.0375,23.1 C518.887484,23.1 516.175011,21.9625114 513.9,19.6875 C511.624989,17.4124886 510.4875,14.7000157 510.4875,11.55 Z M554.9375,41.3 L570.6875,41.3 L570.6875,54.075 L571.0375,54.075 C572.087505,51.8583222 573.487491,49.8458424 575.2375,48.0375 C576.987509,46.2291576 578.941656,44.6833397 581.1,43.4 C583.258344,42.1166602 585.62082,41.0958371 588.1875,40.3375 C590.754179,39.5791629 593.32082,39.2 595.8875,39.2 C598.454179,39.2 600.787489,39.5499965 602.8875,40.25 L602.1875,57.225 C600.90416,56.8749982 599.62084,56.5833345 598.3375,56.35 C597.05416,56.1166655 595.77084,56 594.4875,56 C586.787461,56 580.895854,58.1583117 576.8125,62.475 C572.729146,66.7916882 570.6875,73.4999545 570.6875,82.6 L570.6875,124.25 L554.9375,124.25 L554.9375,41.3 Z" id="air"></path>
                <path d="M25.64,193.8 C24.2799932,195.640009 22.7066756,196.959996 20.92,197.76 C19.1333244,198.560004 17.2000104,198.96 15.12,198.96 C12.9599892,198.96 10.980009,198.593337 9.18,197.86 C7.379991,197.126663 5.8400064,196.100007 4.56,194.78 C3.2799936,193.459993 2.2800036,191.886676 1.56,190.06 C0.8399964,188.233324 0.48,186.240011 0.48,184.08 C0.48,181.919989 0.8399964,179.933342 1.56,178.12 C2.2800036,176.306658 3.2799936,174.740007 4.56,173.42 C5.8400064,172.099993 7.379991,171.06667 9.18,170.32 C10.980009,169.57333 12.9599892,169.2 15.12,169.2 C17.0400096,169.2 18.833325,169.539997 20.5,170.22 C22.166675,170.900003 23.6266604,172.039992 24.88,173.64 L22.72,175.44 C21.8399956,174.10666 20.7133402,173.133336 19.34,172.52 C17.9666598,171.906664 16.5600072,171.6 15.12,171.6 C13.2799908,171.6 11.6200074,171.919997 10.14,172.56 C8.6599926,173.200003 7.4000052,174.079994 6.36,175.2 C5.3199948,176.320006 4.5200028,177.639992 3.96,179.16 C3.3999972,180.680008 3.12,182.319991 3.12,184.08 C3.12,185.840009 3.3999972,187.479992 3.96,189 C4.5200028,190.520008 5.3199948,191.839994 6.36,192.96 C7.4000052,194.080006 8.6599926,194.959997 10.14,195.6 C11.6200074,196.240003 13.2799908,196.56 15.12,196.56 C15.8400036,196.56 16.5866628,196.473334 17.36,196.3 C18.1333372,196.126666 18.886663,195.860002 19.62,195.5 C20.353337,195.139998 21.05333,194.686669 21.72,194.14 C22.38667,193.593331 22.9733308,192.933337 23.48,192.16 L25.64,193.8 Z M44.16,190.48 C44.16,191.386671 44.1666666,192.199996 44.18,192.92 C44.1933334,193.640004 44.2133332,194.306664 44.24,194.92 C44.2666668,195.533336 44.2999998,196.106664 44.34,196.64 C44.3800002,197.173336 44.4399996,197.706664 44.52,198.24 L42.28,198.24 C42.1199992,197.333329 42.04,196.333339 42.04,195.24 L41.96,195.24 C41.2666632,196.440006 40.4066718,197.319997 39.38,197.88 C38.3533282,198.440003 37.0533412,198.72 35.48,198.72 C34.679996,198.72 33.8933372,198.620001 33.12,198.42 C32.3466628,198.219999 31.6533364,197.900002 31.04,197.46 C30.4266636,197.019998 29.9266686,196.453337 29.54,195.76 C29.1533314,195.066663 28.96,194.226672 28.96,193.24 C28.96,191.82666 29.3199964,190.706671 30.04,189.88 C30.7600036,189.053329 31.6466614,188.433335 32.7,188.02 C33.7533386,187.606665 34.8733274,187.340001 36.06,187.22 C37.2466726,187.099999 38.2933288,187.04 39.2,187.04 L42,187.04 L42,185.92 C42,184.319992 41.5066716,183.173337 40.52,182.48 C39.5333284,181.786663 38.2933408,181.44 36.8,181.44 C34.666656,181.44 32.7866748,182.133326 31.16,183.52 L29.76,181.88 C30.6400044,181.026662 31.7333268,180.380002 33.04,179.94 C34.3466732,179.499998 35.599994,179.28 36.8,179.28 C39.0400112,179.28 40.82666,179.806661 42.16,180.86 C43.49334,181.913339 44.16,183.613322 44.16,185.96 L44.16,190.48 Z M39.36,188.96 C38.3466616,188.96 37.3666714,189.026666 36.42,189.16 C35.4733286,189.293334 34.6200038,189.519998 33.86,189.84 C33.0999962,190.160002 32.4933356,190.586664 32.04,191.12 C31.5866644,191.653336 31.36,192.319996 31.36,193.12 C31.36,193.680003 31.4866654,194.179998 31.74,194.62 C31.9933346,195.060002 32.319998,195.419999 32.72,195.7 C33.120002,195.980001 33.5666642,196.193333 34.06,196.34 C34.5533358,196.486667 35.0533308,196.56 35.56,196.56 C36.8400064,196.56 37.8933292,196.373335 38.72,196 C39.5466708,195.626665 40.2066642,195.140003 40.7,194.54 C41.1933358,193.939997 41.5333324,193.260004 41.72,192.5 C41.9066676,191.739996 42,190.973337 42,190.2 L42,188.96 L39.36,188.96 Z M50.56,184.96 C50.56,184.613332 50.5466668,184.193336 50.52,183.7 C50.4933332,183.206664 50.4733334,182.706669 50.46,182.2 C50.4466666,181.693331 50.4266668,181.220002 50.4,180.78 C50.3733332,180.339998 50.36,180.000001 50.36,179.76 L52.76,179.76 C52.7866668,180.453337 52.8066666,181.119997 52.82,181.76 C52.8333334,182.400003 52.8666664,182.813332 52.92,183 C53.5333364,181.906661 54.3199952,181.013337 55.28,180.32 C56.2400048,179.626663 57.4133264,179.28 58.8,179.28 C59.0400012,179.28 59.2733322,179.3 59.5,179.34 C59.7266678,179.38 59.9599988,179.426666 60.2,179.48 L59.92,181.84 C59.5999984,181.733333 59.2933348,181.68 59,181.68 C57.9599948,181.68 57.0600038,181.846665 56.3,182.18 C55.5399962,182.513335 54.9133358,182.97333 54.42,183.56 C53.9266642,184.14667 53.5600012,184.833329 53.32,185.62 C53.0799988,186.406671 52.96,187.253329 52.96,188.16 L52.96,198.24 L50.56,198.24 L50.56,184.96 Z M63.36,168 L65.76,168 L65.76,183 L65.84,183 C66.2133352,182.359997 66.6799972,181.806669 67.24,181.34 C67.8000028,180.873331 68.4066634,180.486668 69.06,180.18 C69.7133366,179.873332 70.3999964,179.646667 71.12,179.5 C71.8400036,179.353333 72.5466632,179.28 73.24,179.28 C74.6533404,179.28 75.9533274,179.519998 77.14,180 C78.3266726,180.480002 79.353329,181.153329 80.22,182.02 C81.086671,182.886671 81.7599976,183.913327 82.24,185.1 C82.7200024,186.286673 82.96,187.58666 82.96,189 C82.96,190.41334 82.7200024,191.713327 82.24,192.9 C81.7599976,194.086673 81.086671,195.113329 80.22,195.98 C79.353329,196.846671 78.3266726,197.519998 77.14,198 C75.9533274,198.480002 74.6533404,198.72 73.24,198.72 C72.5466632,198.72 71.8400036,198.646667 71.12,198.5 C70.3999964,198.353333 69.7133366,198.126668 69.06,197.82 C68.4066634,197.513332 67.8000028,197.126669 67.24,196.66 C66.6799972,196.193331 66.2133352,195.640003 65.84,195 L65.76,195 L65.76,198.24 L63.36,198.24 L63.36,168 Z M65.52,189 C65.52,190.040005 65.719998,191.019995 66.12,191.94 C66.520002,192.860005 67.0666632,193.659997 67.76,194.34 C68.4533368,195.020003 69.266662,195.559998 70.2,195.96 C71.133338,196.360002 72.1466612,196.56 73.24,196.56 C74.3600056,196.56 75.3733288,196.360002 76.28,195.96 C77.1866712,195.559998 77.9599968,195.020003 78.6,194.34 C79.2400032,193.659997 79.726665,192.860005 80.06,191.94 C80.393335,191.019995 80.56,190.040005 80.56,189 C80.56,187.959995 80.393335,186.980005 80.06,186.06 C79.726665,185.139995 79.2400032,184.340003 78.6,183.66 C77.9599968,182.979997 77.1866712,182.440002 76.28,182.04 C75.3733288,181.639998 74.3600056,181.44 73.24,181.44 C72.1466612,181.44 71.133338,181.639998 70.2,182.04 C69.266662,182.440002 68.4533368,182.979997 67.76,183.66 C67.0666632,184.340003 66.520002,185.139995 66.12,186.06 C65.719998,186.980005 65.52,187.959995 65.52,189 Z M87.28,189 C87.28,187.58666 87.5199976,186.286673 88,185.1 C88.4800024,183.913327 89.1466624,182.886671 90,182.02 C90.8533376,181.153329 91.879994,180.480002 93.08,180 C94.280006,179.519998 95.5866596,179.28 97,179.28 C98.4133404,179.28 99.7133274,179.519998 100.9,180 C102.086673,180.480002 103.113329,181.153329 103.98,182.02 C104.846671,182.886671 105.519998,183.913327 106,185.1 C106.480002,186.286673 106.72,187.58666 106.72,189 C106.72,190.41334 106.480002,191.713327 106,192.9 C105.519998,194.086673 104.846671,195.113329 103.98,195.98 C103.113329,196.846671 102.086673,197.519998 100.9,198 C99.7133274,198.480002 98.4133404,198.72 97,198.72 C95.5866596,198.72 94.280006,198.480002 93.08,198 C91.879994,197.519998 90.8533376,196.846671 90,195.98 C89.1466624,195.113329 88.4800024,194.086673 88,192.9 C87.5199976,191.713327 87.28,190.41334 87.28,189 Z M89.68,189 C89.68,190.040005 89.846665,191.019995 90.18,191.94 C90.513335,192.860005 90.9999968,193.659997 91.64,194.34 C92.2800032,195.020003 93.0533288,195.559998 93.96,195.96 C94.8666712,196.360002 95.8799944,196.56 97,196.56 C98.1200056,196.56 99.1333288,196.360002 100.04,195.96 C100.946671,195.559998 101.719997,195.020003 102.36,194.34 C103.000003,193.659997 103.486665,192.860005 103.82,191.94 C104.153335,191.019995 104.32,190.040005 104.32,189 C104.32,187.959995 104.153335,186.980005 103.82,186.06 C103.486665,185.139995 103.000003,184.340003 102.36,183.66 C101.719997,182.979997 100.946671,182.440002 100.04,182.04 C99.1333288,181.639998 98.1200056,181.44 97,181.44 C95.8799944,181.44 94.8666712,181.639998 93.96,182.04 C93.0533288,182.440002 92.2800032,182.979997 91.64,183.66 C90.9999968,184.340003 90.513335,185.139995 90.18,186.06 C89.846665,186.980005 89.68,187.959995 89.68,189 Z M112.08,184.96 C112.08,184.613332 112.066667,184.193336 112.04,183.7 C112.013333,183.206664 111.993333,182.706669 111.98,182.2 C111.966667,181.693331 111.946667,181.220002 111.92,180.78 C111.893333,180.339998 111.88,180.000001 111.88,179.76 L114.28,179.76 C114.306667,180.453337 114.326667,181.119997 114.34,181.76 C114.353333,182.400003 114.386666,182.813332 114.44,183 L114.56,183 C115.040002,181.986662 115.839994,181.113337 116.96,180.38 C118.080006,179.646663 119.386659,179.28 120.88,179.28 C122.320007,179.28 123.493329,179.506664 124.4,179.96 C125.306671,180.413336 126.019997,181.006663 126.54,181.74 C127.060003,182.473337 127.419999,183.319995 127.62,184.28 C127.820001,185.240005 127.92,186.226662 127.92,187.24 L127.92,198.24 L125.52,198.24 L125.52,187.36 C125.52,186.61333 125.453334,185.88667 125.32,185.18 C125.186666,184.47333 124.953335,183.840003 124.62,183.28 C124.286665,182.719997 123.820003,182.273335 123.22,181.94 C122.619997,181.606665 121.840005,181.44 120.88,181.44 C119.999996,181.44 119.166671,181.593332 118.38,181.9 C117.593329,182.206668 116.913336,182.67333 116.34,183.3 C115.766664,183.92667 115.313335,184.713329 114.98,185.66 C114.646665,186.606671 114.48,187.719994 114.48,189 L114.48,198.24 L112.08,198.24 L112.08,184.96 Z M144.72,184.96 C144.72,184.613332 144.706667,184.193336 144.68,183.7 C144.653333,183.206664 144.633333,182.706669 144.62,182.2 C144.606667,181.693331 144.586667,181.220002 144.56,180.78 C144.533333,180.339998 144.52,180.000001 144.52,179.76 L146.92,179.76 C146.946667,180.453337 146.966667,181.119997 146.98,181.76 C146.993333,182.400003 147.026666,182.813332 147.08,183 L147.2,183 C147.680002,181.986662 148.479994,181.113337 149.6,180.38 C150.720006,179.646663 152.026659,179.28 153.52,179.28 C154.960007,179.28 156.133329,179.506664 157.04,179.96 C157.946671,180.413336 158.659997,181.006663 159.18,181.74 C159.700003,182.473337 160.059999,183.319995 160.26,184.28 C160.460001,185.240005 160.56,186.226662 160.56,187.24 L160.56,198.24 L158.16,198.24 L158.16,187.36 C158.16,186.61333 158.093334,185.88667 157.96,185.18 C157.826666,184.47333 157.593335,183.840003 157.26,183.28 C156.926665,182.719997 156.460003,182.273335 155.86,181.94 C155.259997,181.606665 154.480005,181.44 153.52,181.44 C152.639996,181.44 151.806671,181.593332 151.02,181.9 C150.233329,182.206668 149.553336,182.67333 148.98,183.3 C148.406664,183.92667 147.953335,184.713329 147.62,185.66 C147.286665,186.606671 147.12,187.719994 147.12,189 L147.12,198.24 L144.72,198.24 L144.72,184.96 Z M181.32,190.48 C181.32,191.386671 181.326667,192.199996 181.34,192.92 C181.353333,193.640004 181.373333,194.306664 181.4,194.92 C181.426667,195.533336 181.46,196.106664 181.5,196.64 C181.54,197.173336 181.6,197.706664 181.68,198.24 L179.44,198.24 C179.279999,197.333329 179.2,196.333339 179.2,195.24 L179.12,195.24 C178.426663,196.440006 177.566672,197.319997 176.54,197.88 C175.513328,198.440003 174.213341,198.72 172.64,198.72 C171.839996,198.72 171.053337,198.620001 170.28,198.42 C169.506663,198.219999 168.813336,197.900002 168.2,197.46 C167.586664,197.019998 167.086669,196.453337 166.7,195.76 C166.313331,195.066663 166.12,194.226672 166.12,193.24 C166.12,191.82666 166.479996,190.706671 167.2,189.88 C167.920004,189.053329 168.806661,188.433335 169.86,188.02 C170.913339,187.606665 172.033327,187.340001 173.22,187.22 C174.406673,187.099999 175.453329,187.04 176.36,187.04 L179.16,187.04 L179.16,185.92 C179.16,184.319992 178.666672,183.173337 177.68,182.48 C176.693328,181.786663 175.453341,181.44 173.96,181.44 C171.826656,181.44 169.946675,182.133326 168.32,183.52 L166.92,181.88 C167.800004,181.026662 168.893327,180.380002 170.2,179.94 C171.506673,179.499998 172.759994,179.28 173.96,179.28 C176.200011,179.28 177.98666,179.806661 179.32,180.86 C180.65334,181.913339 181.32,183.613322 181.32,185.96 L181.32,190.48 Z M176.52,188.96 C175.506662,188.96 174.526671,189.026666 173.58,189.16 C172.633329,189.293334 171.780004,189.519998 171.02,189.84 C170.259996,190.160002 169.653336,190.586664 169.2,191.12 C168.746664,191.653336 168.52,192.319996 168.52,193.12 C168.52,193.680003 168.646665,194.179998 168.9,194.62 C169.153335,195.060002 169.479998,195.419999 169.88,195.7 C170.280002,195.980001 170.726664,196.193333 171.22,196.34 C171.713336,196.486667 172.213331,196.56 172.72,196.56 C174.000006,196.56 175.053329,196.373335 175.88,196 C176.706671,195.626665 177.366664,195.140003 177.86,194.54 C178.353336,193.939997 178.693332,193.260004 178.88,192.5 C179.066668,191.739996 179.16,190.973337 179.16,190.2 L179.16,188.96 L176.52,188.96 Z M187.72,184.96 C187.72,184.613332 187.706667,184.193336 187.68,183.7 C187.653333,183.206664 187.633333,182.706669 187.62,182.2 C187.606667,181.693331 187.586667,181.220002 187.56,180.78 C187.533333,180.339998 187.52,180.000001 187.52,179.76 L189.92,179.76 C189.946667,180.453337 189.966667,181.119997 189.98,181.76 C189.993333,182.400003 190.026666,182.813332 190.08,183 L190.2,183 C190.680002,181.986662 191.479994,181.113337 192.6,180.38 C193.720006,179.646663 195.026659,179.28 196.52,179.28 C197.960007,179.28 199.133329,179.506664 200.04,179.96 C200.946671,180.413336 201.659997,181.006663 202.18,181.74 C202.700003,182.473337 203.059999,183.319995 203.26,184.28 C203.460001,185.240005 203.56,186.226662 203.56,187.24 L203.56,198.24 L201.16,198.24 L201.16,187.36 C201.16,186.61333 201.093334,185.88667 200.96,185.18 C200.826666,184.47333 200.593335,183.840003 200.26,183.28 C199.926665,182.719997 199.460003,182.273335 198.86,181.94 C198.259997,181.606665 197.480005,181.44 196.52,181.44 C195.639996,181.44 194.806671,181.593332 194.02,181.9 C193.233329,182.206668 192.553336,182.67333 191.98,183.3 C191.406664,183.92667 190.953335,184.713329 190.62,185.66 C190.286665,186.606671 190.12,187.719994 190.12,189 L190.12,198.24 L187.72,198.24 L187.72,184.96 Z M208.92,189 C208.92,187.58666 209.159998,186.286673 209.64,185.1 C210.120002,183.913327 210.786662,182.886671 211.64,182.02 C212.493338,181.153329 213.519994,180.480002 214.72,180 C215.920006,179.519998 217.22666,179.28 218.64,179.28 C220.05334,179.28 221.353327,179.519998 222.54,180 C223.726673,180.480002 224.753329,181.153329 225.62,182.02 C226.486671,182.886671 227.159998,183.913327 227.64,185.1 C228.120002,186.286673 228.36,187.58666 228.36,189 C228.36,190.41334 228.120002,191.713327 227.64,192.9 C227.159998,194.086673 226.486671,195.113329 225.62,195.98 C224.753329,196.846671 223.726673,197.519998 222.54,198 C221.353327,198.480002 220.05334,198.72 218.64,198.72 C217.22666,198.72 215.920006,198.480002 214.72,198 C213.519994,197.519998 212.493338,196.846671 211.64,195.98 C210.786662,195.113329 210.120002,194.086673 209.64,192.9 C209.159998,191.713327 208.92,190.41334 208.92,189 Z M211.32,189 C211.32,190.040005 211.486665,191.019995 211.82,191.94 C212.153335,192.860005 212.639997,193.659997 213.28,194.34 C213.920003,195.020003 214.693329,195.559998 215.6,195.96 C216.506671,196.360002 217.519994,196.56 218.64,196.56 C219.760006,196.56 220.773329,196.360002 221.68,195.96 C222.586671,195.559998 223.359997,195.020003 224,194.34 C224.640003,193.659997 225.126665,192.860005 225.46,191.94 C225.793335,191.019995 225.96,190.040005 225.96,189 C225.96,187.959995 225.793335,186.980005 225.46,186.06 C225.126665,185.139995 224.640003,184.340003 224,183.66 C223.359997,182.979997 222.586671,182.440002 221.68,182.04 C220.773329,181.639998 219.760006,181.44 218.64,181.44 C217.519994,181.44 216.506671,181.639998 215.6,182.04 C214.693329,182.440002 213.920003,182.979997 213.28,183.66 C212.639997,184.340003 212.153335,185.139995 211.82,186.06 C211.486665,186.980005 211.32,187.959995 211.32,189 Z M242.76,181.92 L237.48,181.92 L237.48,193.96 C237.48,194.786671 237.706664,195.426664 238.16,195.88 C238.613336,196.333336 239.239996,196.56 240.04,196.56 C240.493336,196.56 240.953331,196.500001 241.42,196.38 C241.886669,196.259999 242.333331,196.106668 242.76,195.92 L242.96,198.08 C242.506664,198.240001 241.98667,198.386666 241.4,198.52 C240.81333,198.653334 240.293336,198.72 239.84,198.72 C238.986662,198.72 238.253336,198.593335 237.64,198.34 C237.026664,198.086665 236.533335,197.746669 236.16,197.32 C235.786665,196.893331 235.513334,196.393336 235.34,195.82 C235.166666,195.246664 235.08,194.62667 235.08,193.96 L235.08,181.92 L231.08,181.92 L231.08,179.76 L235.08,179.76 L235.08,174.44 L237.48,174.44 L237.48,179.76 L242.76,179.76 L242.76,181.92 Z M262.68,193.04 C262.68,193.386668 262.693333,193.806664 262.72,194.3 C262.746667,194.793336 262.766667,195.293331 262.78,195.8 C262.793333,196.306669 262.813333,196.779998 262.84,197.22 C262.866667,197.660002 262.88,197.999999 262.88,198.24 L260.48,198.24 C260.453333,197.546663 260.433333,196.880003 260.42,196.24 C260.406667,195.599997 260.373334,195.186668 260.32,195 L260.2,195 C259.719998,196.013338 258.920006,196.886663 257.8,197.62 C256.679994,198.353337 255.373341,198.72 253.88,198.72 C252.439993,198.72 251.260005,198.493336 250.34,198.04 C249.419995,197.586664 248.700003,196.993337 248.18,196.26 C247.659997,195.526663 247.306668,194.680005 247.12,193.72 C246.933332,192.759995 246.84,191.773338 246.84,190.76 L246.84,179.76 L249.24,179.76 L249.24,190.64 C249.24,191.38667 249.306666,192.11333 249.44,192.82 C249.573334,193.52667 249.806665,194.159997 250.14,194.72 C250.473335,195.280003 250.939997,195.726665 251.54,196.06 C252.140003,196.393335 252.919995,196.56 253.88,196.56 C254.760004,196.56 255.593329,196.406668 256.38,196.1 C257.166671,195.793332 257.846664,195.32667 258.42,194.7 C258.993336,194.07333 259.446665,193.286671 259.78,192.34 C260.113335,191.393329 260.28,190.280006 260.28,189 L260.28,179.76 L262.68,179.76 L262.68,193.04 Z M268.76,168 L271.16,168 L271.16,183 L271.24,183 C271.613335,182.359997 272.079997,181.806669 272.64,181.34 C273.200003,180.873331 273.806663,180.486668 274.46,180.18 C275.113337,179.873332 275.799996,179.646667 276.52,179.5 C277.240004,179.353333 277.946663,179.28 278.64,179.28 C280.05334,179.28 281.353327,179.519998 282.54,180 C283.726673,180.480002 284.753329,181.153329 285.62,182.02 C286.486671,182.886671 287.159998,183.913327 287.64,185.1 C288.120002,186.286673 288.36,187.58666 288.36,189 C288.36,190.41334 288.120002,191.713327 287.64,192.9 C287.159998,194.086673 286.486671,195.113329 285.62,195.98 C284.753329,196.846671 283.726673,197.519998 282.54,198 C281.353327,198.480002 280.05334,198.72 278.64,198.72 C277.946663,198.72 277.240004,198.646667 276.52,198.5 C275.799996,198.353333 275.113337,198.126668 274.46,197.82 C273.806663,197.513332 273.200003,197.126669 272.64,196.66 C272.079997,196.193331 271.613335,195.640003 271.24,195 L271.16,195 L271.16,198.24 L268.76,198.24 L268.76,168 Z M270.92,189 C270.92,190.040005 271.119998,191.019995 271.52,191.94 C271.920002,192.860005 272.466663,193.659997 273.16,194.34 C273.853337,195.020003 274.666662,195.559998 275.6,195.96 C276.533338,196.360002 277.546661,196.56 278.64,196.56 C279.760006,196.56 280.773329,196.360002 281.68,195.96 C282.586671,195.559998 283.359997,195.020003 284,194.34 C284.640003,193.659997 285.126665,192.860005 285.46,191.94 C285.793335,191.019995 285.96,190.040005 285.96,189 C285.96,187.959995 285.793335,186.980005 285.46,186.06 C285.126665,185.139995 284.640003,184.340003 284,183.66 C283.359997,182.979997 282.586671,182.440002 281.68,182.04 C280.773329,181.639998 279.760006,181.44 278.64,181.44 C277.546661,181.44 276.533338,181.639998 275.6,182.04 C274.666662,182.440002 273.853337,182.979997 273.16,183.66 C272.466663,184.340003 271.920002,185.139995 271.52,186.06 C271.119998,186.980005 270.92,187.959995 270.92,189 Z M310.04,194.76 C309.106662,196.17334 307.95334,197.186664 306.58,197.8 C305.20666,198.413336 303.693342,198.72 302.04,198.72 C300.62666,198.72 299.346672,198.480002 298.2,198 C297.053328,197.519998 296.066671,196.846671 295.24,195.98 C294.413329,195.113329 293.780002,194.086673 293.34,192.9 C292.899998,191.713327 292.68,190.400007 292.68,188.96 C292.68,187.573326 292.906664,186.293339 293.36,185.12 C293.813336,183.946661 294.453329,182.926671 295.28,182.06 C296.106671,181.193329 297.079994,180.513336 298.2,180.02 C299.320006,179.526664 300.559993,179.28 301.92,179.28 C303.33334,179.28 304.579995,179.526664 305.66,180.02 C306.740005,180.513336 307.646663,181.166663 308.38,181.98 C309.113337,182.793337 309.666665,183.719995 310.04,184.76 C310.413335,185.800005 310.6,186.853328 310.6,187.92 L310.6,189.6 L295.08,189.6 C295.08,190.106669 295.179999,190.753329 295.38,191.54 C295.580001,192.326671 295.946664,193.09333 296.48,193.84 C297.013336,194.58667 297.726662,195.226664 298.62,195.76 C299.513338,196.293336 300.66666,196.56 302.08,196.56 C303.306673,196.56 304.493328,196.26667 305.64,195.68 C306.786672,195.09333 307.666664,194.293338 308.28,193.28 L310.04,194.76 Z M308.2,187.44 C308.2,186.613329 308.033335,185.840004 307.7,185.12 C307.366665,184.399996 306.913336,183.766669 306.34,183.22 C305.766664,182.673331 305.086671,182.240002 304.3,181.92 C303.513329,181.599998 302.680004,181.44 301.8,181.44 C300.493327,181.44 299.406671,181.706664 298.54,182.24 C297.673329,182.773336 296.986669,183.386663 296.48,184.08 C295.973331,184.773337 295.613334,185.446663 295.4,186.1 C295.186666,186.753337 295.08,187.199999 295.08,187.44 L308.2,187.44 Z M335.4,181.92 L330.12,181.92 L330.12,193.96 C330.12,194.786671 330.346664,195.426664 330.8,195.88 C331.253336,196.333336 331.879996,196.56 332.68,196.56 C333.133336,196.56 333.593331,196.500001 334.06,196.38 C334.526669,196.259999 334.973331,196.106668 335.4,195.92 L335.6,198.08 C335.146664,198.240001 334.62667,198.386666 334.04,198.52 C333.45333,198.653334 332.933336,198.72 332.48,198.72 C331.626662,198.72 330.893336,198.593335 330.28,198.34 C329.666664,198.086665 329.173335,197.746669 328.8,197.32 C328.426665,196.893331 328.153334,196.393336 327.98,195.82 C327.806666,195.246664 327.72,194.62667 327.72,193.96 L327.72,181.92 L323.72,181.92 L323.72,179.76 L327.72,179.76 L327.72,174.44 L330.12,174.44 L330.12,179.76 L335.4,179.76 L335.4,181.92 Z M339.68,184.96 C339.68,184.613332 339.666667,184.193336 339.64,183.7 C339.613333,183.206664 339.593333,182.706669 339.58,182.2 C339.566667,181.693331 339.546667,181.220002 339.52,180.78 C339.493333,180.339998 339.48,180.000001 339.48,179.76 L341.88,179.76 C341.906667,180.453337 341.926667,181.119997 341.94,181.76 C341.953333,182.400003 341.986666,182.813332 342.04,183 C342.653336,181.906661 343.439995,181.013337 344.4,180.32 C345.360005,179.626663 346.533326,179.28 347.92,179.28 C348.160001,179.28 348.393332,179.3 348.62,179.34 C348.846668,179.38 349.079999,179.426666 349.32,179.48 L349.04,181.84 C348.719998,181.733333 348.413335,181.68 348.12,181.68 C347.079995,181.68 346.180004,181.846665 345.42,182.18 C344.659996,182.513335 344.033336,182.97333 343.54,183.56 C343.046664,184.14667 342.680001,184.833329 342.44,185.62 C342.199999,186.406671 342.08,187.253329 342.08,188.16 L342.08,198.24 L339.68,198.24 L339.68,184.96 Z M368.64,193.04 C368.64,193.386668 368.653333,193.806664 368.68,194.3 C368.706667,194.793336 368.726667,195.293331 368.74,195.8 C368.753333,196.306669 368.773333,196.779998 368.8,197.22 C368.826667,197.660002 368.84,197.999999 368.84,198.24 L366.44,198.24 C366.413333,197.546663 366.393333,196.880003 366.38,196.24 C366.366667,195.599997 366.333334,195.186668 366.28,195 L366.16,195 C365.679998,196.013338 364.880006,196.886663 363.76,197.62 C362.639994,198.353337 361.333341,198.72 359.84,198.72 C358.399993,198.72 357.220005,198.493336 356.3,198.04 C355.379995,197.586664 354.660003,196.993337 354.14,196.26 C353.619997,195.526663 353.266668,194.680005 353.08,193.72 C352.893332,192.759995 352.8,191.773338 352.8,190.76 L352.8,179.76 L355.2,179.76 L355.2,190.64 C355.2,191.38667 355.266666,192.11333 355.4,192.82 C355.533334,193.52667 355.766665,194.159997 356.1,194.72 C356.433335,195.280003 356.899997,195.726665 357.5,196.06 C358.100003,196.393335 358.879995,196.56 359.84,196.56 C360.720004,196.56 361.553329,196.406668 362.34,196.1 C363.126671,195.793332 363.806664,195.32667 364.38,194.7 C364.953336,194.07333 365.406665,193.286671 365.74,192.34 C366.073335,191.393329 366.24,190.280006 366.24,189 L366.24,179.76 L368.64,179.76 L368.64,193.04 Z M391.56,194.76 C390.626662,196.17334 389.47334,197.186664 388.1,197.8 C386.72666,198.413336 385.213342,198.72 383.56,198.72 C382.14666,198.72 380.866672,198.480002 379.72,198 C378.573328,197.519998 377.586671,196.846671 376.76,195.98 C375.933329,195.113329 375.300002,194.086673 374.86,192.9 C374.419998,191.713327 374.2,190.400007 374.2,188.96 C374.2,187.573326 374.426664,186.293339 374.88,185.12 C375.333336,183.946661 375.973329,182.926671 376.8,182.06 C377.626671,181.193329 378.599994,180.513336 379.72,180.02 C380.840006,179.526664 382.079993,179.28 383.44,179.28 C384.85334,179.28 386.099995,179.526664 387.18,180.02 C388.260005,180.513336 389.166663,181.166663 389.9,181.98 C390.633337,182.793337 391.186665,183.719995 391.56,184.76 C391.933335,185.800005 392.12,186.853328 392.12,187.92 L392.12,189.6 L376.6,189.6 C376.6,190.106669 376.699999,190.753329 376.9,191.54 C377.100001,192.326671 377.466664,193.09333 378,193.84 C378.533336,194.58667 379.246662,195.226664 380.14,195.76 C381.033338,196.293336 382.18666,196.56 383.6,196.56 C384.826673,196.56 386.013328,196.26667 387.16,195.68 C388.306672,195.09333 389.186664,194.293338 389.8,193.28 L391.56,194.76 Z M389.72,187.44 C389.72,186.613329 389.553335,185.840004 389.22,185.12 C388.886665,184.399996 388.433336,183.766669 387.86,183.22 C387.286664,182.673331 386.606671,182.240002 385.82,181.92 C385.033329,181.599998 384.200004,181.44 383.32,181.44 C382.013327,181.44 380.926671,181.706664 380.06,182.24 C379.193329,182.773336 378.506669,183.386663 378,184.08 C377.493331,184.773337 377.133334,185.446663 376.92,186.1 C376.706666,186.753337 376.6,187.199999 376.6,187.44 L389.72,187.44 Z M405.28,179.76 L407.92,179.76 L412.4,195.24 L412.48,195.24 L417.64,179.76 L419.92,179.76 L425.4,195.24 L425.48,195.24 L429.84,179.76 L432.24,179.76 L426.8,198.24 L424.32,198.24 L418.8,183.12 L418.72,183.12 L413.56,198.24 L411.08,198.24 L405.28,179.76 Z M436.44,179.76 L438.84,179.76 L438.84,198.24 L436.44,198.24 L436.44,179.76 Z M435.84,172.44 C435.84,171.933331 436.013332,171.506668 436.36,171.16 C436.706668,170.813332 437.133331,170.64 437.64,170.64 C438.146669,170.64 438.573332,170.813332 438.92,171.16 C439.266668,171.506668 439.44,171.933331 439.44,172.44 C439.44,172.946669 439.266668,173.373332 438.92,173.72 C438.573332,174.066668 438.146669,174.24 437.64,174.24 C437.133331,174.24 436.706668,174.066668 436.36,173.72 C436.013332,173.373332 435.84,172.946669 435.84,172.44 Z M445.64,184.96 C445.64,184.613332 445.626667,184.193336 445.6,183.7 C445.573333,183.206664 445.553333,182.706669 445.54,182.2 C445.526667,181.693331 445.506667,181.220002 445.48,180.78 C445.453333,180.339998 445.44,180.000001 445.44,179.76 L447.84,179.76 C447.866667,180.453337 447.886667,181.119997 447.9,181.76 C447.913333,182.400003 447.946666,182.813332 448,183 C448.613336,181.906661 449.399995,181.013337 450.36,180.32 C451.320005,179.626663 452.493326,179.28 453.88,179.28 C454.120001,179.28 454.353332,179.3 454.58,179.34 C454.806668,179.38 455.039999,179.426666 455.28,179.48 L455,181.84 C454.679998,181.733333 454.373335,181.68 454.08,181.68 C453.039995,181.68 452.140004,181.846665 451.38,182.18 C450.619996,182.513335 449.993336,182.97333 449.5,183.56 C449.006664,184.14667 448.640001,184.833329 448.4,185.62 C448.159999,186.406671 448.04,187.253329 448.04,188.16 L448.04,198.24 L445.64,198.24 L445.64,184.96 Z M475.28,194.76 C474.346662,196.17334 473.19334,197.186664 471.82,197.8 C470.44666,198.413336 468.933342,198.72 467.28,198.72 C465.86666,198.72 464.586672,198.480002 463.44,198 C462.293328,197.519998 461.306671,196.846671 460.48,195.98 C459.653329,195.113329 459.020002,194.086673 458.58,192.9 C458.139998,191.713327 457.92,190.400007 457.92,188.96 C457.92,187.573326 458.146664,186.293339 458.6,185.12 C459.053336,183.946661 459.693329,182.926671 460.52,182.06 C461.346671,181.193329 462.319994,180.513336 463.44,180.02 C464.560006,179.526664 465.799993,179.28 467.16,179.28 C468.57334,179.28 469.819995,179.526664 470.9,180.02 C471.980005,180.513336 472.886663,181.166663 473.62,181.98 C474.353337,182.793337 474.906665,183.719995 475.28,184.76 C475.653335,185.800005 475.84,186.853328 475.84,187.92 L475.84,189.6 L460.32,189.6 C460.32,190.106669 460.419999,190.753329 460.62,191.54 C460.820001,192.326671 461.186664,193.09333 461.72,193.84 C462.253336,194.58667 462.966662,195.226664 463.86,195.76 C464.753338,196.293336 465.90666,196.56 467.32,196.56 C468.546673,196.56 469.733328,196.26667 470.88,195.68 C472.026672,195.09333 472.906664,194.293338 473.52,193.28 L475.28,194.76 Z M473.44,187.44 C473.44,186.613329 473.273335,185.840004 472.94,185.12 C472.606665,184.399996 472.153336,183.766669 471.58,183.22 C471.006664,182.673331 470.326671,182.240002 469.54,181.92 C468.753329,181.599998 467.920004,181.44 467.04,181.44 C465.733327,181.44 464.646671,181.706664 463.78,182.24 C462.913329,182.773336 462.226669,183.386663 461.72,184.08 C461.213331,184.773337 460.853334,185.446663 460.64,186.1 C460.426666,186.753337 460.32,187.199999 460.32,187.44 L473.44,187.44 Z M481.6,168 L484,168 L484,198.24 L481.6,198.24 L481.6,168 Z M507.12,194.76 C506.186662,196.17334 505.03334,197.186664 503.66,197.8 C502.28666,198.413336 500.773342,198.72 499.12,198.72 C497.70666,198.72 496.426672,198.480002 495.28,198 C494.133328,197.519998 493.146671,196.846671 492.32,195.98 C491.493329,195.113329 490.860002,194.086673 490.42,192.9 C489.979998,191.713327 489.76,190.400007 489.76,188.96 C489.76,187.573326 489.986664,186.293339 490.44,185.12 C490.893336,183.946661 491.533329,182.926671 492.36,182.06 C493.186671,181.193329 494.159994,180.513336 495.28,180.02 C496.400006,179.526664 497.639993,179.28 499,179.28 C500.41334,179.28 501.659995,179.526664 502.74,180.02 C503.820005,180.513336 504.726663,181.166663 505.46,181.98 C506.193337,182.793337 506.746665,183.719995 507.12,184.76 C507.493335,185.800005 507.68,186.853328 507.68,187.92 L507.68,189.6 L492.16,189.6 C492.16,190.106669 492.259999,190.753329 492.46,191.54 C492.660001,192.326671 493.026664,193.09333 493.56,193.84 C494.093336,194.58667 494.806662,195.226664 495.7,195.76 C496.593338,196.293336 497.74666,196.56 499.16,196.56 C500.386673,196.56 501.573328,196.26667 502.72,195.68 C503.866672,195.09333 504.746664,194.293338 505.36,193.28 L507.12,194.76 Z M505.28,187.44 C505.28,186.613329 505.113335,185.840004 504.78,185.12 C504.446665,184.399996 503.993336,183.766669 503.42,183.22 C502.846664,182.673331 502.166671,182.240002 501.38,181.92 C500.593329,181.599998 499.760004,181.44 498.88,181.44 C497.573327,181.44 496.486671,181.706664 495.62,182.24 C494.753329,182.773336 494.066669,183.386663 493.56,184.08 C493.053331,184.773337 492.693334,185.446663 492.48,186.1 C492.266666,186.753337 492.16,187.199999 492.16,187.44 L505.28,187.44 Z M513.08,193.52 C513.586669,194.506672 514.333328,195.259997 515.32,195.78 C516.306672,196.300003 517.346661,196.56 518.44,196.56 C518.946669,196.56 519.453331,196.480001 519.96,196.32 C520.466669,196.159999 520.919998,195.933335 521.32,195.64 C521.720002,195.346665 522.046665,194.993335 522.3,194.58 C522.553335,194.166665 522.68,193.693336 522.68,193.16 C522.68,192.306662 522.406669,191.666669 521.86,191.24 C521.313331,190.813331 520.640004,190.480001 519.84,190.24 C519.039996,189.999999 518.160005,189.793334 517.2,189.62 C516.239995,189.446666 515.360004,189.180002 514.56,188.82 C513.759996,188.459998 513.086669,187.960003 512.54,187.32 C511.993331,186.679997 511.72,185.773339 511.72,184.6 C511.72,183.693329 511.906665,182.90667 512.28,182.24 C512.653335,181.57333 513.139997,181.020002 513.74,180.58 C514.340003,180.139998 515.01333,179.813334 515.76,179.6 C516.50667,179.386666 517.266663,179.28 518.04,179.28 C519.560008,179.28 520.873328,179.559997 521.98,180.12 C523.086672,180.680003 523.946664,181.559994 524.56,182.76 L522.4,184.04 C521.946664,183.186662 521.380003,182.540002 520.7,182.1 C520.019997,181.659998 519.133339,181.44 518.04,181.44 C517.613331,181.44 517.166669,181.506666 516.7,181.64 C516.233331,181.773334 515.813335,181.959999 515.44,182.2 C515.066665,182.440001 514.753335,182.746665 514.5,183.12 C514.246665,183.493335 514.12,183.919998 514.12,184.4 C514.12,185.226671 514.393331,185.839998 514.94,186.24 C515.486669,186.640002 516.159996,186.953332 516.96,187.18 C517.760004,187.406668 518.639995,187.599999 519.6,187.76 C520.560005,187.920001 521.439996,188.179998 522.24,188.54 C523.040004,188.900002 523.713331,189.419997 524.26,190.1 C524.806669,190.780003 525.08,191.74666 525.08,193 C525.08,193.960005 524.900002,194.79333 524.54,195.5 C524.179998,196.20667 523.68667,196.799998 523.06,197.28 C522.43333,197.760002 521.720004,198.119999 520.92,198.36 C520.119996,198.600001 519.280004,198.72 518.4,198.72 C516.799992,198.72 515.340007,198.413336 514.02,197.8 C512.699993,197.186664 511.680004,196.240006 510.96,194.96 L513.08,193.52 Z M530.12,193.52 C530.626669,194.506672 531.373328,195.259997 532.36,195.78 C533.346672,196.300003 534.386661,196.56 535.48,196.56 C535.986669,196.56 536.493331,196.480001 537,196.32 C537.506669,196.159999 537.959998,195.933335 538.36,195.64 C538.760002,195.346665 539.086665,194.993335 539.34,194.58 C539.593335,194.166665 539.72,193.693336 539.72,193.16 C539.72,192.306662 539.446669,191.666669 538.9,191.24 C538.353331,190.813331 537.680004,190.480001 536.88,190.24 C536.079996,189.999999 535.200005,189.793334 534.24,189.62 C533.279995,189.446666 532.400004,189.180002 531.6,188.82 C530.799996,188.459998 530.126669,187.960003 529.58,187.32 C529.033331,186.679997 528.76,185.773339 528.76,184.6 C528.76,183.693329 528.946665,182.90667 529.32,182.24 C529.693335,181.57333 530.179997,181.020002 530.78,180.58 C531.380003,180.139998 532.05333,179.813334 532.8,179.6 C533.54667,179.386666 534.306663,179.28 535.08,179.28 C536.600008,179.28 537.913328,179.559997 539.02,180.12 C540.126672,180.680003 540.986664,181.559994 541.6,182.76 L539.44,184.04 C538.986664,183.186662 538.420003,182.540002 537.74,182.1 C537.059997,181.659998 536.173339,181.44 535.08,181.44 C534.653331,181.44 534.206669,181.506666 533.74,181.64 C533.273331,181.773334 532.853335,181.959999 532.48,182.2 C532.106665,182.440001 531.793335,182.746665 531.54,183.12 C531.286665,183.493335 531.16,183.919998 531.16,184.4 C531.16,185.226671 531.433331,185.839998 531.98,186.24 C532.526669,186.640002 533.199996,186.953332 534,187.18 C534.800004,187.406668 535.679995,187.599999 536.64,187.76 C537.600005,187.920001 538.479996,188.179998 539.28,188.54 C540.080004,188.900002 540.753331,189.419997 541.3,190.1 C541.846669,190.780003 542.12,191.74666 542.12,193 C542.12,193.960005 541.940002,194.79333 541.58,195.5 C541.219998,196.20667 540.72667,196.799998 540.1,197.28 C539.47333,197.760002 538.760004,198.119999 537.96,198.36 C537.159996,198.600001 536.320004,198.72 535.44,198.72 C533.839992,198.72 532.380007,198.413336 531.06,197.8 C529.739993,197.186664 528.720004,196.240006 528,194.96 L530.12,193.52 Z M557.56,193.52 C558.066669,194.506672 558.813328,195.259997 559.8,195.78 C560.786672,196.300003 561.826661,196.56 562.92,196.56 C563.426669,196.56 563.933331,196.480001 564.44,196.32 C564.946669,196.159999 565.399998,195.933335 565.8,195.64 C566.200002,195.346665 566.526665,194.993335 566.78,194.58 C567.033335,194.166665 567.16,193.693336 567.16,193.16 C567.16,192.306662 566.886669,191.666669 566.34,191.24 C565.793331,190.813331 565.120004,190.480001 564.32,190.24 C563.519996,189.999999 562.640005,189.793334 561.68,189.62 C560.719995,189.446666 559.840004,189.180002 559.04,188.82 C558.239996,188.459998 557.566669,187.960003 557.02,187.32 C556.473331,186.679997 556.2,185.773339 556.2,184.6 C556.2,183.693329 556.386665,182.90667 556.76,182.24 C557.133335,181.57333 557.619997,181.020002 558.22,180.58 C558.820003,180.139998 559.49333,179.813334 560.24,179.6 C560.98667,179.386666 561.746663,179.28 562.52,179.28 C564.040008,179.28 565.353328,179.559997 566.46,180.12 C567.566672,180.680003 568.426664,181.559994 569.04,182.76 L566.88,184.04 C566.426664,183.186662 565.860003,182.540002 565.18,182.1 C564.499997,181.659998 563.613339,181.44 562.52,181.44 C562.093331,181.44 561.646669,181.506666 561.18,181.64 C560.713331,181.773334 560.293335,181.959999 559.92,182.2 C559.546665,182.440001 559.233335,182.746665 558.98,183.12 C558.726665,183.493335 558.6,183.919998 558.6,184.4 C558.6,185.226671 558.873331,185.839998 559.42,186.24 C559.966669,186.640002 560.639996,186.953332 561.44,187.18 C562.240004,187.406668 563.119995,187.599999 564.08,187.76 C565.040005,187.920001 565.919996,188.179998 566.72,188.54 C567.520004,188.900002 568.193331,189.419997 568.74,190.1 C569.286669,190.780003 569.56,191.74666 569.56,193 C569.56,193.960005 569.380002,194.79333 569.02,195.5 C568.659998,196.20667 568.16667,196.799998 567.54,197.28 C566.91333,197.760002 566.200004,198.119999 565.4,198.36 C564.599996,198.600001 563.760004,198.72 562.88,198.72 C561.279992,198.72 559.820007,198.413336 558.5,197.8 C557.179993,197.186664 556.160004,196.240006 555.44,194.96 L557.56,193.52 Z M583.6,181.92 L578.32,181.92 L578.32,193.96 C578.32,194.786671 578.546664,195.426664 579,195.88 C579.453336,196.333336 580.079996,196.56 580.88,196.56 C581.333336,196.56 581.793331,196.500001 582.26,196.38 C582.726669,196.259999 583.173331,196.106668 583.6,195.92 L583.8,198.08 C583.346664,198.240001 582.82667,198.386666 582.24,198.52 C581.65333,198.653334 581.133336,198.72 580.68,198.72 C579.826662,198.72 579.093336,198.593335 578.48,198.34 C577.866664,198.086665 577.373335,197.746669 577,197.32 C576.626665,196.893331 576.353334,196.393336 576.18,195.82 C576.006666,195.246664 575.92,194.62667 575.92,193.96 L575.92,181.92 L571.92,181.92 L571.92,179.76 L575.92,179.76 L575.92,174.44 L578.32,174.44 L578.32,179.76 L583.6,179.76 L583.6,181.92 Z M604.2,194.76 C603.266662,196.17334 602.11334,197.186664 600.74,197.8 C599.36666,198.413336 597.853342,198.72 596.2,198.72 C594.78666,198.72 593.506672,198.480002 592.36,198 C591.213328,197.519998 590.226671,196.846671 589.4,195.98 C588.573329,195.113329 587.940002,194.086673 587.5,192.9 C587.059998,191.713327 586.84,190.400007 586.84,188.96 C586.84,187.573326 587.066664,186.293339 587.52,185.12 C587.973336,183.946661 588.613329,182.926671 589.44,182.06 C590.266671,181.193329 591.239994,180.513336 592.36,180.02 C593.480006,179.526664 594.719993,179.28 596.08,179.28 C597.49334,179.28 598.739995,179.526664 599.82,180.02 C600.900005,180.513336 601.806663,181.166663 602.54,181.98 C603.273337,182.793337 603.826665,183.719995 604.2,184.76 C604.573335,185.800005 604.76,186.853328 604.76,187.92 L604.76,189.6 L589.24,189.6 C589.24,190.106669 589.339999,190.753329 589.54,191.54 C589.740001,192.326671 590.106664,193.09333 590.64,193.84 C591.173336,194.58667 591.886662,195.226664 592.78,195.76 C593.673338,196.293336 594.82666,196.56 596.24,196.56 C597.466673,196.56 598.653328,196.26667 599.8,195.68 C600.946672,195.09333 601.826664,194.293338 602.44,193.28 L604.2,194.76 Z M602.36,187.44 C602.36,186.613329 602.193335,185.840004 601.86,185.12 C601.526665,184.399996 601.073336,183.766669 600.5,183.22 C599.926664,182.673331 599.246671,182.240002 598.46,181.92 C597.673329,181.599998 596.840004,181.44 595.96,181.44 C594.653327,181.44 593.566671,181.706664 592.7,182.24 C591.833329,182.773336 591.146669,183.386663 590.64,184.08 C590.133331,184.773337 589.773334,185.446663 589.56,186.1 C589.346666,186.753337 589.24,187.199999 589.24,187.44 L602.36,187.44 Z M610.12,184.96 C610.12,184.613332 610.106667,184.193336 610.08,183.7 C610.053333,183.206664 610.033333,182.706669 610.02,182.2 C610.006667,181.693331 609.986667,181.220002 609.96,180.78 C609.933333,180.339998 609.92,180.000001 609.92,179.76 L612.32,179.76 C612.346667,180.453337 612.366667,181.119997 612.38,181.76 C612.393333,182.400003 612.426666,182.813332 612.48,183 C613.093336,181.906661 613.879995,181.013337 614.84,180.32 C615.800005,179.626663 616.973326,179.28 618.36,179.28 C618.600001,179.28 618.833332,179.3 619.06,179.34 C619.286668,179.38 619.519999,179.426666 619.76,179.48 L619.48,181.84 C619.159998,181.733333 618.853335,181.68 618.56,181.68 C617.519995,181.68 616.620004,181.846665 615.86,182.18 C615.099996,182.513335 614.473336,182.97333 613.98,183.56 C613.486664,184.14667 613.120001,184.833329 612.88,185.62 C612.639999,186.406671 612.52,187.253329 612.52,188.16 L612.52,198.24 L610.12,198.24 L610.12,184.96 Z M639.76,194.76 C638.826662,196.17334 637.67334,197.186664 636.3,197.8 C634.92666,198.413336 633.413342,198.72 631.76,198.72 C630.34666,198.72 629.066672,198.480002 627.92,198 C626.773328,197.519998 625.786671,196.846671 624.96,195.98 C624.133329,195.113329 623.500002,194.086673 623.06,192.9 C622.619998,191.713327 622.4,190.400007 622.4,188.96 C622.4,187.573326 622.626664,186.293339 623.08,185.12 C623.533336,183.946661 624.173329,182.926671 625,182.06 C625.826671,181.193329 626.799994,180.513336 627.92,180.02 C629.040006,179.526664 630.279993,179.28 631.64,179.28 C633.05334,179.28 634.299995,179.526664 635.38,180.02 C636.460005,180.513336 637.366663,181.166663 638.1,181.98 C638.833337,182.793337 639.386665,183.719995 639.76,184.76 C640.133335,185.800005 640.32,186.853328 640.32,187.92 L640.32,189.6 L624.8,189.6 C624.8,190.106669 624.899999,190.753329 625.1,191.54 C625.300001,192.326671 625.666664,193.09333 626.2,193.84 C626.733336,194.58667 627.446662,195.226664 628.34,195.76 C629.233338,196.293336 630.38666,196.56 631.8,196.56 C633.026673,196.56 634.213328,196.26667 635.36,195.68 C636.506672,195.09333 637.386664,194.293338 638,193.28 L639.76,194.76 Z M637.92,187.44 C637.92,186.613329 637.753335,185.840004 637.42,185.12 C637.086665,184.399996 636.633336,183.766669 636.06,183.22 C635.486664,182.673331 634.806671,182.240002 634.02,181.92 C633.233329,181.599998 632.400004,181.44 631.52,181.44 C630.213327,181.44 629.126671,181.706664 628.26,182.24 C627.393329,182.773336 626.706669,183.386663 626.2,184.08 C625.693331,184.773337 625.333334,185.446663 625.12,186.1 C624.906666,186.753337 624.8,187.199999 624.8,187.44 L637.92,187.44 Z M644.64,189 C644.64,187.58666 644.879998,186.286673 645.36,185.1 C645.840002,183.913327 646.506662,182.886671 647.36,182.02 C648.213338,181.153329 649.239994,180.480002 650.44,180 C651.640006,179.519998 652.94666,179.28 654.36,179.28 C655.77334,179.28 657.073327,179.519998 658.26,180 C659.446673,180.480002 660.473329,181.153329 661.34,182.02 C662.206671,182.886671 662.879998,183.913327 663.36,185.1 C663.840002,186.286673 664.08,187.58666 664.08,189 C664.08,190.41334 663.840002,191.713327 663.36,192.9 C662.879998,194.086673 662.206671,195.113329 661.34,195.98 C660.473329,196.846671 659.446673,197.519998 658.26,198 C657.073327,198.480002 655.77334,198.72 654.36,198.72 C652.94666,198.72 651.640006,198.480002 650.44,198 C649.239994,197.519998 648.213338,196.846671 647.36,195.98 C646.506662,195.113329 645.840002,194.086673 645.36,192.9 C644.879998,191.713327 644.64,190.41334 644.64,189 Z M647.04,189 C647.04,190.040005 647.206665,191.019995 647.54,191.94 C647.873335,192.860005 648.359997,193.659997 649,194.34 C649.640003,195.020003 650.413329,195.559998 651.32,195.96 C652.226671,196.360002 653.239994,196.56 654.36,196.56 C655.480006,196.56 656.493329,196.360002 657.4,195.96 C658.306671,195.559998 659.079997,195.020003 659.72,194.34 C660.360003,193.659997 660.846665,192.860005 661.18,191.94 C661.513335,191.019995 661.68,190.040005 661.68,189 C661.68,187.959995 661.513335,186.980005 661.18,186.06 C660.846665,185.139995 660.360003,184.340003 659.72,183.66 C659.079997,182.979997 658.306671,182.440002 657.4,182.04 C656.493329,181.639998 655.480006,181.44 654.36,181.44 C653.239994,181.44 652.226671,181.639998 651.32,182.04 C650.413329,182.440002 649.640003,182.979997 649,183.66 C648.359997,184.340003 647.873335,185.139995 647.54,186.06 C647.206665,186.980005 647.04,187.959995 647.04,189 Z M680.24,179.76 L682.64,179.76 L682.64,198.24 L680.24,198.24 L680.24,179.76 Z M679.64,172.44 C679.64,171.933331 679.813332,171.506668 680.16,171.16 C680.506668,170.813332 680.933331,170.64 681.44,170.64 C681.946669,170.64 682.373332,170.813332 682.72,171.16 C683.066668,171.506668 683.24,171.933331 683.24,172.44 C683.24,172.946669 683.066668,173.373332 682.72,173.72 C682.373332,174.066668 681.946669,174.24 681.44,174.24 C680.933331,174.24 680.506668,174.066668 680.16,173.72 C679.813332,173.373332 679.64,172.946669 679.64,172.44 Z M689.44,184.96 C689.44,184.613332 689.426667,184.193336 689.4,183.7 C689.373333,183.206664 689.353333,182.706669 689.34,182.2 C689.326667,181.693331 689.306667,181.220002 689.28,180.78 C689.253333,180.339998 689.24,180.000001 689.24,179.76 L691.64,179.76 C691.666667,180.453337 691.686667,181.119997 691.7,181.76 C691.713333,182.400003 691.746666,182.813332 691.8,183 L691.92,183 C692.400002,181.986662 693.199994,181.113337 694.32,180.38 C695.440006,179.646663 696.746659,179.28 698.24,179.28 C699.680007,179.28 700.853329,179.506664 701.76,179.96 C702.666671,180.413336 703.379997,181.006663 703.9,181.74 C704.420003,182.473337 704.779999,183.319995 704.98,184.28 C705.180001,185.240005 705.28,186.226662 705.28,187.24 L705.28,198.24 L702.88,198.24 L702.88,187.36 C702.88,186.61333 702.813334,185.88667 702.68,185.18 C702.546666,184.47333 702.313335,183.840003 701.98,183.28 C701.646665,182.719997 701.180003,182.273335 700.58,181.94 C699.979997,181.606665 699.200005,181.44 698.24,181.44 C697.359996,181.44 696.526671,181.593332 695.74,181.9 C694.953329,182.206668 694.273336,182.67333 693.7,183.3 C693.126664,183.92667 692.673335,184.713329 692.34,185.66 C692.006665,186.606671 691.84,187.719994 691.84,189 L691.84,198.24 L689.44,198.24 L689.44,184.96 Z M710.2,187.68 L720.08,187.68 L720.08,189.84 L710.2,189.84 L710.2,187.68 Z M741.32,194.76 C740.386662,196.17334 739.23334,197.186664 737.86,197.8 C736.48666,198.413336 734.973342,198.72 733.32,198.72 C731.90666,198.72 730.626672,198.480002 729.48,198 C728.333328,197.519998 727.346671,196.846671 726.52,195.98 C725.693329,195.113329 725.060002,194.086673 724.62,192.9 C724.179998,191.713327 723.96,190.400007 723.96,188.96 C723.96,187.573326 724.186664,186.293339 724.64,185.12 C725.093336,183.946661 725.733329,182.926671 726.56,182.06 C727.386671,181.193329 728.359994,180.513336 729.48,180.02 C730.600006,179.526664 731.839993,179.28 733.2,179.28 C734.61334,179.28 735.859995,179.526664 736.94,180.02 C738.020005,180.513336 738.926663,181.166663 739.66,181.98 C740.393337,182.793337 740.946665,183.719995 741.32,184.76 C741.693335,185.800005 741.88,186.853328 741.88,187.92 L741.88,189.6 L726.36,189.6 C726.36,190.106669 726.459999,190.753329 726.66,191.54 C726.860001,192.326671 727.226664,193.09333 727.76,193.84 C728.293336,194.58667 729.006662,195.226664 729.9,195.76 C730.793338,196.293336 731.94666,196.56 733.36,196.56 C734.586673,196.56 735.773328,196.26667 736.92,195.68 C738.066672,195.09333 738.946664,194.293338 739.56,193.28 L741.32,194.76 Z M739.48,187.44 C739.48,186.613329 739.313335,185.840004 738.98,185.12 C738.646665,184.399996 738.193336,183.766669 737.62,183.22 C737.046664,182.673331 736.366671,182.240002 735.58,181.92 C734.793329,181.599998 733.960004,181.44 733.08,181.44 C731.773327,181.44 730.686671,181.706664 729.82,182.24 C728.953329,182.773336 728.266669,183.386663 727.76,184.08 C727.253331,184.773337 726.893334,185.446663 726.68,186.1 C726.466666,186.753337 726.36,187.199999 726.36,187.44 L739.48,187.44 Z M761.6,190.48 C761.6,191.386671 761.606667,192.199996 761.62,192.92 C761.633333,193.640004 761.653333,194.306664 761.68,194.92 C761.706667,195.533336 761.74,196.106664 761.78,196.64 C761.82,197.173336 761.88,197.706664 761.96,198.24 L759.72,198.24 C759.559999,197.333329 759.48,196.333339 759.48,195.24 L759.4,195.24 C758.706663,196.440006 757.846672,197.319997 756.82,197.88 C755.793328,198.440003 754.493341,198.72 752.92,198.72 C752.119996,198.72 751.333337,198.620001 750.56,198.42 C749.786663,198.219999 749.093336,197.900002 748.48,197.46 C747.866664,197.019998 747.366669,196.453337 746.98,195.76 C746.593331,195.066663 746.4,194.226672 746.4,193.24 C746.4,191.82666 746.759996,190.706671 747.48,189.88 C748.200004,189.053329 749.086661,188.433335 750.14,188.02 C751.193339,187.606665 752.313327,187.340001 753.5,187.22 C754.686673,187.099999 755.733329,187.04 756.64,187.04 L759.44,187.04 L759.44,185.92 C759.44,184.319992 758.946672,183.173337 757.96,182.48 C756.973328,181.786663 755.733341,181.44 754.24,181.44 C752.106656,181.44 750.226675,182.133326 748.6,183.52 L747.2,181.88 C748.080004,181.026662 749.173327,180.380002 750.48,179.94 C751.786673,179.499998 753.039994,179.28 754.24,179.28 C756.480011,179.28 758.26666,179.806661 759.6,180.86 C760.93334,181.913339 761.6,183.613322 761.6,185.96 L761.6,190.48 Z M756.8,188.96 C755.786662,188.96 754.806671,189.026666 753.86,189.16 C752.913329,189.293334 752.060004,189.519998 751.3,189.84 C750.539996,190.160002 749.933336,190.586664 749.48,191.12 C749.026664,191.653336 748.8,192.319996 748.8,193.12 C748.8,193.680003 748.926665,194.179998 749.18,194.62 C749.433335,195.060002 749.759998,195.419999 750.16,195.7 C750.560002,195.980001 751.006664,196.193333 751.5,196.34 C751.993336,196.486667 752.493331,196.56 753,196.56 C754.280006,196.56 755.333329,196.373335 756.16,196 C756.986671,195.626665 757.646664,195.140003 758.14,194.54 C758.633336,193.939997 758.973332,193.260004 759.16,192.5 C759.346668,191.739996 759.44,190.973337 759.44,190.2 L759.44,188.96 L756.8,188.96 Z M768,184.96 C768,184.613332 767.986667,184.193336 767.96,183.7 C767.933333,183.206664 767.913333,182.706669 767.9,182.2 C767.886667,181.693331 767.866667,181.220002 767.84,180.78 C767.813333,180.339998 767.8,180.000001 767.8,179.76 L770.2,179.76 C770.226667,180.453337 770.246667,181.119997 770.26,181.76 C770.273333,182.400003 770.306666,182.813332 770.36,183 C770.973336,181.906661 771.759995,181.013337 772.72,180.32 C773.680005,179.626663 774.853326,179.28 776.24,179.28 C776.480001,179.28 776.713332,179.3 776.94,179.34 C777.166668,179.38 777.399999,179.426666 777.64,179.48 L777.36,181.84 C777.039998,181.733333 776.733335,181.68 776.44,181.68 C775.399995,181.68 774.500004,181.846665 773.74,182.18 C772.979996,182.513335 772.353336,182.97333 771.86,183.56 C771.366664,184.14667 771.000001,184.833329 770.76,185.62 C770.519999,186.406671 770.4,187.253329 770.4,188.16 L770.4,198.24 L768,198.24 L768,184.96 Z M791.72,168 L794.12,168 L794.12,183 L794.2,183 C794.680002,181.986662 795.479994,181.113337 796.6,180.38 C797.720006,179.646663 799.026659,179.28 800.52,179.28 C801.960007,179.28 803.133329,179.506664 804.04,179.96 C804.946671,180.413336 805.659997,181.006663 806.18,181.74 C806.700003,182.473337 807.059999,183.319995 807.26,184.28 C807.460001,185.240005 807.56,186.226662 807.56,187.24 L807.56,198.24 L805.16,198.24 L805.16,187.36 C805.16,186.61333 805.093334,185.88667 804.96,185.18 C804.826666,184.47333 804.593335,183.840003 804.26,183.28 C803.926665,182.719997 803.460003,182.273335 802.86,181.94 C802.259997,181.606665 801.480005,181.44 800.52,181.44 C799.639996,181.44 798.806671,181.593332 798.02,181.9 C797.233329,182.206668 796.553336,182.67333 795.98,183.3 C795.406664,183.92667 794.953335,184.713329 794.62,185.66 C794.286665,186.606671 794.12,187.719994 794.12,189 L794.12,198.24 L791.72,198.24 L791.72,168 Z M830.28,194.76 C829.346662,196.17334 828.19334,197.186664 826.82,197.8 C825.44666,198.413336 823.933342,198.72 822.28,198.72 C820.86666,198.72 819.586672,198.480002 818.44,198 C817.293328,197.519998 816.306671,196.846671 815.48,195.98 C814.653329,195.113329 814.020002,194.086673 813.58,192.9 C813.139998,191.713327 812.92,190.400007 812.92,188.96 C812.92,187.573326 813.146664,186.293339 813.6,185.12 C814.053336,183.946661 814.693329,182.926671 815.52,182.06 C816.346671,181.193329 817.319994,180.513336 818.44,180.02 C819.560006,179.526664 820.799993,179.28 822.16,179.28 C823.57334,179.28 824.819995,179.526664 825.9,180.02 C826.980005,180.513336 827.886663,181.166663 828.62,181.98 C829.353337,182.793337 829.906665,183.719995 830.28,184.76 C830.653335,185.800005 830.84,186.853328 830.84,187.92 L830.84,189.6 L815.32,189.6 C815.32,190.106669 815.419999,190.753329 815.62,191.54 C815.820001,192.326671 816.186664,193.09333 816.72,193.84 C817.253336,194.58667 817.966662,195.226664 818.86,195.76 C819.753338,196.293336 820.90666,196.56 822.32,196.56 C823.546673,196.56 824.733328,196.26667 825.88,195.68 C827.026672,195.09333 827.906664,194.293338 828.52,193.28 L830.28,194.76 Z M828.44,187.44 C828.44,186.613329 828.273335,185.840004 827.94,185.12 C827.606665,184.399996 827.153336,183.766669 826.58,183.22 C826.006664,182.673331 825.326671,182.240002 824.54,181.92 C823.753329,181.599998 822.920004,181.44 822.04,181.44 C820.733327,181.44 819.646671,181.706664 818.78,182.24 C817.913329,182.773336 817.226669,183.386663 816.72,184.08 C816.213331,184.773337 815.853334,185.446663 815.64,186.1 C815.426666,186.753337 815.32,187.199999 815.32,187.44 L828.44,187.44 Z M850.56,190.48 C850.56,191.386671 850.566667,192.199996 850.58,192.92 C850.593333,193.640004 850.613333,194.306664 850.64,194.92 C850.666667,195.533336 850.7,196.106664 850.74,196.64 C850.78,197.173336 850.84,197.706664 850.92,198.24 L848.68,198.24 C848.519999,197.333329 848.44,196.333339 848.44,195.24 L848.36,195.24 C847.666663,196.440006 846.806672,197.319997 845.78,197.88 C844.753328,198.440003 843.453341,198.72 841.88,198.72 C841.079996,198.72 840.293337,198.620001 839.52,198.42 C838.746663,198.219999 838.053336,197.900002 837.44,197.46 C836.826664,197.019998 836.326669,196.453337 835.94,195.76 C835.553331,195.066663 835.36,194.226672 835.36,193.24 C835.36,191.82666 835.719996,190.706671 836.44,189.88 C837.160004,189.053329 838.046661,188.433335 839.1,188.02 C840.153339,187.606665 841.273327,187.340001 842.46,187.22 C843.646673,187.099999 844.693329,187.04 845.6,187.04 L848.4,187.04 L848.4,185.92 C848.4,184.319992 847.906672,183.173337 846.92,182.48 C845.933328,181.786663 844.693341,181.44 843.2,181.44 C841.066656,181.44 839.186675,182.133326 837.56,183.52 L836.16,181.88 C837.040004,181.026662 838.133327,180.380002 839.44,179.94 C840.746673,179.499998 841.999994,179.28 843.2,179.28 C845.440011,179.28 847.22666,179.806661 848.56,180.86 C849.89334,181.913339 850.56,183.613322 850.56,185.96 L850.56,190.48 Z M845.76,188.96 C844.746662,188.96 843.766671,189.026666 842.82,189.16 C841.873329,189.293334 841.020004,189.519998 840.26,189.84 C839.499996,190.160002 838.893336,190.586664 838.44,191.12 C837.986664,191.653336 837.76,192.319996 837.76,193.12 C837.76,193.680003 837.886665,194.179998 838.14,194.62 C838.393335,195.060002 838.719998,195.419999 839.12,195.7 C839.520002,195.980001 839.966664,196.193333 840.46,196.34 C840.953336,196.486667 841.453331,196.56 841.96,196.56 C843.240006,196.56 844.293329,196.373335 845.12,196 C845.946671,195.626665 846.606664,195.140003 847.1,194.54 C847.593336,193.939997 847.933332,193.260004 848.12,192.5 C848.306668,191.739996 848.4,190.973337 848.4,190.2 L848.4,188.96 L845.76,188.96 Z M873.12,195 L873.04,195 C872.666665,195.640003 872.200003,196.193331 871.64,196.66 C871.079997,197.126669 870.473337,197.513332 869.82,197.82 C869.166663,198.126668 868.480004,198.353333 867.76,198.5 C867.039996,198.646667 866.333337,198.72 865.64,198.72 C864.22666,198.72 862.920006,198.480002 861.72,198 C860.519994,197.519998 859.493338,196.846671 858.64,195.98 C857.786662,195.113329 857.120002,194.086673 856.64,192.9 C856.159998,191.713327 855.92,190.41334 855.92,189 C855.92,187.58666 856.159998,186.286673 856.64,185.1 C857.120002,183.913327 857.786662,182.886671 858.64,182.02 C859.493338,181.153329 860.519994,180.480002 861.72,180 C862.920006,179.519998 864.22666,179.28 865.64,179.28 C866.333337,179.28 867.039996,179.353333 867.76,179.5 C868.480004,179.646667 869.166663,179.873332 869.82,180.18 C870.473337,180.486668 871.079997,180.873331 871.64,181.34 C872.200003,181.806669 872.666665,182.359997 873.04,183 L873.12,183 L873.12,168 L875.52,168 L875.52,198.24 L873.12,198.24 L873.12,195 Z M873.36,189 C873.36,187.959995 873.160002,186.980005 872.76,186.06 C872.359998,185.139995 871.813337,184.340003 871.12,183.66 C870.426663,182.979997 869.613338,182.440002 868.68,182.04 C867.746662,181.639998 866.733339,181.44 865.64,181.44 C864.519994,181.44 863.506671,181.639998 862.6,182.04 C861.693329,182.440002 860.920003,182.979997 860.28,183.66 C859.639997,184.340003 859.153335,185.139995 858.82,186.06 C858.486665,186.980005 858.32,187.959995 858.32,189 C858.32,190.040005 858.486665,191.019995 858.82,191.94 C859.153335,192.860005 859.639997,193.659997 860.28,194.34 C860.920003,195.020003 861.693329,195.559998 862.6,195.96 C863.506671,196.360002 864.519994,196.56 865.64,196.56 C866.733339,196.56 867.746662,196.360002 868.68,195.96 C869.613338,195.559998 870.426663,195.020003 871.12,194.34 C871.813337,193.659997 872.359998,192.860005 872.76,191.94 C873.160002,191.019995 873.36,190.040005 873.36,189 Z M880.88,179.76 L883.28,179.76 L883.28,183 L883.36,183 C883.733335,182.359997 884.199997,181.806669 884.76,181.34 C885.320003,180.873331 885.926663,180.486668 886.58,180.18 C887.233337,179.873332 887.919996,179.646667 888.64,179.5 C889.360004,179.353333 890.066663,179.28 890.76,179.28 C892.17334,179.28 893.473327,179.519998 894.66,180 C895.846673,180.480002 896.873329,181.153329 897.74,182.02 C898.606671,182.886671 899.279998,183.913327 899.76,185.1 C900.240002,186.286673 900.48,187.58666 900.48,189 C900.48,190.41334 900.240002,191.713327 899.76,192.9 C899.279998,194.086673 898.606671,195.113329 897.74,195.98 C896.873329,196.846671 895.846673,197.519998 894.66,198 C893.473327,198.480002 892.17334,198.72 890.76,198.72 C890.066663,198.72 889.360004,198.646667 888.64,198.5 C887.919996,198.353333 887.233337,198.126668 886.58,197.82 C885.926663,197.513332 885.320003,197.126669 884.76,196.66 C884.199997,196.193331 883.733335,195.640003 883.36,195 L883.28,195 L883.28,207.36 L880.88,207.36 L880.88,179.76 Z M883.04,189 C883.04,190.040005 883.239998,191.019995 883.64,191.94 C884.040002,192.860005 884.586663,193.659997 885.28,194.34 C885.973337,195.020003 886.786662,195.559998 887.72,195.96 C888.653338,196.360002 889.666661,196.56 890.76,196.56 C891.880006,196.56 892.893329,196.360002 893.8,195.96 C894.706671,195.559998 895.479997,195.020003 896.12,194.34 C896.760003,193.659997 897.246665,192.860005 897.58,191.94 C897.913335,191.019995 898.08,190.040005 898.08,189 C898.08,187.959995 897.913335,186.980005 897.58,186.06 C897.246665,185.139995 896.760003,184.340003 896.12,183.66 C895.479997,182.979997 894.706671,182.440002 893.8,182.04 C892.893329,181.639998 891.880006,181.44 890.76,181.44 C889.666661,181.44 888.653338,181.639998 887.72,182.04 C886.786662,182.440002 885.973337,182.979997 885.28,183.66 C884.586663,184.340003 884.040002,185.139995 883.64,186.06 C883.239998,186.980005 883.04,187.959995 883.04,189 Z M905.84,168 L908.24,168 L908.24,183 L908.32,183 C908.800002,181.986662 909.599994,181.113337 910.72,180.38 C911.840006,179.646663 913.146659,179.28 914.64,179.28 C916.080007,179.28 917.253329,179.506664 918.16,179.96 C919.066671,180.413336 919.779997,181.006663 920.3,181.74 C920.820003,182.473337 921.179999,183.319995 921.38,184.28 C921.580001,185.240005 921.68,186.226662 921.68,187.24 L921.68,198.24 L919.28,198.24 L919.28,187.36 C919.28,186.61333 919.213334,185.88667 919.08,185.18 C918.946666,184.47333 918.713335,183.840003 918.38,183.28 C918.046665,182.719997 917.580003,182.273335 916.98,181.94 C916.379997,181.606665 915.600005,181.44 914.64,181.44 C913.759996,181.44 912.926671,181.593332 912.14,181.9 C911.353329,182.206668 910.673336,182.67333 910.1,183.3 C909.526664,183.92667 909.073335,184.713329 908.74,185.66 C908.406665,186.606671 908.24,187.719994 908.24,189 L908.24,198.24 L905.84,198.24 L905.84,168 Z M927.04,189 C927.04,187.58666 927.279998,186.286673 927.76,185.1 C928.240002,183.913327 928.906662,182.886671 929.76,182.02 C930.613338,181.153329 931.639994,180.480002 932.84,180 C934.040006,179.519998 935.34666,179.28 936.76,179.28 C938.17334,179.28 939.473327,179.519998 940.66,180 C941.846673,180.480002 942.873329,181.153329 943.74,182.02 C944.606671,182.886671 945.279998,183.913327 945.76,185.1 C946.240002,186.286673 946.48,187.58666 946.48,189 C946.48,190.41334 946.240002,191.713327 945.76,192.9 C945.279998,194.086673 944.606671,195.113329 943.74,195.98 C942.873329,196.846671 941.846673,197.519998 940.66,198 C939.473327,198.480002 938.17334,198.72 936.76,198.72 C935.34666,198.72 934.040006,198.480002 932.84,198 C931.639994,197.519998 930.613338,196.846671 929.76,195.98 C928.906662,195.113329 928.240002,194.086673 927.76,192.9 C927.279998,191.713327 927.04,190.41334 927.04,189 Z M929.44,189 C929.44,190.040005 929.606665,191.019995 929.94,191.94 C930.273335,192.860005 930.759997,193.659997 931.4,194.34 C932.040003,195.020003 932.813329,195.559998 933.72,195.96 C934.626671,196.360002 935.639994,196.56 936.76,196.56 C937.880006,196.56 938.893329,196.360002 939.8,195.96 C940.706671,195.559998 941.479997,195.020003 942.12,194.34 C942.760003,193.659997 943.246665,192.860005 943.58,191.94 C943.913335,191.019995 944.08,190.040005 944.08,189 C944.08,187.959995 943.913335,186.980005 943.58,186.06 C943.246665,185.139995 942.760003,184.340003 942.12,183.66 C941.479997,182.979997 940.706671,182.440002 939.8,182.04 C938.893329,181.639998 937.880006,181.44 936.76,181.44 C935.639994,181.44 934.626671,181.639998 933.72,182.04 C932.813329,182.440002 932.040003,182.979997 931.4,183.66 C930.759997,184.340003 930.273335,185.139995 929.94,186.06 C929.606665,186.980005 929.44,187.959995 929.44,189 Z M951.84,184.96 C951.84,184.613332 951.826667,184.193336 951.8,183.7 C951.773333,183.206664 951.753333,182.706669 951.74,182.2 C951.726667,181.693331 951.706667,181.220002 951.68,180.78 C951.653333,180.339998 951.64,180.000001 951.64,179.76 L954.04,179.76 C954.066667,180.453337 954.086667,181.119997 954.1,181.76 C954.113333,182.400003 954.146666,182.813332 954.2,183 L954.32,183 C954.800002,181.986662 955.599994,181.113337 956.72,180.38 C957.840006,179.646663 959.146659,179.28 960.64,179.28 C962.080007,179.28 963.253329,179.506664 964.16,179.96 C965.066671,180.413336 965.779997,181.006663 966.3,181.74 C966.820003,182.473337 967.179999,183.319995 967.38,184.28 C967.580001,185.240005 967.68,186.226662 967.68,187.24 L967.68,198.24 L965.28,198.24 L965.28,187.36 C965.28,186.61333 965.213334,185.88667 965.08,185.18 C964.946666,184.47333 964.713335,183.840003 964.38,183.28 C964.046665,182.719997 963.580003,182.273335 962.98,181.94 C962.379997,181.606665 961.600005,181.44 960.64,181.44 C959.759996,181.44 958.926671,181.593332 958.14,181.9 C957.353329,182.206668 956.673336,182.67333 956.1,183.3 C955.526664,183.92667 955.073335,184.713329 954.74,185.66 C954.406665,186.606671 954.24,187.719994 954.24,189 L954.24,198.24 L951.84,198.24 L951.84,184.96 Z M990.4,194.76 C989.466662,196.17334 988.31334,197.186664 986.94,197.8 C985.56666,198.413336 984.053342,198.72 982.4,198.72 C980.98666,198.72 979.706672,198.480002 978.56,198 C977.413328,197.519998 976.426671,196.846671 975.6,195.98 C974.773329,195.113329 974.140002,194.086673 973.7,192.9 C973.259998,191.713327 973.04,190.400007 973.04,188.96 C973.04,187.573326 973.266664,186.293339 973.72,185.12 C974.173336,183.946661 974.813329,182.926671 975.64,182.06 C976.466671,181.193329 977.439994,180.513336 978.56,180.02 C979.680006,179.526664 980.919993,179.28 982.28,179.28 C983.69334,179.28 984.939995,179.526664 986.02,180.02 C987.100005,180.513336 988.006663,181.166663 988.74,181.98 C989.473337,182.793337 990.026665,183.719995 990.4,184.76 C990.773335,185.800005 990.96,186.853328 990.96,187.92 L990.96,189.6 L975.44,189.6 C975.44,190.106669 975.539999,190.753329 975.74,191.54 C975.940001,192.326671 976.306664,193.09333 976.84,193.84 C977.373336,194.58667 978.086662,195.226664 978.98,195.76 C979.873338,196.293336 981.02666,196.56 982.44,196.56 C983.666673,196.56 984.853328,196.26667 986,195.68 C987.146672,195.09333 988.026664,194.293338 988.64,193.28 L990.4,194.76 Z M988.56,187.44 C988.56,186.613329 988.393335,185.840004 988.06,185.12 C987.726665,184.399996 987.273336,183.766669 986.7,183.22 C986.126664,182.673331 985.446671,182.240002 984.66,181.92 C983.873329,181.599998 983.040004,181.44 982.16,181.44 C980.853327,181.44 979.766671,181.706664 978.9,182.24 C978.033329,182.773336 977.346669,183.386663 976.84,184.08 C976.333331,184.773337 975.973334,185.446663 975.76,186.1 C975.546666,186.753337 975.44,187.199999 975.44,187.44 L988.56,187.44 Z M996.36,193.52 C996.866669,194.506672 997.613328,195.259997 998.6,195.78 C999.586672,196.300003 1000.62666,196.56 1001.72,196.56 C1002.22667,196.56 1002.73333,196.480001 1003.24,196.32 C1003.74667,196.159999 1004.2,195.933335 1004.6,195.64 C1005,195.346665 1005.32667,194.993335 1005.58,194.58 C1005.83333,194.166665 1005.96,193.693336 1005.96,193.16 C1005.96,192.306662 1005.68667,191.666669 1005.14,191.24 C1004.59333,190.813331 1003.92,190.480001 1003.12,190.24 C1002.32,189.999999 1001.44,189.793334 1000.48,189.62 C999.519995,189.446666 998.640004,189.180002 997.84,188.82 C997.039996,188.459998 996.366669,187.960003 995.82,187.32 C995.273331,186.679997 995,185.773339 995,184.6 C995,183.693329 995.186665,182.90667 995.56,182.24 C995.933335,181.57333 996.419997,181.020002 997.02,180.58 C997.620003,180.139998 998.29333,179.813334 999.04,179.6 C999.78667,179.386666 1000.54666,179.28 1001.32,179.28 C1002.84001,179.28 1004.15333,179.559997 1005.26,180.12 C1006.36667,180.680003 1007.22666,181.559994 1007.84,182.76 L1005.68,184.04 C1005.22666,183.186662 1004.66,182.540002 1003.98,182.1 C1003.3,181.659998 1002.41334,181.44 1001.32,181.44 C1000.89333,181.44 1000.44667,181.506666 999.98,181.64 C999.513331,181.773334 999.093335,181.959999 998.72,182.2 C998.346665,182.440001 998.033335,182.746665 997.78,183.12 C997.526665,183.493335 997.4,183.919998 997.4,184.4 C997.4,185.226671 997.673331,185.839998 998.22,186.24 C998.766669,186.640002 999.439996,186.953332 1000.24,187.18 C1001.04,187.406668 1001.92,187.599999 1002.88,187.76 C1003.84,187.920001 1004.72,188.179998 1005.52,188.54 C1006.32,188.900002 1006.99333,189.419997 1007.54,190.1 C1008.08667,190.780003 1008.36,191.74666 1008.36,193 C1008.36,193.960005 1008.18,194.79333 1007.82,195.5 C1007.46,196.20667 1006.96667,196.799998 1006.34,197.28 C1005.71333,197.760002 1005,198.119999 1004.2,198.36 C1003.4,198.600001 1002.56,198.72 1001.68,198.72 C1000.07999,198.72 998.620007,198.413336 997.3,197.8 C995.979993,197.186664 994.960004,196.240006 994.24,194.96 L996.36,193.52 Z M1013.44,196.56 C1013.44,196.026664 1013.62666,195.573335 1014,195.2 C1014.37334,194.826665 1014.82666,194.64 1015.36,194.64 C1015.89334,194.64 1016.34666,194.826665 1016.72,195.2 C1017.09334,195.573335 1017.28,196.026664 1017.28,196.56 C1017.28,197.093336 1017.09334,197.546665 1016.72,197.92 C1016.34666,198.293335 1015.89334,198.48 1015.36,198.48 C1014.82666,198.48 1014.37334,198.293335 1014,197.92 C1013.62666,197.546665 1013.44,197.093336 1013.44,196.56 Z" id="desc"></path>
            </g>
        </g>
    </g>
</svg>