<?xml version="1.0" encoding="UTF-8"?>
<svg width="300px" height="201px" viewBox="0 0 300 201" version="1.1" xmlns="http://www.w3.org/2000/svg" xmlns:xlink="http://www.w3.org/1999/xlink">
    <!-- Generator: Sketch 44.1 (41455) - http://www.bohemiancoding.com/sketch -->
    <title>air</title>
    <desc>Created with Sketch.</desc>
    <defs></defs>
    <g id="Page-1" stroke="none" stroke-width="1" fill="none" fill-rule="evenodd">
        <g id="Features" transform="translate(-810.000000, -113.000000)">
            <g id="air" transform="translate(810.000000, 113.000000)">
                <rect id="Rectangle-3" fill-opacity="0.01" fill="#FFFFFF" x="0" y="0.35" width="300" height="200"></rect>
                <path d="M62.375,88.45 C66.8083555,84.3666462 71.9416375,81.3041769 77.775,79.2625 C83.6083625,77.2208231 89.4416375,76.2 95.275,76.2 C101.341697,76.2 106.562478,76.9583258 110.9375,78.475 C115.312522,79.9916742 118.899986,82.0333205 121.7,84.6 C124.500014,87.1666795 126.570827,90.1124834 127.9125,93.4375 C129.254173,96.7625166 129.925,100.233315 129.925,103.85 L129.925,146.2 C129.925,149.116681 129.983333,151.799988 130.1,154.25 C130.216667,156.700012 130.391666,159.033322 130.625,161.25 L116.625,161.25 C116.274998,157.049979 116.1,152.850021 116.1,148.65 L115.75,148.65 C112.249982,154.016693 108.108357,157.808322 103.325,160.025 C98.5416428,162.241678 93.0000315,163.35 86.7,163.35 C82.8499807,163.35 79.1750175,162.825005 75.675,161.775 C72.1749825,160.724995 69.1125131,159.150011 66.4875,157.05 C63.8624869,154.94999 61.7916743,152.354182 60.275,149.2625 C58.7583258,146.170818 58,142.583354 58,138.5 C58,133.133307 59.1958214,128.641685 61.5875,125.025 C63.9791786,121.408315 67.2458126,118.462511 71.3875,116.1875 C75.5291874,113.912489 80.3708056,112.279172 85.9125,111.2875 C91.4541944,110.295828 97.3749685,109.8 103.675,109.8 L115.225,109.8 L115.225,106.3 C115.225,104.199989 114.816671,102.10001 114,100 C113.183329,97.8999895 111.958342,96.0041751 110.325,94.3125 C108.691659,92.6208249 106.650012,91.2791716 104.2,90.2875 C101.749988,89.2958284 98.8333503,88.8 95.45,88.8 C92.4166515,88.8 89.7625114,89.0916638 87.4875,89.675 C85.2124886,90.2583363 83.141676,90.9874956 81.275,91.8625 C79.408324,92.7375044 77.7166742,93.7583275 76.2,94.925 C74.6833257,96.0916725 73.225007,97.1999947 71.825,98.25 L62.375,88.45 Z M106.825,121.35 C103.091648,121.35 99.2708529,121.554165 95.3625,121.9625 C91.4541471,122.370835 87.8958494,123.158327 84.6875,124.325 C81.4791506,125.491672 78.8541769,127.124989 76.8125,129.225 C74.7708231,131.32501 73.75,134.008317 73.75,137.275 C73.75,142.058357 75.3541506,145.499989 78.5625,147.6 C81.7708494,149.700011 86.1166393,150.75 91.6,150.75 C95.9166882,150.75 99.5916515,150.020841 102.625,148.5625 C105.658348,147.104159 108.108324,145.208345 109.975,142.875 C111.841676,140.541655 113.183329,137.945848 114,135.0875 C114.816671,132.229152 115.225,129.400014 115.225,126.6 L115.225,121.35 L106.825,121.35 Z M154.075,78.3 L169.825,78.3 L169.825,161.25 L154.075,161.25 L154.075,78.3 Z M150.4,48.55 C150.4,45.3999842 151.537489,42.6875114 153.8125,40.4125 C156.087511,38.1374886 158.799984,37 161.95,37 C165.100016,37 167.812489,38.1374886 170.0875,40.4125 C172.362511,42.6875114 173.5,45.3999842 173.5,48.55 C173.5,51.7000157 172.362511,54.4124886 170.0875,56.6875 C167.812489,58.9625114 165.100016,60.1 161.95,60.1 C158.799984,60.1 156.087511,58.9625114 153.8125,56.6875 C151.537489,54.4124886 150.4,51.7000157 150.4,48.55 Z M194.85,78.3 L210.6,78.3 L210.6,91.075 L210.95,91.075 C212.000005,88.8583222 213.399991,86.8458424 215.15,85.0375 C216.900009,83.2291576 218.854156,81.6833397 221.0125,80.4 C223.170844,79.1166602 225.533321,78.0958371 228.1,77.3375 C230.666679,76.5791629 233.233321,76.2 235.8,76.2 C238.36668,76.2 240.699989,76.5499965 242.8,77.25 L242.1,94.225 C240.81666,93.8749982 239.53334,93.5833345 238.25,93.35 C236.96666,93.1166655 235.68334,93 234.4,93 C226.699962,93 220.808354,95.1583117 216.725,99.475 C212.641646,103.791688 210.6,110.499955 210.6,119.6 L210.6,161.25 L194.85,161.25 L194.85,78.3 Z" fill="#0B1028"></path>
            </g>
        </g>
    </g>
</svg>