<svg xmlns="http://www.w3.org/2000/svg" viewBox="0 0 100 100">
  <defs>
    <linearGradient id="am_logo-a" x1="100%" x2="0%" y1="30%" y2="70%">
      <stop offset="0%" stop-color="#5982FF"/>
      <stop offset="100%" stop-color="#ff5a5a"/>
    </linearGradient>
  </defs>
  <path fill="url(#am_logo-a)" d="M35.1603368,23.2913945 C37.5138132,23.3363232 39.6905936,24.5405448 40.9555716,26.5470017 L41.0974423,26.7820558 L63.8627716,66.2127627 C65.7906234,69.5518999 64.6465503,73.821637 61.3074137,75.7494889 C58.0424802,77.634499 53.887846,76.5825982 51.9026452,73.413478 L51.7706882,73.1941304 L34.8996317,43.9726033 L18.0285752,73.1941304 C16.1007237,76.5332676 11.8309863,77.6773401 8.49184959,75.7494889 C5.22691594,73.8644781 4.06057184,69.7405095 5.81250957,66.4367146 L5.93649162,66.2127627 L28.701821,26.7820558 C29.9414865,24.6348922 32.1949319,23.3380512 34.6181386,23.2913945 L35.1603368,23.2913945 Z M71.2981789,26.4918496 L94.0635084,65.9225568 C95.9913598,69.2616934 94.8472871,73.5314309 91.5081504,75.4592824 C88.1690138,77.3871338 83.8992763,76.2430611 81.9714248,72.9039244 L59.2060954,33.4732172 C57.278244,30.1340806 58.4223167,25.8643431 61.7614533,23.9364916 C65.10059,22.0086402 69.3703275,23.1527129 71.2981789,26.4918496 Z M34.8983646,59.7146319 C38.7540675,59.7146319 41.8797323,62.8402967 41.8797323,66.6959996 C41.8797323,70.5517025 38.7540675,73.6773673 34.8983646,73.6773673 C31.0426617,73.6773673 27.9169969,70.5517025 27.9169969,66.6959996 C27.9169969,62.8402967 31.0426617,59.7146319 34.8983646,59.7146319 Z"/>
</svg>
